GentiumPlusMaster-Regular.ufo
<glyph name="ExclamationMrk" format="2">
  <advance width="557.0"/>
  <unicode hex="0021"/>
  <outline>
    <contour>
      <point x="326.0" y="389.0" type="curve"/>
      <point x="375.0" y="1455.0" type="line"/>
      <point x="332.0" y="1480.0" type="line"/>
      <point x="287.0" y="1461.0"/>
      <point x="227.0" y="1431.0"/>
      <point x="176.0" y="1398.0" type="curve"/>
      <point x="223.0" y="371.0" type="line"/>
      <point x="252.0" y="350.0" type="line"/>
      <point x="285.0" y="360.0"/>
      <point x="301.0" y="371.0"/>
    </contour>
    <contour>
      <point x="390.0" y="31.0"/>
      <point x="390.0" y="123.0" type="curve"/>
      <point x="390.0" y="195.0"/>
      <point x="357.0" y="236.0"/>
      <point x="291.0" y="236.0" type="curve" smooth="yes"/>
      <point x="216.0" y="236.0"/>
      <point x="152.0" y="162.0"/>
      <point x="152.0" y="72.0" type="curve" smooth="yes"/>
      <point x="152.0" y="0.0"/>
      <point x="181.0" y="-40.0"/>
      <point x="252.0" y="-40.0" type="curve" smooth="yes"/>
      <point x="330.0" y="-40.0"/>
    </contour>
  </outline>
</glyph>
<glyph name="QuotMrk" format="2">
  <advance width="870.0"/>
  <unicode hex="0022"/>
  <outline>
    <contour>
      <point x="668.0" y="834.0" type="curve"/>
      <point x="711.0" y="1459.0" type="line"/>
      <point x="668.0" y="1480.0" type="line"/>
      <point x="639.0" y="1474.0"/>
      <point x="547.0" y="1443.0"/>
      <point x="518.0" y="1426.0" type="curve"/>
      <point x="571.0" y="813.0" type="line"/>
      <point x="602.0" y="813.0"/>
      <point x="647.0" y="823.0"/>
    </contour>
    <contour>
      <point x="309.0" y="834.0" type="curve"/>
      <point x="352.0" y="1459.0" type="line"/>
      <point x="309.0" y="1480.0" type="line"/>
      <point x="281.0" y="1474.0"/>
      <point x="190.0" y="1443.0"/>
      <point x="160.0" y="1426.0" type="curve"/>
      <point x="213.0" y="813.0" type="line"/>
      <point x="244.0" y="813.0"/>
      <point x="289.0" y="823.0"/>
    </contour>
  </outline>
</glyph>
<glyph name="NumSgn" format="2">
  <advance width="961.0"/>
  <unicode hex="0023"/>
  <outline>
    <contour>
      <point x="976.0" y="907.0"/>
      <point x="982.0" y="936.0" type="curve"/>
      <point x="957.0" y="961.0" type="line"/>
      <point x="224.0" y="961.0" type="line"/>
      <point x="214.0" y="934.0"/>
      <point x="199.0" y="899.0"/>
      <point x="193.0" y="870.0" type="curve"/>
      <point x="218.0" y="846.0" type="line"/>
      <point x="951.0" y="846.0" type="line"/>
      <point x="961.0" y="868.0"/>
    </contour>
    <contour>
      <point x="580.0" y="170.0" type="curve"/>
      <point x="894.0" y="1270.0" type="line"/>
      <point x="867.0" y="1292.0" type="line"/>
      <point x="836.0" y="1280.0"/>
      <point x="806.0" y="1272.0"/>
      <point x="777.0" y="1251.0" type="curve"/>
      <point x="462.0" y="147.0" type="line"/>
      <point x="488.0" y="127.0" type="line"/>
      <point x="523.0" y="139.0"/>
      <point x="556.0" y="152.0"/>
    </contour>
    <contour>
      <point x="279.0" y="170.0" type="curve"/>
      <point x="595.0" y="1270.0" type="line"/>
      <point x="566.0" y="1292.0" type="line"/>
      <point x="537.0" y="1280.0"/>
      <point x="507.0" y="1272.0"/>
      <point x="478.0" y="1251.0" type="curve"/>
      <point x="163.0" y="147.0" type="line"/>
      <point x="189.0" y="127.0" type="line"/>
      <point x="224.0" y="139.0"/>
      <point x="255.0" y="152.0"/>
    </contour>
    <contour>
      <point x="867.0" y="537.0"/>
      <point x="873.0" y="563.0" type="curve"/>
      <point x="851.0" y="590.0" type="line"/>
      <point x="117.0" y="590.0" type="line"/>
      <point x="105.0" y="563.0"/>
      <point x="93.0" y="526.0"/>
      <point x="87.0" y="500.0" type="curve"/>
      <point x="109.0" y="475.0" type="line"/>
      <point x="845.0" y="475.0" type="line"/>
      <point x="855.0" y="498.0"/>
    </contour>
  </outline>
</glyph>
<glyph name="DollarSgn" format="2">
  <advance width="961.0"/>
  <unicode hex="0024"/>
  <outline>
    <contour>
      <point x="498.0" y="-164.0"/>
      <point x="522.0" y="-143.0" type="curve"/>
      <point x="522.0" y="1362.0" type="line"/>
      <point x="496.0" y="1384.0" type="line"/>
      <point x="457.0" y="1374.0"/>
      <point x="469.0" y="1378.0"/>
      <point x="432.0" y="1356.0" type="curve"/>
      <point x="432.0" y="-152.0" type="line"/>
      <point x="459.0" y="-174.0" type="line"/>
      <point x="492.0" y="-166.0"/>
    </contour>
    <contour>
      <point x="309.0" y="-10.0"/>
      <point x="442.0" y="-10.0" type="curve" smooth="yes"/>
      <point x="719.0" y="-10.0"/>
      <point x="862.0" y="199.0"/>
      <point x="862.0" y="377.0" type="curve" smooth="yes"/>
      <point x="862.0" y="780.0"/>
      <point x="225.0" y="696.0"/>
      <point x="225.0" y="958.0" type="curve" smooth="yes"/>
      <point x="225.0" y="1034.0"/>
      <point x="281.0" y="1116.0"/>
      <point x="451.0" y="1116.0" type="curve" smooth="yes"/>
      <point x="528.0" y="1116.0"/>
      <point x="612.0" y="1079.0"/>
      <point x="688.0" y="991.0" type="curve"/>
      <point x="727.0" y="983.0" type="line"/>
      <point x="762.0" y="1014.0"/>
      <point x="827.0" y="1106.0"/>
      <point x="811.0" y="1124.0" type="curve"/>
      <point x="758.0" y="1178.0"/>
      <point x="639.0" y="1214.0"/>
      <point x="512.0" y="1214.0" type="curve" smooth="yes"/>
      <point x="197.0" y="1214.0"/>
      <point x="98.0" y="1036.0"/>
      <point x="98.0" y="911.0" type="curve" smooth="yes"/>
      <point x="98.0" y="535.0"/>
      <point x="727.0" y="655.0"/>
      <point x="727.0" y="324.0" type="curve" smooth="yes"/>
      <point x="727.0" y="197.0"/>
      <point x="608.0" y="111.0"/>
      <point x="489.0" y="111.0" type="curve" smooth="yes"/>
      <point x="346.0" y="111.0"/>
      <point x="219.0" y="178.0"/>
      <point x="145.0" y="336.0" type="curve"/>
      <point x="102.0" y="340.0" type="line"/>
      <point x="82.0" y="266.0"/>
      <point x="84.0" y="109.0"/>
      <point x="102.0" y="96.0" type="curve"/>
      <point x="223.0" y="20.0"/>
    </contour>
  </outline>
</glyph>
<glyph name="Ampersand" format="2">
  <advance width="1366.0"/>
  <unicode hex="0026"/>
  <outline>
    <contour>
      <point x="1313.0" y="707.0"/>
      <point x="1346.0" y="748.0" type="curve"/>
      <point x="1323.0" y="784.0" type="line"/>
      <point x="879.0" y="784.0" type="line"/>
      <point x="852.0" y="774.0"/>
      <point x="819.0" y="750.0"/>
      <point x="805.0" y="733.0" type="curve"/>
      <point x="827.0" y="705.0" type="line"/>
      <point x="905.0" y="705.0"/>
      <point x="987.0" y="614.0"/>
      <point x="987.0" y="502.0" type="curve" smooth="yes"/>
      <point x="987.0" y="334.0"/>
      <point x="811.0" y="84.0"/>
      <point x="528.0" y="84.0" type="curve" smooth="yes"/>
      <point x="381.0" y="84.0"/>
      <point x="242.0" y="186.0"/>
      <point x="242.0" y="373.0" type="curve" smooth="yes"/>
      <point x="242.0" y="528.0"/>
      <point x="328.0" y="659.0"/>
      <point x="618.0" y="842.0" type="curve"/>
      <point x="776.0" y="940.0"/>
      <point x="868.0" y="1065.0"/>
      <point x="868.0" y="1204.0" type="curve" smooth="yes"/>
      <point x="868.0" y="1333.0"/>
      <point x="811.0" y="1450.0"/>
      <point x="641.0" y="1450.0" type="curve" smooth="yes"/>
      <point x="473.0" y="1450.0"/>
      <point x="317.0" y="1288.0"/>
      <point x="317.0" y="1073.0" type="curve" smooth="yes"/>
      <point x="317.0" y="618.0"/>
      <point x="985.0" y="-30.0"/>
      <point x="1081.0" y="-30.0" type="curve" smooth="yes"/>
      <point x="1110.0" y="-30.0"/>
      <point x="1194.0" y="-6.0"/>
      <point x="1309.0" y="45.0" type="curve"/>
      <point x="1300.0" y="88.0" type="line"/>
      <point x="1223.0" y="70.0"/>
      <point x="1167.0" y="84.0"/>
      <point x="1116.0" y="127.0" type="curve"/>
      <point x="868.0" y="326.0"/>
      <point x="444.0" y="807.0"/>
      <point x="444.0" y="1130.0" type="curve" smooth="yes"/>
      <point x="444.0" y="1235.0"/>
      <point x="492.0" y="1343.0"/>
      <point x="588.0" y="1343.0" type="curve" smooth="yes"/>
      <point x="682.0" y="1343.0"/>
      <point x="729.0" y="1264.0"/>
      <point x="729.0" y="1171.0" type="curve" smooth="yes"/>
      <point x="729.0" y="1083.0"/>
      <point x="689.0" y="980.0"/>
      <point x="503.0" y="876.0" type="curve" smooth="yes"/>
      <point x="235.0" y="726.0"/>
      <point x="80.0" y="532.0"/>
      <point x="80.0" y="352.0" type="curve" smooth="yes"/>
      <point x="80.0" y="102.0"/>
      <point x="250.0" y="-30.0"/>
      <point x="498.0" y="-30.0" type="curve" smooth="yes"/>
      <point x="838.0" y="-30.0"/>
      <point x="1108.0" y="311.0"/>
      <point x="1108.0" y="543.0" type="curve" smooth="yes"/>
      <point x="1108.0" y="621.0"/>
      <point x="1104.0" y="653.0"/>
      <point x="1075.0" y="700.0" type="curve"/>
      <point x="1120.0" y="698.0"/>
      <point x="1198.0" y="682.0"/>
      <point x="1247.0" y="659.0" type="curve"/>
      <point x="1280.0" y="682.0"/>
    </contour>
  </outline>
</glyph>
<glyph name="LftParen" format="2">
  <advance width="649.0"/>
  <unicode hex="0028"/>
  <outline>
    <contour>
      <point x="578.0" y="-315.0" type="curve"/>
      <point x="610.0" y="-270.0" type="line"/>
      <point x="406.0" y="-102.0"/>
      <point x="291.0" y="262.0"/>
      <point x="291.0" y="651.0" type="curve" smooth="yes"/>
      <point x="291.0" y="1079.0"/>
      <point x="436.0" y="1410.0"/>
      <point x="610.0" y="1555.0" type="curve"/>
      <point x="578.0" y="1600.0" type="line"/>
      <point x="303.0" y="1457.0"/>
      <point x="121.0" y="1061.0"/>
      <point x="121.0" y="623.0" type="curve" smooth="yes"/>
      <point x="121.0" y="199.0"/>
      <point x="276.0" y="-176.0"/>
    </contour>
  </outline>
</glyph>
<glyph name="RtParen" format="2">
  <advance width="649.0"/>
  <unicode hex="0029"/>
  <outline>
    <contour>
      <point x="530.0" y="225.0"/>
      <point x="530.0" y="664.0" type="curve"/>
      <point x="530.0" y="1087.0"/>
      <point x="373.0" y="1463.0"/>
      <point x="72.0" y="1600.0" type="curve"/>
      <point x="41.0" y="1555.0" type="line"/>
      <point x="246.0" y="1390.0"/>
      <point x="360.0" y="1022.0"/>
      <point x="360.0" y="635.0" type="curve" smooth="yes"/>
      <point x="360.0" y="207.0"/>
      <point x="213.0" y="-125.0"/>
      <point x="41.0" y="-270.0" type="curve"/>
      <point x="72.0" y="-315.0" type="line"/>
      <point x="346.0" y="-172.0"/>
    </contour>
  </outline>
</glyph>
<glyph name="Asterisk" format="2">
  <advance width="915.0"/>
  <unicode hex="002A"/>
  <outline>
    <contour>
      <point x="489.0" y="1188.0" type="line"/>
      <point x="530.0" y="1540.0" type="line"/>
      <point x="494.0" y="1561.0" type="line"/>
      <point x="465.0" y="1554.0"/>
      <point x="416.0" y="1528.0"/>
      <point x="387.0" y="1513.0" type="curve"/>
      <point x="426.0" y="1187.0" type="line"/>
      <point x="141.0" y="1399.0" type="line"/>
      <point x="106.0" y="1376.0" type="line"/>
      <point x="96.0" y="1350.0"/>
      <point x="96.0" y="1294.0"/>
      <point x="94.0" y="1262.0" type="curve"/>
      <point x="396.0" y="1133.0" type="line"/>
      <point x="70.0" y="993.0" type="line"/>
      <point x="72.0" y="950.0" type="line"/>
      <point x="90.0" y="930.0"/>
      <point x="137.0" y="901.0"/>
      <point x="166.0" y="883.0" type="curve"/>
      <point x="427.0" y="1079.0" type="line"/>
      <point x="385.0" y="727.0" type="line"/>
      <point x="424.0" y="709.0" type="line"/>
      <point x="453.0" y="715.0"/>
      <point x="500.0" y="739.0"/>
      <point x="528.0" y="756.0" type="curve"/>
      <point x="490.0" y="1079.0" type="line"/>
      <point x="772.0" y="868.0" type="line"/>
      <point x="809.0" y="891.0" type="line"/>
      <point x="819.0" y="920.0"/>
      <point x="819.0" y="973.0"/>
      <point x="821.0" y="1006.0" type="curve"/>
      <point x="520.0" y="1135.0" type="line"/>
      <point x="846.0" y="1276.0" type="line"/>
      <point x="844.0" y="1317.0" type="line"/>
      <point x="823.0" y="1339.0"/>
      <point x="778.0" y="1366.0"/>
      <point x="750.0" y="1384.0" type="curve"/>
    </contour>
  </outline>
</glyph>
<glyph name="PlusSgn" format="2">
  <advance width="840.0"/>
  <unicode hex="002B"/>
  <outline>
    <contour>
      <point x="772.0" y="566.0"/>
      <point x="778.0" y="593.0" type="curve"/>
      <point x="754.0" y="617.0" type="line"/>
      <point x="92.0" y="617.0" type="line"/>
      <point x="80.0" y="591.0"/>
      <point x="68.0" y="558.0"/>
      <point x="61.0" y="531.0" type="curve"/>
      <point x="86.0" y="507.0" type="line"/>
      <point x="748.0" y="507.0" type="line"/>
      <point x="758.0" y="529.0"/>
    </contour>
    <contour>
      <point x="451.0" y="223.0"/>
      <point x="477.0" y="236.0" type="curve"/>
      <point x="477.0" y="897.0" type="line"/>
      <point x="453.0" y="920.0" type="line"/>
      <point x="424.0" y="913.0"/>
      <point x="387.0" y="899.0"/>
      <point x="362.0" y="891.0" type="curve"/>
      <point x="362.0" y="227.0" type="line"/>
      <point x="387.0" y="205.0" type="line"/>
      <point x="416.0" y="211.0"/>
    </contour>
  </outline>
</glyph>
<glyph name="Comma" format="2">
  <advance width="469.0"/>
  <unicode hex="002C"/>
  <outline>
    <contour>
      <point x="390.0" y="-35.0"/>
      <point x="390.0" y="70.0" type="curve"/>
      <point x="390.0" y="145.0"/>
      <point x="373.0" y="199.0"/>
      <point x="309.0" y="229.0" type="curve"/>
      <point x="262.0" y="231.0"/>
      <point x="111.0" y="170.0"/>
      <point x="88.0" y="139.0" type="curve"/>
      <point x="104.0" y="92.0" type="line"/>
      <point x="190.0" y="98.0"/>
      <point x="226.0" y="59.0"/>
      <point x="226.0" y="0.0" type="curve" smooth="yes"/>
      <point x="226.0" y="-115.0"/>
      <point x="195.0" y="-184.0"/>
      <point x="121.0" y="-270.0" type="curve"/>
      <point x="166.0" y="-305.0" type="line"/>
      <point x="305.0" y="-201.0"/>
    </contour>
  </outline>
</glyph>
<glyph name="HyphenMinus" format="2">
  <advance width="690.0"/>
  <unicode hex="002D"/>
  <anchor x="345.0" y="1050.0" name="U"/>
  <outline>
    <contour>
      <point x="621.0" y="517.0"/>
      <point x="629.0" y="546.0" type="curve"/>
      <point x="604.0" y="570.0" type="line"/>
      <point x="92.0" y="570.0" type="line"/>
      <point x="80.0" y="544.0"/>
      <point x="68.0" y="508.0"/>
      <point x="61.0" y="479.0" type="curve"/>
      <point x="86.0" y="455.0" type="line"/>
      <point x="598.0" y="455.0" type="line"/>
      <point x="608.0" y="477.0"/>
    </contour>
  </outline>
</glyph>
<glyph name="FullStop" format="2">
  <advance width="469.0"/>
  <unicode hex="002E"/>
  <outline>
    <contour>
      <point x="369.0" y="31.0"/>
      <point x="369.0" y="123.0" type="curve"/>
      <point x="369.0" y="195.0"/>
      <point x="336.0" y="236.0"/>
      <point x="270.0" y="236.0" type="curve" smooth="yes"/>
      <point x="195.0" y="236.0"/>
      <point x="131.0" y="162.0"/>
      <point x="131.0" y="72.0" type="curve" smooth="yes"/>
      <point x="131.0" y="0.0"/>
      <point x="160.0" y="-40.0"/>
      <point x="231.0" y="-40.0" type="curve" smooth="yes"/>
      <point x="309.0" y="-40.0"/>
    </contour>
  </outline>
</glyph>
<glyph name="Solidus" format="2">
  <advance width="961.0"/>
  <unicode hex="002F"/>
  <outline>
    <contour>
      <point x="211.0" y="-284.0" type="curve"/>
      <point x="909.0" y="1578.0" type="line"/>
      <point x="872.0" y="1600.0" type="line"/>
      <point x="834.0" y="1590.0"/>
      <point x="786.0" y="1574.0"/>
      <point x="750.0" y="1551.0" type="curve"/>
      <point x="49.0" y="-310.0" type="line"/>
      <point x="86.0" y="-335.0" type="line"/>
      <point x="119.0" y="-325.0"/>
      <point x="184.0" y="-302.0"/>
    </contour>
  </outline>
</glyph>
<glyph name="DigitZero" format="2">
  <advance width="961.0"/>
  <unicode hex="0030"/>
  <anchor x="480.0" y="-100.0" name="L"/>
  <anchor x="480.0" y="1370.0" name="U"/>
  <outline>
    <contour>
      <point x="885.0" y="258.0"/>
      <point x="885.0" y="602.0" type="curve"/>
      <point x="885.0" y="950.0"/>
      <point x="754.0" y="1235.0"/>
      <point x="500.0" y="1235.0" type="curve" smooth="yes"/>
      <point x="248.0" y="1235.0"/>
      <point x="76.0" y="946.0"/>
      <point x="76.0" y="602.0" type="curve" smooth="yes"/>
      <point x="76.0" y="258.0"/>
      <point x="207.0" y="-30.0"/>
      <point x="461.0" y="-30.0" type="curve" smooth="yes"/>
      <point x="715.0" y="-30.0"/>
    </contour>
    <contour>
      <point x="721.0" y="930.0"/>
      <point x="721.0" y="565.0" type="curve"/>
      <point x="721.0" y="227.0"/>
      <point x="639.0" y="85.0"/>
      <point x="500.0" y="85.0" type="curve" smooth="yes"/>
      <point x="352.0" y="85.0"/>
      <point x="240.0" y="279.0"/>
      <point x="240.0" y="645.0" type="curve" smooth="yes"/>
      <point x="240.0" y="979.0"/>
      <point x="324.0" y="1120.0"/>
      <point x="461.0" y="1120.0" type="curve" smooth="yes"/>
      <point x="596.0" y="1120.0"/>
    </contour>
  </outline>
</glyph>
<glyph name="DigitOne" format="2">
  <advance width="961.0"/>
  <unicode hex="0031"/>
  <anchor x="480.0" y="-100.0" name="L"/>
  <anchor x="480.0" y="1370.0" name="U"/>
  <outline>
    <contour>
      <point x="170.0" y="0.0" type="line"/>
      <point x="840.0" y="0.0" type="line"/>
      <point x="840.0" y="53.0" type="line"/>
      <point x="639.0" y="78.0"/>
      <point x="590.0" y="117.0"/>
      <point x="590.0" y="143.0" type="curve" smooth="yes"/>
      <point x="590.0" y="1210.0" type="line"/>
      <point x="553.0" y="1245.0" type="line"/>
      <point x="465.0" y="1196.0"/>
      <point x="250.0" y="1106.0"/>
      <point x="139.0" y="1075.0" type="curve"/>
      <point x="160.0" y="1024.0" type="line"/>
      <point x="336.0" y="1061.0"/>
      <point x="406.0" y="1055.0"/>
      <point x="422.0" y="1038.0" type="curve" smooth="yes"/>
      <point x="438.0" y="1020.0"/>
      <point x="440.0" y="993.0"/>
      <point x="440.0" y="940.0" type="curve" smooth="yes"/>
      <point x="440.0" y="143.0" type="line" smooth="yes"/>
      <point x="440.0" y="115.0"/>
      <point x="379.0" y="78.0"/>
      <point x="170.0" y="53.0" type="curve"/>
    </contour>
  </outline>
</glyph>
<glyph name="DigitTwo" format="2">
  <advance width="961.0"/>
  <unicode hex="0032"/>
  <anchor x="480.0" y="-100.0" name="L"/>
  <anchor x="480.0" y="1370.0" name="U"/>
  <outline>
    <contour>
      <point x="821.0" y="0.0" type="line"/>
      <point x="836.0" y="287.0" type="line"/>
      <point x="786.0" y="299.0" type="line"/>
      <point x="786.0" y="299.0"/>
      <point x="774.0" y="121.0"/>
      <point x="684.0" y="121.0" type="curve" smooth="yes"/>
      <point x="266.0" y="121.0" type="line"/>
      <point x="676.0" y="602.0"/>
      <point x="823.0" y="774.0"/>
      <point x="823.0" y="952.0" type="curve" smooth="yes"/>
      <point x="823.0" y="1147.0"/>
      <point x="696.0" y="1235.0"/>
      <point x="535.0" y="1235.0" type="curve" smooth="yes"/>
      <point x="330.0" y="1235.0"/>
      <point x="125.0" y="1053.0"/>
      <point x="125.0" y="915.0" type="curve"/>
      <point x="152.0" y="885.0" type="line"/>
      <point x="213.0" y="891.0"/>
      <point x="235.0" y="909.0"/>
      <point x="280.0" y="934.0" type="curve"/>
      <point x="280.0" y="1028.0"/>
      <point x="358.0" y="1145.0"/>
      <point x="467.0" y="1145.0" type="curve" smooth="yes"/>
      <point x="612.0" y="1145.0"/>
      <point x="668.0" y="1047.0"/>
      <point x="668.0" y="924.0" type="curve" smooth="yes"/>
      <point x="668.0" y="772.0"/>
      <point x="573.0" y="625.0"/>
      <point x="98.0" y="74.0" type="curve"/>
      <point x="127.0" y="0.0" type="line"/>
    </contour>
  </outline>
</glyph>
<glyph name="DigitThree" format="2">
  <advance width="961.0"/>
  <unicode hex="0033"/>
  <anchor x="480.0" y="-100.0" name="L"/>
  <anchor x="480.0" y="1370.0" name="U"/>
  <outline>
    <contour>
      <point x="825.0" y="156.0"/>
      <point x="825.0" y="381.0" type="curve"/>
      <point x="825.0" y="543.0"/>
      <point x="707.0" y="680.0"/>
      <point x="555.0" y="698.0" type="curve"/>
      <point x="686.0" y="756.0"/>
      <point x="768.0" y="858.0"/>
      <point x="768.0" y="958.0" type="curve" smooth="yes"/>
      <point x="768.0" y="1094.0"/>
      <point x="682.0" y="1235.0"/>
      <point x="483.0" y="1235.0" type="curve" smooth="yes"/>
      <point x="281.0" y="1235.0"/>
      <point x="104.0" y="1077.0"/>
      <point x="104.0" y="965.0" type="curve"/>
      <point x="131.0" y="934.0" type="line"/>
      <point x="188.0" y="938.0"/>
      <point x="225.0" y="950.0"/>
      <point x="270.0" y="973.0" type="curve"/>
      <point x="254.0" y="1063.0"/>
      <point x="319.0" y="1144.0"/>
      <point x="426.0" y="1144.0" type="curve" smooth="yes"/>
      <point x="553.0" y="1144.0"/>
      <point x="608.0" y="1032.0"/>
      <point x="608.0" y="940.0" type="curve" smooth="yes"/>
      <point x="608.0" y="858.0"/>
      <point x="573.0" y="743.0"/>
      <point x="328.0" y="676.0" type="curve"/>
      <point x="342.0" y="616.0" type="line"/>
      <point x="383.0" y="623.0"/>
      <point x="373.0" y="623.0"/>
      <point x="410.0" y="623.0" type="curve" smooth="yes"/>
      <point x="528.0" y="623.0"/>
      <point x="665.0" y="549.0"/>
      <point x="665.0" y="348.0" type="curve" smooth="yes"/>
      <point x="665.0" y="178.0"/>
      <point x="555.0" y="70.0"/>
      <point x="393.0" y="70.0" type="curve" smooth="yes"/>
      <point x="293.0" y="70.0"/>
      <point x="223.0" y="96.0"/>
      <point x="102.0" y="186.0" type="curve"/>
      <point x="68.0" y="119.0" type="line"/>
      <point x="188.0" y="4.0"/>
      <point x="301.0" y="-30.0"/>
      <point x="406.0" y="-30.0" type="curve" smooth="yes"/>
      <point x="680.0" y="-30.0"/>
    </contour>
  </outline>
</glyph>
<glyph name="DigitFour" format="2">
  <advance width="961.0"/>
  <unicode hex="0034"/>
  <anchor x="480.0" y="-100.0" name="L"/>
  <anchor x="480.0" y="1370.0" name="U"/>
  <outline>
    <contour>
      <point x="846.0" y="387.0"/>
      <point x="874.0" y="430.0" type="curve"/>
      <point x="848.0" y="460.0" type="line"/>
      <point x="725.0" y="460.0" type="line"/>
      <point x="725.0" y="1210.0" type="line"/>
      <point x="688.0" y="1245.0" type="line"/>
      <point x="649.0" y="1225.0"/>
      <point x="606.0" y="1198.0"/>
      <point x="551.0" y="1174.0" type="curve"/>
      <point x="55.0" y="383.0" type="line"/>
      <point x="88.0" y="350.0" type="line"/>
      <point x="585.0" y="350.0" type="line"/>
      <point x="585.0" y="115.0" type="line" smooth="yes"/>
      <point x="585.0" y="92.0"/>
      <point x="549.0" y="72.0"/>
      <point x="375.0" y="43.0" type="curve"/>
      <point x="375.0" y="0.0" type="line"/>
      <point x="864.0" y="0.0" type="line"/>
      <point x="864.0" y="43.0" type="line"/>
      <point x="754.0" y="68.0"/>
      <point x="725.0" y="84.0"/>
      <point x="725.0" y="104.0" type="curve" smooth="yes"/>
      <point x="725.0" y="350.0" type="line"/>
      <point x="795.0" y="350.0" type="line"/>
      <point x="825.0" y="373.0"/>
    </contour>
    <contour>
      <point x="585.0" y="1040.0" type="line"/>
      <point x="585.0" y="460.0" type="line"/>
      <point x="213.0" y="460.0" type="line"/>
    </contour>
  </outline>
</glyph>
<glyph name="DigitFive" format="2">
  <advance width="961.0"/>
  <unicode hex="0035"/>
  <anchor x="480.0" y="-100.0" name="L"/>
  <anchor x="480.0" y="1370.0" name="U"/>
  <outline>
    <contour>
      <point x="836.0" y="178.0"/>
      <point x="836.0" y="410.0" type="curve"/>
      <point x="836.0" y="606.0"/>
      <point x="705.0" y="780.0"/>
      <point x="463.0" y="780.0" type="curve" smooth="yes"/>
      <point x="395.0" y="780.0"/>
      <point x="317.0" y="770.0"/>
      <point x="264.0" y="754.0" type="curve"/>
      <point x="276.0" y="813.0"/>
      <point x="303.0" y="997.0"/>
      <point x="307.0" y="1075.0" type="curve"/>
      <point x="694.0" y="1075.0" type="line"/>
      <point x="725.0" y="1098.0"/>
      <point x="776.0" y="1151.0"/>
      <point x="805.0" y="1194.0" type="curve"/>
      <point x="776.0" y="1223.0" type="line"/>
      <point x="776.0" y="1223.0"/>
      <point x="731.0" y="1205.0"/>
      <point x="655.0" y="1205.0" type="curve" smooth="yes"/>
      <point x="219.0" y="1205.0" type="line"/>
      <point x="211.0" y="1064.0"/>
      <point x="162.0" y="768.0"/>
      <point x="137.0" y="623.0" type="curve"/>
      <point x="184.0" y="590.0" type="line"/>
      <point x="254.0" y="643.0"/>
      <point x="346.0" y="670.0"/>
      <point x="403.0" y="670.0" type="curve" smooth="yes"/>
      <point x="590.0" y="670.0"/>
      <point x="676.0" y="549.0"/>
      <point x="676.0" y="367.0" type="curve" smooth="yes"/>
      <point x="676.0" y="215.0"/>
      <point x="592.0" y="70.0"/>
      <point x="418.0" y="70.0" type="curve" smooth="yes"/>
      <point x="342.0" y="70.0"/>
      <point x="254.0" y="88.0"/>
      <point x="113.0" y="186.0" type="curve"/>
      <point x="78.0" y="119.0" type="line"/>
      <point x="193.0" y="12.0"/>
      <point x="317.0" y="-30.0"/>
      <point x="440.0" y="-30.0" type="curve" smooth="yes"/>
      <point x="692.0" y="-30.0"/>
    </contour>
  </outline>
</glyph>
<glyph name="DigitSix" format="2">
  <advance width="961.0"/>
  <unicode hex="0036"/>
  <anchor x="480.0" y="-100.0" name="L"/>
  <anchor x="480.0" y="1370.0" name="U"/>
  <outline>
    <contour>
      <point x="881.0" y="225.0"/>
      <point x="881.0" y="412.0" type="curve"/>
      <point x="881.0" y="631.0"/>
      <point x="756.0" y="770.0"/>
      <point x="541.0" y="770.0" type="curve" smooth="yes"/>
      <point x="467.0" y="770.0"/>
      <point x="330.0" y="729.0"/>
      <point x="225.0" y="588.0" type="curve"/>
      <point x="238.0" y="492.0" type="line"/>
      <point x="317.0" y="614.0"/>
      <point x="422.0" y="660.0"/>
      <point x="500.0" y="660.0" type="curve" smooth="yes"/>
      <point x="598.0" y="660.0"/>
      <point x="731.0" y="598.0"/>
      <point x="731.0" y="348.0" type="curve" smooth="yes"/>
      <point x="731.0" y="225.0"/>
      <point x="688.0" y="75.0"/>
      <point x="545.0" y="75.0" type="curve" smooth="yes"/>
      <point x="379.0" y="75.0"/>
      <point x="270.0" y="221.0"/>
      <point x="270.0" y="537.0" type="curve" smooth="yes"/>
      <point x="270.0" y="811.0"/>
      <point x="442.0" y="1106.0"/>
      <point x="807.0" y="1190.0" type="curve"/>
      <point x="788.0" y="1249.0" type="line"/>
      <point x="324.0" y="1182.0"/>
      <point x="110.0" y="850.0"/>
      <point x="110.0" y="473.0" type="curve" smooth="yes"/>
      <point x="110.0" y="172.0"/>
      <point x="287.0" y="-30.0"/>
      <point x="506.0" y="-30.0" type="curve" smooth="yes"/>
      <point x="752.0" y="-30.0"/>
    </contour>
  </outline>
</glyph>
<glyph name="DigitSeven" format="2">
  <advance width="961"/>
  <unicode hex="0037"/>
  <anchor x="480" y="-100" name="L"/>
  <anchor x="480" y="1370" name="U"/>
  <outline>
    <contour>
      <point x="700" y="737"/>
      <point x="885" y="1167" type="curve"/>
      <point x="852" y="1205" type="line"/>
      <point x="147" y="1205" type="line"/>
      <point x="131" y="1146"/>
      <point x="112" y="1010"/>
      <point x="104" y="948" type="curve"/>
      <point x="150" y="930" type="line"/>
      <point x="204" y="1074"/>
      <point x="230" y="1075"/>
      <point x="279" y="1075" type="curve" smooth="yes"/>
      <point x="733" y="1075" type="line"/>
      <point x="519" y="566"/>
      <point x="416" y="336"/>
      <point x="229" y="3" type="curve"/>
      <point x="270" y="-30" type="line"/>
      <point x="336" y="-13"/>
      <point x="385" y="11"/>
      <point x="432" y="44" type="curve"/>
      <point x="502" y="257"/>
    </contour>
  </outline>
</glyph>
<glyph name="DigitEight" format="2">
  <advance width="961.0"/>
  <unicode hex="0038"/>
  <anchor x="480.0" y="-100.0" name="L"/>
  <anchor x="480.0" y="1370.0" name="U"/>
  <outline>
    <contour>
      <point x="867.0" y="145.0"/>
      <point x="867.0" y="352.0" type="curve"/>
      <point x="867.0" y="760.0"/>
      <point x="275.0" y="694.0"/>
      <point x="275.0" y="950.0" type="curve" smooth="yes"/>
      <point x="275.0" y="1040.0"/>
      <point x="332.0" y="1141.0"/>
      <point x="451.0" y="1141.0" type="curve" smooth="yes"/>
      <point x="582.0" y="1141.0"/>
      <point x="667.0" y="1077.0"/>
      <point x="667.0" y="938.0" type="curve" smooth="yes"/>
      <point x="667.0" y="862.0"/>
      <point x="625.0" y="784.0"/>
      <point x="510.0" y="709.0" type="curve"/>
      <point x="580.0" y="666.0" type="line"/>
      <point x="715.0" y="756.0"/>
      <point x="817.0" y="848.0"/>
      <point x="817.0" y="969.0" type="curve" smooth="yes"/>
      <point x="817.0" y="1124.0"/>
      <point x="702.0" y="1235.0"/>
      <point x="502.0" y="1235.0" type="curve" smooth="yes"/>
      <point x="301.0" y="1235.0"/>
      <point x="145.0" y="1100.0"/>
      <point x="145.0" y="915.0" type="curve" smooth="yes"/>
      <point x="145.0" y="559.0"/>
      <point x="707.0" y="670.0"/>
      <point x="707.0" y="309.0" type="curve" smooth="yes"/>
      <point x="707.0" y="193.0"/>
      <point x="647.0" y="70.0"/>
      <point x="500.0" y="70.0" type="curve" smooth="yes"/>
      <point x="348.0" y="70.0"/>
      <point x="254.0" y="176.0"/>
      <point x="254.0" y="315.0" type="curve" smooth="yes"/>
      <point x="254.0" y="438.0"/>
      <point x="309.0" y="520.0"/>
      <point x="440.0" y="614.0" type="curve"/>
      <point x="369.0" y="651.0" type="line"/>
      <point x="203.0" y="561.0"/>
      <point x="94.0" y="434.0"/>
      <point x="94.0" y="285.0" type="curve" smooth="yes"/>
      <point x="94.0" y="121.0"/>
      <point x="223.0" y="-30.0"/>
      <point x="451.0" y="-30.0" type="curve" smooth="yes"/>
      <point x="678.0" y="-30.0"/>
    </contour>
  </outline>
</glyph>
<glyph name="DigitNine" format="2">
  <advance width="961.0"/>
  <unicode hex="0039"/>
  <anchor x="480.0" y="-100.0" name="L"/>
  <anchor x="480.0" y="1370.0" name="U"/>
  <outline>
    <contour>
      <point x="870.0" y="326.0"/>
      <point x="870.0" y="731.0" type="curve"/>
      <point x="870.0" y="1085.0"/>
      <point x="692.0" y="1235.0"/>
      <point x="506.0" y="1235.0" type="curve" smooth="yes"/>
      <point x="270.0" y="1235.0"/>
      <point x="100.0" y="997.0"/>
      <point x="100.0" y="795.0" type="curve" smooth="yes"/>
      <point x="100.0" y="596.0"/>
      <point x="225.0" y="445.0"/>
      <point x="438.0" y="445.0" type="curve" smooth="yes"/>
      <point x="555.0" y="445.0"/>
      <point x="692.0" y="530.0"/>
      <point x="756.0" y="649.0" type="curve"/>
      <point x="743.0" y="754.0" type="line"/>
      <point x="692.0" y="641.0"/>
      <point x="594.0" y="555.0"/>
      <point x="481.0" y="555.0" type="curve" smooth="yes"/>
      <point x="383.0" y="555.0"/>
      <point x="250.0" y="610.0"/>
      <point x="250.0" y="856.0" type="curve" smooth="yes"/>
      <point x="250.0" y="1014.0"/>
      <point x="328.0" y="1130.0"/>
      <point x="465.0" y="1130.0" type="curve" smooth="yes"/>
      <point x="575.0" y="1130.0"/>
      <point x="710.0" y="1024.0"/>
      <point x="710.0" y="670.0" type="curve" smooth="yes"/>
      <point x="710.0" y="354.0"/>
      <point x="567.0" y="115.0"/>
      <point x="172.0" y="16.0" type="curve"/>
      <point x="190.0" y="-43.0" type="line"/>
      <point x="655.0" y="25.0"/>
    </contour>
  </outline>
</glyph>
<glyph name="LTSgn" format="2">
  <advance width="899.0"/>
  <unicode hex="003C"/>
  <outline>
    <contour>
      <point x="831.0" y="846.0"/>
      <point x="838.0" y="874.0" type="curve"/>
      <point x="813.0" y="899.0" type="line"/>
      <point x="92.0" y="629.0" type="line"/>
      <point x="80.0" y="602.0"/>
      <point x="68.0" y="557.0"/>
      <point x="61.0" y="530.0" type="curve"/>
      <point x="86.0" y="506.0" type="line"/>
      <point x="809.0" y="774.0" type="line"/>
      <point x="817.0" y="799.0"/>
    </contour>
    <contour>
      <point x="809.0" y="295.0"/>
      <point x="838.0" y="322.0" type="curve"/>
      <point x="821.0" y="358.0" type="line"/>
      <point x="92.0" y="629.0" type="line"/>
      <point x="80.0" y="602.0"/>
      <point x="68.0" y="557.0"/>
      <point x="61.0" y="530.0" type="curve"/>
      <point x="86.0" y="506.0" type="line"/>
      <point x="754.0" y="256.0" type="line"/>
      <point x="795.0" y="281.0"/>
    </contour>
  </outline>
</glyph>
<glyph name="EqSgn" format="2">
  <advance width="899.0"/>
  <unicode hex="003D"/>
  <outline>
    <contour>
      <point x="831.0" y="714.0"/>
      <point x="838.0" y="740.0" type="curve"/>
      <point x="813.0" y="765.0" type="line"/>
      <point x="92.0" y="765.0" type="line"/>
      <point x="80.0" y="740.0"/>
      <point x="68.0" y="707.0"/>
      <point x="61.0" y="680.0" type="curve"/>
      <point x="86.0" y="655.0" type="line"/>
      <point x="809.0" y="655.0" type="line"/>
      <point x="817.0" y="678.0"/>
    </contour>
    <contour>
      <point x="831.0" y="412.0"/>
      <point x="838.0" y="440.0" type="curve"/>
      <point x="813.0" y="465.0" type="line"/>
      <point x="92.0" y="465.0" type="line"/>
      <point x="80.0" y="438.0"/>
      <point x="68.0" y="409.0"/>
      <point x="61.0" y="382.0" type="curve"/>
      <point x="86.0" y="355.0" type="line"/>
      <point x="809.0" y="355.0" type="line"/>
      <point x="817.0" y="380.0"/>
    </contour>
  </outline>
</glyph>
<glyph name="GTSgn" format="2">
  <advance width="899.0"/>
  <unicode hex="003E"/>
  <outline>
    <contour>
      <point x="838.0" y="625.0" type="curve"/>
      <point x="815.0" y="649.0" type="line"/>
      <point x="145.0" y="899.0" type="line"/>
      <point x="121.0" y="879.0"/>
      <point x="92.0" y="858.0"/>
      <point x="61.0" y="834.0" type="curve"/>
      <point x="78.0" y="795.0" type="line"/>
      <point x="643.0" y="585.0" type="line"/>
      <point x="92.0" y="379.0" type="line"/>
      <point x="82.0" y="356.0"/>
      <point x="70.0" y="307.0"/>
      <point x="61.0" y="281.0" type="curve"/>
      <point x="86.0" y="256.0" type="line"/>
      <point x="807.0" y="524.0" type="line"/>
      <point x="819.0" y="554.0"/>
      <point x="832.0" y="600.0"/>
    </contour>
  </outline>
</glyph>
<glyph name="QstnMrk" format="2">
  <advance width="887.0"/>
  <unicode hex="003F"/>
  <outline>
    <contour>
      <point x="806.0" y="864.0"/>
      <point x="806.0" y="1165.0" type="curve"/>
      <point x="806.0" y="1352.0"/>
      <point x="698.0" y="1480.0"/>
      <point x="502.0" y="1480.0" type="curve" smooth="yes"/>
      <point x="279.0" y="1480.0"/>
      <point x="80.0" y="1341.0"/>
      <point x="80.0" y="1153.0" type="curve" smooth="yes"/>
      <point x="80.0" y="1143.0"/>
      <point x="80.0" y="1130.0"/>
      <point x="82.0" y="1120.0" type="curve"/>
      <point x="109.0" y="1090.0" type="line"/>
      <point x="168.0" y="1096.0"/>
      <point x="213.0" y="1106.0"/>
      <point x="256.0" y="1128.0" type="curve"/>
      <point x="250.0" y="1147.0"/>
      <point x="244.0" y="1167.0"/>
      <point x="244.0" y="1186.0" type="curve" smooth="yes"/>
      <point x="244.0" y="1290.0"/>
      <point x="328.0" y="1384.0"/>
      <point x="424.0" y="1384.0" type="curve" smooth="yes"/>
      <point x="563.0" y="1384.0"/>
      <point x="642.0" y="1284.0"/>
      <point x="642.0" y="1120.0" type="curve" smooth="yes"/>
      <point x="642.0" y="930.0"/>
      <point x="342.0" y="715.0"/>
      <point x="354.0" y="485.0" type="curve"/>
      <point x="362.0" y="369.0" type="line"/>
      <point x="387.0" y="348.0" type="line"/>
      <point x="424.0" y="358.0"/>
      <point x="438.0" y="371.0"/>
      <point x="463.0" y="389.0" type="curve"/>
      <point x="469.0" y="485.0" type="line" smooth="yes"/>
      <point x="489.0" y="768.0"/>
    </contour>
    <contour>
      <point x="539.0" y="31.0"/>
      <point x="539.0" y="123.0" type="curve"/>
      <point x="539.0" y="195.0"/>
      <point x="506.0" y="236.0"/>
      <point x="440.0" y="236.0" type="curve" smooth="yes"/>
      <point x="365.0" y="236.0"/>
      <point x="301.0" y="162.0"/>
      <point x="301.0" y="72.0" type="curve" smooth="yes"/>
      <point x="301.0" y="0.0"/>
      <point x="330.0" y="-40.0"/>
      <point x="401.0" y="-40.0" type="curve" smooth="yes"/>
      <point x="479.0" y="-40.0"/>
    </contour>
  </outline>
</glyph>
<glyph name="AtSgn" format="2">
  <advance width="1653.0"/>
  <unicode hex="0040"/>
  <outline>
    <contour>
      <point x="1583.0" y="203.0"/>
      <point x="1583.0" y="549.0" type="curve"/>
      <point x="1583.0" y="1061.0"/>
      <point x="1321.0" y="1333.0"/>
      <point x="924.0" y="1333.0" type="curve" smooth="yes"/>
      <point x="455.0" y="1333.0"/>
      <point x="70.0" y="918.0"/>
      <point x="70.0" y="465.0" type="curve" smooth="yes"/>
      <point x="70.0" y="-47.0"/>
      <point x="395.0" y="-375.0"/>
      <point x="854.0" y="-375.0" type="curve" smooth="yes"/>
      <point x="1141.0" y="-375.0"/>
      <point x="1354.0" y="-238.0"/>
      <point x="1450.0" y="-137.0" type="curve"/>
      <point x="1423.0" y="-82.0" type="line"/>
      <point x="1343.0" y="-150.0"/>
      <point x="1128.0" y="-255.0"/>
      <point x="903.0" y="-255.0" type="curve" smooth="yes"/>
      <point x="541.0" y="-255.0"/>
      <point x="220.0" y="41.0"/>
      <point x="220.0" y="524.0" type="curve" smooth="yes"/>
      <point x="220.0" y="885.0"/>
      <point x="477.0" y="1213.0"/>
      <point x="885.0" y="1213.0" type="curve" smooth="yes"/>
      <point x="1223.0" y="1213.0"/>
      <point x="1463.0" y="961.0"/>
      <point x="1463.0" y="512.0" type="curve" smooth="yes"/>
      <point x="1463.0" y="287.0"/>
      <point x="1339.0" y="109.0"/>
      <point x="1272.0" y="109.0" type="curve" smooth="yes"/>
      <point x="1208.0" y="109.0"/>
      <point x="1164.0" y="166.0"/>
      <point x="1164.0" y="285.0" type="curve" smooth="yes"/>
      <point x="1164.0" y="723.0" type="line" smooth="yes"/>
      <point x="1164.0" y="834.0"/>
      <point x="1194.0" y="930.0"/>
      <point x="1194.0" y="930.0" type="curve"/>
      <point x="1163.0" y="960.0" type="line"/>
      <point x="1126.0" y="919.0"/>
      <point x="1090.0" y="889.0"/>
      <point x="1055.0" y="868.0" type="curve"/>
      <point x="985.0" y="946.0"/>
      <point x="950.0" y="960.0"/>
      <point x="889.0" y="960.0" type="curve" smooth="yes"/>
      <point x="629.0" y="960.0"/>
      <point x="460.0" y="674.0"/>
      <point x="460.0" y="444.0" type="curve" smooth="yes"/>
      <point x="460.0" y="147.0"/>
      <point x="618.0" y="-30.0"/>
      <point x="754.0" y="-30.0" type="curve" smooth="yes"/>
      <point x="860.0" y="-30.0"/>
      <point x="911.0" y="10.0"/>
      <point x="1020.0" y="162.0" type="curve"/>
      <point x="1038.0" y="23.0"/>
      <point x="1092.0" y="-30.0"/>
      <point x="1157.0" y="-30.0" type="curve" smooth="yes"/>
      <point x="1327.0" y="-30.0"/>
    </contour>
    <contour>
      <point x="1014.0" y="731.0" type="curve"/>
      <point x="1014.0" y="250.0" type="line"/>
      <point x="913.0" y="131.0"/>
      <point x="877.0" y="100.0"/>
      <point x="825.0" y="100.0" type="curve" smooth="yes"/>
      <point x="731.0" y="100.0"/>
      <point x="610.0" y="248.0"/>
      <point x="610.0" y="475.0" type="curve" smooth="yes"/>
      <point x="610.0" y="725.0"/>
      <point x="711.0" y="850.0"/>
      <point x="858.0" y="850.0" type="curve" smooth="yes"/>
      <point x="938.0" y="850.0"/>
      <point x="977.0" y="805.0"/>
    </contour>
  </outline>
</glyph>
<glyph name="LtnCapA" format="2">
  <advance width="1219"/>
  <unicode hex="0041"/>
  <anchor x="599" y="0" name="H"/>
  <anchor x="599" y="-100" name="L"/>
  <anchor x="960" y="0" name="O"/>
  <anchor x="599" y="1370" name="U"/>
  <outline>
    <contour>
      <point x="381" y="445" type="line"/>
      <point x="789" y="445" type="line"/>
      <point x="903" y="111" type="line" smooth="yes"/>
      <point x="918" y="67"/>
      <point x="879" y="49"/>
      <point x="776" y="43" type="curve"/>
      <point x="776" y="0" type="line"/>
      <point x="1198" y="0" type="line"/>
      <point x="1198" y="43" type="line"/>
      <point x="1112" y="53"/>
      <point x="1080" y="74"/>
      <point x="1067" y="111" type="curve" smooth="yes"/>
      <point x="647" y="1317" type="line"/>
      <point x="612" y="1298"/>
      <point x="561" y="1270"/>
      <point x="530" y="1237" type="curve"/>
      <point x="158" y="111" type="line" smooth="yes"/>
      <point x="145" y="71"/>
      <point x="90" y="59"/>
      <point x="0" y="43" type="curve"/>
      <point x="0" y="0" type="line"/>
      <point x="416" y="0" type="line"/>
      <point x="416" y="43" type="line"/>
      <point x="307" y="55"/>
      <point x="257" y="70"/>
      <point x="270" y="111" type="curve" smooth="yes"/>
    </contour>
    <contour>
      <point x="758" y="535" type="line"/>
      <point x="411" y="535" type="line"/>
      <point x="582" y="1049" type="line"/>
    </contour>
  </outline>
</glyph>
<glyph name="LtnCapC" format="2">
  <advance width="1098.0"/>
  <unicode hex="0043"/>
  <anchor x="584.0" y="0.0" name="H"/>
  <anchor x="614.0" y="-100.0" name="L"/>
  <anchor x="614.0" y="1370.0" name="U"/>
  <outline>
    <contour>
      <point x="848.0" y="29.0"/>
      <point x="1018.0" y="211.0" type="curve"/>
      <point x="1010.0" y="219.0"/>
      <point x="995.0" y="250.0"/>
      <point x="981.0" y="256.0" type="curve"/>
      <point x="834.0" y="133.0"/>
      <point x="715.0" y="90.0"/>
      <point x="643.0" y="90.0" type="curve" smooth="yes"/>
      <point x="453.0" y="90.0"/>
      <point x="225.0" y="268.0"/>
      <point x="225.0" y="623.0" type="curve" smooth="yes"/>
      <point x="225.0" y="1038.0"/>
      <point x="455.0" y="1180.0"/>
      <point x="592.0" y="1180.0" type="curve" smooth="yes"/>
      <point x="713.0" y="1180.0"/>
      <point x="807.0" y="1135.0"/>
      <point x="874.0" y="1073.0" type="curve"/>
      <point x="909.0" y="1067.0" type="line"/>
      <point x="940.0" y="1098.0"/>
      <point x="1014.0" y="1178.0"/>
      <point x="999.0" y="1190.0" type="curve" smooth="yes"/>
      <point x="930.0" y="1245.0"/>
      <point x="819.0" y="1290.0"/>
      <point x="676.0" y="1290.0" type="curve" smooth="yes"/>
      <point x="348.0" y="1290.0"/>
      <point x="70.0" y="1012.0"/>
      <point x="70.0" y="586.0" type="curve" smooth="yes"/>
      <point x="70.0" y="199.0"/>
      <point x="324.0" y="-30.0"/>
      <point x="571.0" y="-30.0" type="curve" smooth="yes"/>
      <point x="709.0" y="-30.0"/>
    </contour>
  </outline>
</glyph>
<glyph name="LtnCapD" format="2">
  <advance width="1214"/>
  <unicode hex="0044"/>
  <anchor x="550" y="-100" name="L"/>
  <anchor x="550" y="1370" name="U"/>
  <outline>
    <contour>
      <point x="1123" y="176"/>
      <point x="1123" y="676" type="curve"/>
      <point x="1123" y="1063"/>
      <point x="889" y="1290"/>
      <point x="518" y="1290" type="curve" smooth="yes"/>
      <point x="360" y="1290"/>
      <point x="158" y="1263"/>
      <point x="41" y="1230" type="curve"/>
      <point x="50" y="1168" type="line"/>
      <point x="161" y="1185"/>
      <point x="303" y="1206"/>
      <point x="453" y="1206" type="curve" smooth="yes"/>
      <point x="774" y="1206"/>
      <point x="953" y="991"/>
      <point x="953" y="637" type="curve" smooth="yes"/>
      <point x="953" y="262"/>
      <point x="721" y="84"/>
      <point x="537" y="84" type="curve" smooth="yes"/>
      <point x="395" y="84"/>
      <point x="355" y="104"/>
      <point x="355" y="150" type="curve"/>
      <point x="82" y="0" type="line"/>
      <point x="297" y="0"/>
      <point x="360" y="0"/>
      <point x="559" y="0" type="curve" smooth="yes"/>
      <point x="795" y="0"/>
    </contour>
    <contour>
      <point x="50" y="0" type="line"/>
      <point x="500" y="0" type="line"/>
      <point x="500" y="61" type="line"/>
      <point x="403" y="80"/>
      <point x="355" y="102"/>
      <point x="355" y="154" type="curve" smooth="yes"/>
      <point x="355" y="1239" type="line"/>
      <point x="195" y="1239" type="line"/>
      <point x="195" y="104" type="line" smooth="yes"/>
      <point x="195" y="86"/>
      <point x="140" y="61"/>
      <point x="50" y="43" type="curve"/>
    </contour>
  </outline>
</glyph>
<glyph name="LtnCapF" format="2">
  <advance width="979.0"/>
  <unicode hex="0046"/>
  <anchor x="473.0" y="-100.0" name="L"/>
  <anchor x="473.0" y="1370.0" name="U"/>
  <outline>
    <contour>
      <point x="895.0" y="1167.0"/>
      <point x="897.0" y="1235.0" type="curve"/>
      <point x="866.0" y="1260.0" type="line"/>
      <point x="332.0" y="1260.0" type="line"/>
      <point x="303.0" y="1170.0" type="line"/>
      <point x="729.0" y="1170.0" type="line" smooth="yes"/>
      <point x="780.0" y="1170.0"/>
      <point x="807.0" y="1133.0"/>
      <point x="811.0" y="1010.0" type="curve"/>
      <point x="858.0" y="1010.0" type="line"/>
      <point x="874.0" y="1061.0"/>
    </contour>
    <contour>
      <point x="733.0" y="670.0"/>
      <point x="758.0" y="707.0" type="curve"/>
      <point x="729.0" y="735.0" type="line"/>
      <point x="283.0" y="735.0" type="line"/>
      <point x="258.0" y="651.0" type="line"/>
      <point x="467.0" y="651.0" type="line" smooth="yes"/>
      <point x="578.0" y="651.0"/>
      <point x="625.0" y="635.0"/>
      <point x="664.0" y="596.0" type="curve"/>
      <point x="692.0" y="617.0"/>
    </contour>
    <contour>
      <point x="50.0" y="0.0" type="line"/>
      <point x="530.0" y="0.0" type="line"/>
      <point x="530.0" y="43.0" type="line"/>
      <point x="399.0" y="68.0"/>
      <point x="355.0" y="88.0"/>
      <point x="355.0" y="104.0" type="curve" smooth="yes"/>
      <point x="355.0" y="1177.0" type="line" smooth="yes"/>
      <point x="355.0" y="1195.0"/>
      <point x="410.0" y="1198.0"/>
      <point x="500.0" y="1217.0" type="curve"/>
      <point x="500.0" y="1260.0" type="line"/>
      <point x="50.0" y="1260.0" type="line"/>
      <point x="50.0" y="1217.0" type="line"/>
      <point x="146.0" y="1198.0"/>
      <point x="195.0" y="1171.0"/>
      <point x="195.0" y="1155.0" type="curve" smooth="yes"/>
      <point x="195.0" y="104.0" type="line" smooth="yes"/>
      <point x="195.0" y="86.0"/>
      <point x="140.0" y="61.0"/>
      <point x="50.0" y="43.0" type="curve"/>
    </contour>
  </outline>
</glyph>
<glyph name="LtnCapG" format="2">
  <advance width="1194.0"/>
  <unicode hex="0047"/>
  <anchor x="620.0" y="0.0" name="H"/>
  <anchor x="640.0" y="-100.0" name="L"/>
  <anchor x="640.0" y="1370.0" name="U"/>
  <outline>
    <contour>
      <point x="1069.0" y="549.0"/>
      <point x="1145.0" y="567.0" type="curve"/>
      <point x="1145.0" y="610.0" type="line"/>
      <point x="684.0" y="610.0" type="line"/>
      <point x="684.0" y="567.0" type="line"/>
      <point x="846.0" y="541.0"/>
      <point x="890.0" y="514.0"/>
      <point x="890.0" y="485.0" type="curve" smooth="yes"/>
      <point x="890.0" y="98.0" type="line" smooth="yes"/>
      <point x="890.0" y="80.0"/>
      <point x="1040.0" y="154.0"/>
      <point x="1040.0" y="154.0" type="curve"/>
      <point x="1040.0" y="485.0" type="line" smooth="yes"/>
      <point x="1040.0" y="516.0"/>
    </contour>
    <contour>
      <point x="1061.0" y="1174.0"/>
      <point x="1042.0" y="1188.0" type="curve"/>
      <point x="956.0" y="1253.0"/>
      <point x="825.0" y="1290.0"/>
      <point x="737.0" y="1290.0" type="curve" smooth="yes"/>
      <point x="371.0" y="1290.0"/>
      <point x="70.0" y="1026.0"/>
      <point x="70.0" y="582.0" type="curve" smooth="yes"/>
      <point x="70.0" y="170.0"/>
      <point x="350.0" y="-30.0"/>
      <point x="618.0" y="-30.0" type="curve" smooth="yes"/>
      <point x="739.0" y="-30.0"/>
      <point x="842.0" y="-8.0"/>
      <point x="1040.0" y="154.0" type="curve"/>
      <point x="1032.0" y="164.0"/>
      <point x="973.0" y="186.0"/>
      <point x="956.0" y="195.0" type="curve"/>
      <point x="887.0" y="129.0"/>
      <point x="780.0" y="90.0"/>
      <point x="645.0" y="90.0" type="curve" smooth="yes"/>
      <point x="442.0" y="90.0"/>
      <point x="225.0" y="266.0"/>
      <point x="225.0" y="637.0" type="curve" smooth="yes"/>
      <point x="225.0" y="1053.0"/>
      <point x="498.0" y="1180.0"/>
      <point x="598.0" y="1180.0" type="curve" smooth="yes"/>
      <point x="729.0" y="1180.0"/>
      <point x="825.0" y="1161.0"/>
      <point x="913.0" y="1077.0" type="curve"/>
      <point x="946.0" y="1071.0" type="line"/>
      <point x="981.0" y="1102.0"/>
    </contour>
  </outline>
</glyph>
<glyph name="LtnCapI" format="2">
  <advance width="610"/>
  <unicode hex="0049"/>
  <anchor x="295" y="0" name="H"/>
  <anchor x="295" y="-100" name="L"/>
  <anchor x="345" y="0" name="O"/>
  <anchor x="580" y="1100" name="R"/>
  <anchor x="295" y="1370" name="U"/>
  <outline>
    <contour>
      <point x="70" y="0" type="line"/>
      <point x="520" y="0" type="line"/>
      <point x="520" y="43" type="line"/>
      <point x="424" y="61"/>
      <point x="375" y="88"/>
      <point x="375" y="104" type="curve" smooth="yes"/>
      <point x="375" y="1155" type="line" smooth="yes"/>
      <point x="375" y="1174"/>
      <point x="430" y="1198"/>
      <point x="520" y="1217" type="curve"/>
      <point x="520" y="1260" type="line"/>
      <point x="70" y="1260" type="line"/>
      <point x="70" y="1217" type="line"/>
      <point x="166" y="1198"/>
      <point x="215" y="1171"/>
      <point x="215" y="1155" type="curve" smooth="yes"/>
      <point x="215" y="104" type="line" smooth="yes"/>
      <point x="215" y="86"/>
      <point x="160" y="61"/>
      <point x="70" y="43" type="curve"/>
    </contour>
  </outline>
</glyph>
<glyph name="LtnCapJ" format="2">
  <advance width="625"/>
  <unicode hex="004A"/>
  <anchor x="330" y="-600" name="L"/>
  <anchor x="330" y="1370" name="U"/>
  <outline>
    <contour>
      <point x="555" y="1217" type="curve"/>
      <point x="555" y="1260" type="line"/>
      <point x="55" y="1260" type="line"/>
      <point x="55" y="1217" type="line"/>
      <point x="215" y="1194"/>
      <point x="250" y="1171"/>
      <point x="250" y="1155" type="curve" smooth="yes"/>
      <point x="250" y="133" type="line" smooth="yes"/>
      <point x="250" y="-180"/>
      <point x="154" y="-257"/>
      <point x="84" y="-257" type="curve" smooth="yes"/>
      <point x="33" y="-257"/>
      <point x="0" y="-249"/>
      <point x="-74" y="-200" type="curve"/>
      <point x="-111" y="-214"/>
      <point x="-190" y="-278"/>
      <point x="-190" y="-300" type="curve" smooth="yes"/>
      <point x="-190" y="-323"/>
      <point x="-106" y="-380"/>
      <point x="-25" y="-380" type="curve" smooth="yes"/>
      <point x="27" y="-380"/>
      <point x="140" y="-346"/>
      <point x="211" y="-288" type="curve" smooth="yes"/>
      <point x="316" y="-203"/>
      <point x="410" y="-111"/>
      <point x="410" y="205" type="curve" smooth="yes"/>
      <point x="410" y="1155" type="line" smooth="yes"/>
      <point x="410" y="1174"/>
      <point x="465" y="1198"/>
    </contour>
  </outline>
</glyph>
<glyph name="LtnCapL" format="2">
  <advance width="975.0"/>
  <unicode hex="004C"/>
  <anchor x="497.0" y="0.0" name="H"/>
  <anchor x="497.0" y="-100.0" name="L"/>
  <anchor x="750.0" y="900.0" name="R"/>
  <anchor x="467.0" y="1370.0" name="U"/>
  <outline>
    <contour>
      <point x="934.0" y="129.0"/>
      <point x="944.0" y="244.0" type="curve"/>
      <point x="901.0" y="262.0" type="line"/>
      <point x="844.0" y="106.0"/>
      <point x="807.0" y="90.0"/>
      <point x="684.0" y="90.0" type="curve" smooth="yes"/>
      <point x="541.0" y="90.0" type="line" smooth="yes"/>
      <point x="395.0" y="90.0"/>
      <point x="355.0" y="117.0"/>
      <point x="355.0" y="164.0" type="curve" smooth="yes"/>
      <point x="355.0" y="1155.0" type="line" smooth="yes"/>
      <point x="355.0" y="1174.0"/>
      <point x="410.0" y="1198.0"/>
      <point x="500.0" y="1217.0" type="curve"/>
      <point x="500.0" y="1260.0" type="line"/>
      <point x="50.0" y="1260.0" type="line"/>
      <point x="50.0" y="1217.0" type="line"/>
      <point x="146.0" y="1198.0"/>
      <point x="195.0" y="1171.0"/>
      <point x="195.0" y="1155.0" type="curve" smooth="yes"/>
      <point x="195.0" y="104.0" type="line" smooth="yes"/>
      <point x="195.0" y="86.0"/>
      <point x="140.0" y="61.0"/>
      <point x="50.0" y="43.0" type="curve"/>
      <point x="50.0" y="0.0" type="line"/>
      <point x="903.0" y="0.0" type="line"/>
      <point x="913.0" y="39.0"/>
    </contour>
  </outline>
</glyph>
<glyph name="LtnCapM" format="2">
  <advance width="1651.0"/>
  <unicode hex="004D"/>
  <anchor x="1350.0" y="0.0" name="H"/>
  <anchor x="815.0" y="-100.0" name="L"/>
  <anchor x="815.0" y="1370.0" name="U"/>
  <outline>
    <contour>
      <point x="1115.0" y="0.0" type="line"/>
      <point x="1570.0" y="0.0" type="line"/>
      <point x="1570.0" y="43.0" type="line"/>
      <point x="1474.0" y="61.0"/>
      <point x="1425.0" y="88.0"/>
      <point x="1425.0" y="104.0" type="curve" smooth="yes"/>
      <point x="1415.0" y="1214.0" type="line"/>
      <point x="1260.0" y="1157.0" type="line"/>
      <point x="1270.0" y="104.0" type="line" smooth="yes"/>
      <point x="1270.0" y="86.0"/>
      <point x="1205.0" y="61.0"/>
      <point x="1115.0" y="43.0" type="curve"/>
    </contour>
    <contour>
      <point x="1460.0" y="1217.0"/>
      <point x="1550.0" y="1217.0" type="curve"/>
      <point x="1550.0" y="1260.0" type="line"/>
      <point x="1264.0" y="1260.0" type="line" smooth="yes"/>
      <point x="1239.0" y="1260.0"/>
      <point x="1234.0" y="1256.0"/>
      <point x="1200.0" y="1176.0" type="curve" smooth="yes"/>
      <point x="813.0" y="262.0" type="line" smooth="yes"/>
      <point x="795.0" y="219.0"/>
      <point x="788.0" y="168.0"/>
      <point x="819.0" y="0.0" type="curve"/>
      <point x="823.0" y="0.0" type="line"/>
      <point x="1273.0" y="1068.0" type="line" smooth="yes"/>
      <point x="1302.0" y="1137.0"/>
    </contour>
    <contour>
      <point x="842.0" y="223.0"/>
      <point x="823.0" y="264.0" type="curve"/>
      <point x="420.0" y="1176.0" type="line" smooth="yes"/>
      <point x="388.0" y="1248.0"/>
      <point x="383.0" y="1260.0"/>
      <point x="356.0" y="1260.0" type="curve" smooth="yes"/>
      <point x="70.0" y="1260.0" type="line"/>
      <point x="70.0" y="1217.0" type="line"/>
      <point x="143.0" y="1217.0"/>
      <point x="265.0" y="1182.0"/>
      <point x="317.0" y="1061.0" type="curve" smooth="yes"/>
      <point x="774.0" y="0.0" type="line"/>
      <point x="819.0" y="0.0" type="line"/>
      <point x="852.0" y="168.0"/>
    </contour>
    <contour>
      <point x="60.0" y="0.0" type="line"/>
      <point x="465.0" y="0.0" type="line"/>
      <point x="465.0" y="43.0" type="line"/>
      <point x="369.0" y="61.0"/>
      <point x="320.0" y="88.0"/>
      <point x="320.0" y="104.0" type="curve" smooth="yes"/>
      <point x="331.0" y="1221.0" type="line"/>
      <point x="215.0" y="1196.0" type="line"/>
      <point x="205.0" y="104.0" type="line" smooth="yes"/>
      <point x="205.0" y="86.0"/>
      <point x="151.0" y="61.0"/>
      <point x="60.0" y="43.0" type="curve"/>
    </contour>
  </outline>
</glyph>
<glyph name="LtnCapN" format="2">
  <advance width="1329.0"/>
  <unicode hex="004E"/>
  <anchor x="1047.0" y="0.0" name="H"/>
  <anchor x="665.0" y="-100.0" name="L"/>
  <anchor x="665.0" y="1370.0" name="U"/>
  <outline>
    <contour>
      <point x="1184.0" y="1204.0"/>
      <point x="1280.0" y="1217.0" type="curve"/>
      <point x="1280.0" y="1260.0" type="line"/>
      <point x="870.0" y="1260.0" type="line"/>
      <point x="870.0" y="1217.0" type="line"/>
      <point x="977.0" y="1202.0"/>
      <point x="1015.0" y="1171.0"/>
      <point x="1015.0" y="1155.0" type="curve" smooth="yes"/>
      <point x="1015.0" y="71.0" type="line"/>
      <point x="1135.0" y="32.0" type="line"/>
      <point x="1135.0" y="1155.0" type="line" smooth="yes"/>
      <point x="1135.0" y="1174.0"/>
    </contour>
    <contour>
      <point x="1069.0" y="-22.0"/>
      <point x="1135.0" y="-30.0" type="curve"/>
      <point x="1135.0" y="120.0" type="line"/>
      <point x="1135.0" y="120.0"/>
      <point x="1045.0" y="234.0"/>
      <point x="1017.0" y="273.0" type="curve" smooth="yes"/>
      <point x="358.0" y="1182.0" type="line" smooth="yes"/>
      <point x="308.0" y="1251.0"/>
      <point x="301.0" y="1260.0"/>
      <point x="262.0" y="1260.0" type="curve" smooth="yes"/>
      <point x="50.0" y="1260.0" type="line"/>
      <point x="50.0" y="1217.0" type="line"/>
      <point x="120.0" y="1206.0"/>
      <point x="183.0" y="1177.0"/>
      <point x="238.0" y="1100.0" type="curve" smooth="yes"/>
      <point x="1016.0" y="21.0" type="line" smooth="yes"/>
      <point x="1032.0" y="-1.0"/>
    </contour>
    <contour>
      <point x="50.0" y="0.0" type="line"/>
      <point x="460.0" y="0.0" type="line"/>
      <point x="460.0" y="43.0" type="line"/>
      <point x="357.0" y="57.0"/>
      <point x="315.0" y="88.0"/>
      <point x="315.0" y="104.0" type="curve" smooth="yes"/>
      <point x="315.0" y="1221.0" type="line"/>
      <point x="195.0" y="1196.0" type="line"/>
      <point x="195.0" y="104.0" type="line" smooth="yes"/>
      <point x="195.0" y="86.0"/>
      <point x="148.0" y="55.0"/>
      <point x="50.0" y="43.0" type="curve"/>
    </contour>
  </outline>
</glyph>
<glyph name="LtnCapO" format="2">
  <advance width="1229.0"/>
  <unicode hex="004F"/>
  <anchor x="587.0" y="0.0" name="H"/>
  <anchor x="617.0" y="-100.0" name="L"/>
  <anchor x="678.0" y="0.0" name="O"/>
  <anchor x="1258.0" y="1100.0" name="R"/>
  <anchor x="617.0" y="1370.0" name="U"/>
  <outline>
    <contour>
      <point x="1140.0" y="285.0"/>
      <point x="1140.0" y="647.0" type="curve"/>
      <point x="1140.0" y="973.0"/>
      <point x="965.0" y="1290.0"/>
      <point x="635.0" y="1290.0" type="curve" smooth="yes"/>
      <point x="321.0" y="1290.0"/>
      <point x="72.0" y="975.0"/>
      <point x="72.0" y="612.0" type="curve" smooth="yes"/>
      <point x="72.0" y="276.0"/>
      <point x="256.0" y="-30.0"/>
      <point x="577.0" y="-30.0" type="curve" smooth="yes"/>
      <point x="881.0" y="-30.0"/>
    </contour>
    <contour>
      <point x="985.0" y="905.0"/>
      <point x="985.0" y="629.0" type="curve"/>
      <point x="985.0" y="276.0"/>
      <point x="827.0" y="90.0"/>
      <point x="606.0" y="90.0" type="curve" smooth="yes"/>
      <point x="401.0" y="90.0"/>
      <point x="227.0" y="342.0"/>
      <point x="227.0" y="641.0" type="curve" smooth="yes"/>
      <point x="227.0" y="967.0"/>
      <point x="369.0" y="1175.0"/>
      <point x="606.0" y="1175.0" type="curve" smooth="yes"/>
      <point x="833.0" y="1175.0"/>
    </contour>
  </outline>
</glyph>
<glyph name="LtnCapP" format="2">
  <advance width="1071.0"/>
  <unicode hex="0050"/>
  <anchor x="511.0" y="-100.0" name="L"/>
  <anchor x="511.0" y="1370.0" name="U"/>
  <outline>
    <contour>
      <point x="982.0" y="659.0"/>
      <point x="982.0" y="936.0" type="curve"/>
      <point x="982.0" y="1165.0"/>
      <point x="797.0" y="1290.0"/>
      <point x="510.0" y="1290.0" type="curve" smooth="yes"/>
      <point x="348.0" y="1290.0"/>
      <point x="170.0" y="1265.0"/>
      <point x="41.0" y="1230.0" type="curve"/>
      <point x="50.0" y="1168.0" type="line"/>
      <point x="179.0" y="1191.0"/>
      <point x="313.0" y="1206.0"/>
      <point x="453.0" y="1206.0" type="curve" smooth="yes"/>
      <point x="659.0" y="1206.0"/>
      <point x="827.0" y="1114.0"/>
      <point x="827.0" y="895.0" type="curve" smooth="yes"/>
      <point x="827.0" y="707.0"/>
      <point x="666.0" y="610.0"/>
      <point x="543.0" y="610.0" type="curve" smooth="yes"/>
      <point x="496.0" y="610.0"/>
      <point x="444.0" y="615.0"/>
      <point x="389.0" y="640.0" type="curve"/>
      <point x="412.0" y="565.0" type="line"/>
      <point x="457.0" y="545.0"/>
      <point x="512.0" y="535.0"/>
      <point x="573.0" y="535.0" type="curve" smooth="yes"/>
      <point x="729.0" y="535.0"/>
    </contour>
    <contour>
      <point x="50.0" y="0.0" type="line"/>
      <point x="530.0" y="0.0" type="line"/>
      <point x="530.0" y="43.0" type="line"/>
      <point x="391.0" y="66.0"/>
      <point x="355.0" y="88.0"/>
      <point x="355.0" y="104.0" type="curve" smooth="yes"/>
      <point x="355.0" y="1210.0" type="line"/>
      <point x="195.0" y="1210.0" type="line"/>
      <point x="195.0" y="104.0" type="line" smooth="yes"/>
      <point x="195.0" y="86.0"/>
      <point x="140.0" y="61.0"/>
      <point x="50.0" y="43.0" type="curve"/>
    </contour>
  </outline>
</glyph>
<glyph name="LtnCapQ" format="2">
  <advance width="1229.0"/>
  <unicode hex="0051"/>
  <anchor x="604.0" y="-260.0" name="L"/>
  <anchor x="604.0" y="1370.0" name="U"/>
  <outline>
    <contour>
      <point x="1138.0" y="285.0"/>
      <point x="1138.0" y="647.0" type="curve"/>
      <point x="1138.0" y="973.0"/>
      <point x="963.0" y="1290.0"/>
      <point x="633.0" y="1290.0" type="curve" smooth="yes"/>
      <point x="319.0" y="1290.0"/>
      <point x="70.0" y="975.0"/>
      <point x="70.0" y="612.0" type="curve" smooth="yes"/>
      <point x="70.0" y="260.0"/>
      <point x="281.0" y="-30.0"/>
      <point x="575.0" y="-30.0" type="curve" smooth="yes"/>
      <point x="879.0" y="-30.0"/>
    </contour>
    <contour>
      <point x="1219.0" y="-233.0"/>
      <point x="1282.0" y="-117.0" type="curve"/>
      <point x="1255.0" y="-82.0" type="line"/>
      <point x="1176.0" y="-141.0"/>
      <point x="1141.0" y="-160.0"/>
      <point x="1108.0" y="-160.0" type="curve" smooth="yes"/>
      <point x="985.0" y="-160.0"/>
      <point x="827.0" y="8.0"/>
      <point x="674.0" y="49.0" type="curve" smooth="yes"/>
      <point x="639.0" y="59.0"/>
      <point x="500.0" y="20.0"/>
      <point x="500.0" y="20.0" type="curve"/>
      <point x="702.0" y="-16.0"/>
      <point x="895.0" y="-305.0"/>
      <point x="1102.0" y="-305.0" type="curve" smooth="yes"/>
      <point x="1143.0" y="-305.0"/>
    </contour>
    <contour>
      <point x="983.0" y="905.0"/>
      <point x="983.0" y="629.0" type="curve"/>
      <point x="983.0" y="276.0"/>
      <point x="825.0" y="90.0"/>
      <point x="604.0" y="90.0" type="curve" smooth="yes"/>
      <point x="399.0" y="90.0"/>
      <point x="225.0" y="342.0"/>
      <point x="225.0" y="641.0" type="curve" smooth="yes"/>
      <point x="225.0" y="967.0"/>
      <point x="367.0" y="1175.0"/>
      <point x="604.0" y="1175.0" type="curve" smooth="yes"/>
      <point x="831.0" y="1175.0"/>
    </contour>
  </outline>
</glyph>
<glyph name="LtnCapR" format="2">
  <advance width="1149.0"/>
  <unicode hex="0052"/>
  <anchor x="275.0" y="0.0" name="H"/>
  <anchor x="520.0" y="-100.0" name="L"/>
  <anchor x="520.0" y="1370.0" name="U"/>
  <outline>
    <contour>
      <point x="927.0" y="731.0"/>
      <point x="927.0" y="987.0" type="curve"/>
      <point x="927.0" y="1159.0"/>
      <point x="778.0" y="1290.0"/>
      <point x="469.0" y="1290.0" type="curve" smooth="yes"/>
      <point x="293.0" y="1290.0"/>
      <point x="166.0" y="1261.0"/>
      <point x="41.0" y="1230.0" type="curve"/>
      <point x="50.0" y="1168.0" type="line"/>
      <point x="187.0" y="1189.0"/>
      <point x="315.0" y="1206.0"/>
      <point x="432.0" y="1206.0" type="curve" smooth="yes"/>
      <point x="670.0" y="1206.0"/>
      <point x="772.0" y="1102.0"/>
      <point x="772.0" y="956.0" type="curve" smooth="yes"/>
      <point x="772.0" y="780.0"/>
      <point x="654.0" y="684.0"/>
      <point x="444.0" y="684.0" type="curve" smooth="yes"/>
      <point x="410.0" y="684.0"/>
      <point x="384.0" y="686.0"/>
      <point x="337.0" y="694.0" type="curve"/>
      <point x="343.0" y="614.0" type="line"/>
      <point x="384.0" y="604.0"/>
      <point x="424.0" y="600.0"/>
      <point x="461.0" y="600.0" type="curve" smooth="yes"/>
      <point x="719.0" y="600.0"/>
    </contour>
    <contour>
      <point x="1051.0" y="8.0"/>
      <point x="1139.0" y="37.0" type="curve"/>
      <point x="1128.0" y="80.0" type="line"/>
      <point x="1038.0" y="72.0"/>
      <point x="988.0" y="81.0"/>
      <point x="948.0" y="139.0" type="curve" smooth="yes"/>
      <point x="613.0" y="678.0" type="line"/>
      <point x="509.0" y="612.0" type="line"/>
      <point x="817.0" y="41.0" type="line" smooth="yes"/>
      <point x="835.0" y="11.0"/>
      <point x="877.0" y="-14.0"/>
      <point x="915.0" y="-14.0" type="curve" smooth="yes"/>
      <point x="967.0" y="-14.0"/>
    </contour>
    <contour>
      <point x="50.0" y="0.0" type="line"/>
      <point x="500.0" y="0.0" type="line"/>
      <point x="500.0" y="43.0" type="line"/>
      <point x="403.0" y="61.0"/>
      <point x="355.0" y="88.0"/>
      <point x="355.0" y="104.0" type="curve" smooth="yes"/>
      <point x="355.0" y="1221.0" type="line"/>
      <point x="195.0" y="1221.0" type="line"/>
      <point x="195.0" y="104.0" type="line" smooth="yes"/>
      <point x="195.0" y="86.0"/>
      <point x="140.0" y="61.0"/>
      <point x="50.0" y="43.0" type="curve"/>
    </contour>
  </outline>
</glyph>
<glyph name="LtnCapS" format="2">
  <advance width="975.0"/>
  <unicode hex="0053"/>
  <anchor x="480.0" y="0.0" name="H"/>
  <anchor x="500.0" y="-100.0" name="L"/>
  <anchor x="500.0" y="1370.0" name="U"/>
  <outline>
    <contour>
      <point x="352.0" y="-30.0"/>
      <point x="440.0" y="-30.0" type="curve" smooth="yes"/>
      <point x="741.0" y="-30.0"/>
      <point x="885.0" y="199.0"/>
      <point x="885.0" y="377.0" type="curve"/>
      <point x="885.0" y="772.0"/>
      <point x="257.0" y="762.0"/>
      <point x="257.0" y="1014.0" type="curve" smooth="yes"/>
      <point x="257.0" y="1090.0"/>
      <point x="319.0" y="1189.0"/>
      <point x="467.0" y="1189.0" type="curve" smooth="yes"/>
      <point x="543.0" y="1189.0"/>
      <point x="635.0" y="1159.0"/>
      <point x="709.0" y="1071.0" type="curve"/>
      <point x="745.0" y="1065.0" type="line"/>
      <point x="778.0" y="1094.0"/>
      <point x="842.0" y="1182.0"/>
      <point x="823.0" y="1198.0" type="curve"/>
      <point x="774.0" y="1251.0"/>
      <point x="647.0" y="1290.0"/>
      <point x="526.0" y="1290.0" type="curve" smooth="yes"/>
      <point x="233.0" y="1290.0"/>
      <point x="127.0" y="1092.0"/>
      <point x="127.0" y="967.0" type="curve" smooth="yes"/>
      <point x="127.0" y="580.0"/>
      <point x="750.0" y="649.0"/>
      <point x="750.0" y="324.0" type="curve" smooth="yes"/>
      <point x="750.0" y="197.0"/>
      <point x="616.0" y="90.0"/>
      <point x="496.0" y="90.0" type="curve" smooth="yes"/>
      <point x="360.0" y="90.0"/>
      <point x="233.0" y="162.0"/>
      <point x="172.0" y="319.0" type="curve"/>
      <point x="131.0" y="324.0" type="line"/>
      <point x="111.0" y="252.0"/>
      <point x="113.0" y="78.0"/>
      <point x="131.0" y="68.0" type="curve" smooth="yes"/>
      <point x="225.0" y="8.0"/>
    </contour>
  </outline>
</glyph>
<glyph name="LtnCapV" format="2">
  <advance width="1331.0"/>
  <unicode hex="0056"/>
  <anchor x="648.0" y="0.0" name="H"/>
  <anchor x="655.0" y="-100.0" name="L"/>
  <anchor x="616.0" y="0.0" name="O"/>
  <anchor x="665.0" y="1370.0" name="U"/>
  <outline>
    <contour>
      <point x="1200.0" y="1200.0"/>
      <point x="1290.0" y="1217.0" type="curve"/>
      <point x="1290.0" y="1260.0" type="line"/>
      <point x="874.0" y="1260.0" type="line"/>
      <point x="874.0" y="1217.0" type="line"/>
      <point x="983.0" y="1204.0"/>
      <point x="1030.0" y="1190.0"/>
      <point x="1016.0" y="1151.0" type="curve" smooth="yes"/>
      <point x="680.0" y="203.0" type="line"/>
      <point x="327.0" y="1153.0" type="line" smooth="yes"/>
      <point x="313.0" y="1191.0"/>
      <point x="349.0" y="1209.0"/>
      <point x="455.0" y="1217.0" type="curve"/>
      <point x="455.0" y="1260.0" type="line"/>
      <point x="20.0" y="1260.0" type="line"/>
      <point x="20.0" y="1217.0" type="line"/>
      <point x="104.0" y="1206.0"/>
      <point x="149.0" y="1186.0"/>
      <point x="162.0" y="1151.0" type="curve" smooth="yes"/>
      <point x="602.0" y="-30.0" type="line"/>
      <point x="637.0" y="-22.0"/>
      <point x="731.0" y="0.0"/>
      <point x="752.0" y="59.0" type="curve" smooth="yes"/>
      <point x="1135.0" y="1151.0" type="line"/>
      <point x="1148.0" y="1188.0"/>
    </contour>
  </outline>
</glyph>
<glyph name="LtnCapW" format="2">
  <advance width="1741.0"/>
  <unicode hex="0057"/>
  <anchor x="861.0" y="-100.0" name="L"/>
  <anchor x="861.0" y="1370.0" name="U"/>
  <outline>
    <contour>
      <point x="1584.0" y="1193.0"/>
      <point x="1702.0" y="1217.0" type="curve"/>
      <point x="1702.0" y="1260.0" type="line"/>
      <point x="1278.0" y="1260.0" type="line"/>
      <point x="1278.0" y="1217.0" type="line"/>
      <point x="1368.0" y="1202.0"/>
      <point x="1438.0" y="1186.0"/>
      <point x="1432.0" y="1155.0" type="curve"/>
      <point x="1245.0" y="250.0" type="line"/>
      <point x="891.0" y="1260.0" type="line"/>
      <point x="836.0" y="1260.0" type="line"/>
      <point x="512.0" y="250.0" type="line"/>
      <point x="313.0" y="1147.0" type="line" smooth="yes"/>
      <point x="307.0" y="1176.0"/>
      <point x="319.0" y="1204.0"/>
      <point x="449.0" y="1217.0" type="curve"/>
      <point x="449.0" y="1260.0" type="line"/>
      <point x="20.0" y="1260.0" type="line"/>
      <point x="20.0" y="1217.0" type="line"/>
      <point x="115.0" y="1200.0"/>
      <point x="151.0" y="1180.0"/>
      <point x="158.0" y="1147.0" type="curve" smooth="yes"/>
      <point x="418.0" y="-30.0" type="line"/>
      <point x="472.0" y="-18.0"/>
      <point x="550.0" y="2.0"/>
      <point x="569.0" y="59.0" type="curve" smooth="yes"/>
      <point x="856.0" y="944.0" type="line"/>
      <point x="1182.0" y="-30.0" type="line"/>
      <point x="1223.0" y="-21.0"/>
      <point x="1309.0" y="2.0"/>
      <point x="1321.0" y="59.0" type="curve" smooth="yes"/>
      <point x="1550.0" y="1155.0" type="line" smooth="yes"/>
      <point x="1554.0" y="1176.0"/>
    </contour>
  </outline>
</glyph>
<glyph name="LtnCapX" format="2">
  <advance width="1260.0"/>
  <unicode hex="0058"/>
  <anchor x="630.0" y="-100.0" name="L"/>
  <anchor x="630.0" y="1370.0" name="U"/>
  <outline>
    <contour>
      <point x="1083.0" y="1206.0"/>
      <point x="1180.0" y="1217.0" type="curve"/>
      <point x="1180.0" y="1260.0" type="line"/>
      <point x="727.0" y="1260.0" type="line"/>
      <point x="727.0" y="1217.0" type="line"/>
      <point x="846.0" y="1208.0"/>
      <point x="895.0" y="1194.0"/>
      <point x="858.0" y="1133.0" type="curve" smooth="yes"/>
      <point x="578.0" y="682.0" type="line"/>
      <point x="627.0" y="535.0" type="line"/>
      <point x="997.0" y="1133.0" type="line" smooth="yes"/>
      <point x="1032.0" y="1190.0"/>
    </contour>
    <contour>
      <point x="778.0" y="0.0" type="line"/>
      <point x="1229.0" y="0.0" type="line"/>
      <point x="1229.0" y="43.0" type="line"/>
      <point x="1151.0" y="53.0"/>
      <point x="1110.0" y="70.0"/>
      <point x="1071.0" y="127.0" type="curve" smooth="yes"/>
      <point x="385.0" y="1133.0" type="line" smooth="yes"/>
      <point x="345.0" y="1191.0"/>
      <point x="379.0" y="1206.0"/>
      <point x="492.0" y="1217.0" type="curve"/>
      <point x="492.0" y="1260.0" type="line"/>
      <point x="41.0" y="1260.0" type="line"/>
      <point x="41.0" y="1217.0" type="line"/>
      <point x="129.0" y="1204.0"/>
      <point x="156.0" y="1192.0"/>
      <point x="197.0" y="1133.0" type="curve" smooth="yes"/>
      <point x="883.0" y="127.0" type="line" smooth="yes"/>
      <point x="920.0" y="74.0"/>
      <point x="895.0" y="55.0"/>
      <point x="778.0" y="43.0" type="curve"/>
    </contour>
    <contour>
      <point x="352.0" y="127.0" type="curve" smooth="yes"/>
      <point x="631.0" y="578.0" type="line"/>
      <point x="596.0" y="752.0" type="line"/>
      <point x="213.0" y="127.0" type="line" smooth="yes"/>
      <point x="180.0" y="72.0"/>
      <point x="117.0" y="49.0"/>
      <point x="31.0" y="43.0" type="curve"/>
      <point x="31.0" y="0.0" type="line"/>
      <point x="481.0" y="0.0" type="line"/>
      <point x="481.0" y="43.0" type="line"/>
      <point x="358.0" y="51.0"/>
      <point x="315.0" y="68.0"/>
    </contour>
  </outline>
</glyph>
<glyph name="LtnCapY" format="2">
  <advance width="1217.0"/>
  <unicode hex="0059"/>
  <anchor x="604.0" y="-100.0" name="L"/>
  <anchor x="604.0" y="1370.0" name="U"/>
  <outline>
    <contour>
      <point x="1085.0" y="1200.0"/>
      <point x="1176.0" y="1217.0" type="curve"/>
      <point x="1176.0" y="1260.0" type="line"/>
      <point x="780.0" y="1260.0" type="line"/>
      <point x="780.0" y="1217.0" type="line"/>
      <point x="883.0" y="1204.0"/>
      <point x="911.0" y="1186.0"/>
      <point x="891.0" y="1151.0" type="curve" smooth="yes"/>
      <point x="623.0" y="680.0" type="line"/>
      <point x="530.0" y="872.0"/>
      <point x="397.0" y="1102.0"/>
      <point x="297.0" y="1231.0" type="curve" smooth="yes"/>
      <point x="276.0" y="1257.0"/>
      <point x="248.0" y="1270.0"/>
      <point x="219.0" y="1270.0" type="curve" smooth="yes"/>
      <point x="164.0" y="1270.0"/>
      <point x="78.0" y="1260.0"/>
      <point x="0.0" y="1249.0" type="curve"/>
      <point x="4.0" y="1206.0" type="line"/>
      <point x="115.0" y="1206.0"/>
      <point x="143.0" y="1180.0"/>
      <point x="168.0" y="1151.0" type="curve"/>
      <point x="268.0" y="1014.0"/>
      <point x="451.0" y="711.0"/>
      <point x="545.0" y="489.0" type="curve"/>
      <point x="655.0" y="489.0" type="line"/>
      <point x="1020.0" y="1151.0" type="line" smooth="yes"/>
      <point x="1039.0" y="1185.0"/>
    </contour>
    <contour>
      <point x="360.0" y="0.0" type="line"/>
      <point x="850.0" y="0.0" type="line"/>
      <point x="850.0" y="43.0" type="line"/>
      <point x="725.0" y="68.0"/>
      <point x="684.0" y="98.0"/>
      <point x="684.0" y="115.0" type="curve" smooth="yes"/>
      <point x="684.0" y="637.0" type="line"/>
      <point x="524.0" y="637.0" type="line"/>
      <point x="524.0" y="115.0" type="line" smooth="yes"/>
      <point x="524.0" y="96.0"/>
      <point x="481.0" y="68.0"/>
      <point x="360.0" y="43.0" type="curve"/>
    </contour>
  </outline>
</glyph>
<glyph name="LtnCapZ" format="2">
  <advance width="1071"/>
  <unicode hex="005A"/>
  <anchor x="535" y="-100" name="L"/>
  <anchor x="555" y="1370" name="U"/>
  <outline>
    <contour>
      <point x="987" y="207"/>
      <point x="991" y="293" type="curve"/>
      <point x="936" y="307" type="line"/>
      <point x="885" y="143"/>
      <point x="856" y="100"/>
      <point x="799" y="100" type="curve" smooth="yes"/>
      <point x="276" y="100" type="line"/>
      <point x="981" y="1217" type="line"/>
      <point x="956" y="1260" type="line"/>
      <point x="340" y="1260" type="line" smooth="yes"/>
      <point x="262" y="1260"/>
      <point x="223" y="1260"/>
      <point x="150" y="1276" type="curve"/>
      <point x="121" y="975" type="line"/>
      <point x="178" y="963" type="line"/>
      <point x="207" y="1102"/>
      <point x="268" y="1160"/>
      <point x="311" y="1160" type="curve" smooth="yes"/>
      <point x="770" y="1160" type="line"/>
      <point x="59" y="45" type="line"/>
      <point x="88" y="0" type="line"/>
      <point x="979" y="0" type="line"/>
      <point x="981" y="78"/>
    </contour>
  </outline>
</glyph>
<glyph name="LftSqrBrac" format="2">
  <advance width="630.0"/>
  <unicode hex="005B"/>
  <outline>
    <contour>
      <point x="584.0" y="-275.0"/>
      <point x="590.0" y="-249.0" type="curve"/>
      <point x="555.0" y="-220.0" type="line"/>
      <point x="280.0" y="-220.0" type="line"/>
      <point x="280.0" y="1485.0" type="line"/>
      <point x="561.0" y="1485.0" type="line"/>
      <point x="569.0" y="1501.0"/>
      <point x="582.0" y="1541.0"/>
      <point x="588.0" y="1574.0" type="curve"/>
      <point x="555.0" y="1600.0" type="line"/>
      <point x="140.0" y="1600.0" type="line"/>
      <point x="140.0" y="-335.0" type="line"/>
      <point x="561.0" y="-335.0" type="line"/>
      <point x="571.0" y="-312.0"/>
    </contour>
  </outline>
</glyph>
<glyph name="ReverseSolidus" format="2">
  <advance width="961.0"/>
  <unicode hex="005C"/>
  <outline>
    <contour>
      <point x="870.0" y="-335.0" type="curve"/>
      <point x="905.0" y="-310.0" type="line"/>
      <point x="205.0" y="1551.0" type="line"/>
      <point x="168.0" y="1574.0"/>
      <point x="131.0" y="1590.0"/>
      <point x="92.0" y="1600.0" type="curve"/>
      <point x="55.0" y="1578.0" type="line"/>
      <point x="756.0" y="-284.0" type="line"/>
      <point x="780.0" y="-302.0"/>
      <point x="838.0" y="-325.0"/>
    </contour>
  </outline>
</glyph>
<glyph name="RtSqrBrac" format="2">
  <advance width="630.0"/>
  <unicode hex="005D"/>
  <outline>
    <contour>
      <point x="75.0" y="-335.0" type="line"/>
      <point x="490.0" y="-335.0" type="line"/>
      <point x="490.0" y="1600.0" type="line"/>
      <point x="67.0" y="1600.0" type="line"/>
      <point x="58.0" y="1578.0"/>
      <point x="44.0" y="1540.0"/>
      <point x="40.0" y="1511.0" type="curve"/>
      <point x="75.0" y="1485.0" type="line"/>
      <point x="350.0" y="1485.0" type="line"/>
      <point x="350.0" y="-220.0" type="line"/>
      <point x="67.0" y="-220.0" type="line"/>
      <point x="58.0" y="-237.0"/>
      <point x="46.0" y="-275.0"/>
      <point x="42.0" y="-306.0" type="curve"/>
    </contour>
  </outline>
</glyph>
<glyph name="CircumAccent" format="2">
  <advance width="1008.0"/>
  <unicode hex="005E"/>
  <anchor x="504.0" y="1690.0" name="U"/>
  <outline>
    <contour>
      <point x="874.0" y="604.0"/>
      <point x="907.0" y="635.0" type="curve"/>
      <point x="555.0" y="1550.0" type="line"/>
      <point x="518.0" y="1532.0"/>
      <point x="455.0" y="1493.0"/>
      <point x="422.0" y="1462.0" type="curve"/>
      <point x="100.0" y="592.0" type="line"/>
      <point x="123.0" y="565.0" type="line"/>
      <point x="150.0" y="578.0"/>
      <point x="203.0" y="608.0"/>
      <point x="231.0" y="635.0" type="curve"/>
      <point x="481.0" y="1315.0" type="line"/>
      <point x="764.0" y="592.0" type="line"/>
      <point x="801.0" y="565.0" type="line"/>
      <point x="846.0" y="586.0"/>
    </contour>
  </outline>
</glyph>
<glyph name="LowLine" format="2">
  <advance width="802.0"/>
  <unicode hex="005F"/>
  <outline>
    <contour>
      <point x="825.0" y="-184.0"/>
      <point x="831.0" y="-156.0" type="curve"/>
      <point x="808.0" y="-131.0" type="line"/>
      <point x="6.0" y="-131.0" type="line"/>
      <point x="-6.0" y="-158.0"/>
      <point x="-18.0" y="-193.0"/>
      <point x="-25.0" y="-219.0" type="curve"/>
      <point x="0.0" y="-246.0" type="line"/>
      <point x="802.0" y="-246.0" type="line"/>
      <point x="813.0" y="-221.0"/>
    </contour>
  </outline>
</glyph>
<glyph name="GraveAccent" format="2">
  <advance width="653.0"/>
  <unicode hex="0060"/>
  <anchor x="327.0" y="1410.0" name="U"/>
  <outline>
    <contour>
      <point x="426.0" y="1068.0"/>
      <point x="438.0" y="1078.0" type="curve"/>
      <point x="198.0" y="1489.0" type="line"/>
      <point x="165.0" y="1486.0"/>
      <point x="78.0" y="1471.0"/>
      <point x="52.0" y="1465.0" type="curve"/>
      <point x="30.0" y="1424.0" type="line"/>
      <point x="382.0" y="1047.0" type="line"/>
      <point x="405.0" y="1054.0"/>
    </contour>
  </outline>
</glyph>
<glyph name="LtnSmB" format="2">
  <advance width="1040.0"/>
  <unicode hex="0062"/>
  <anchor x="479.0" y="0.0" name="H"/>
  <anchor x="479.0" y="-100.0" name="L"/>
  <anchor x="1068.0" y="900.0" name="R"/>
  <anchor x="520.0" y="1620.0" name="U"/>
  <outline>
    <contour>
      <point x="950.0" y="260.0"/>
      <point x="950.0" y="492.0" type="curve"/>
      <point x="950.0" y="784.0"/>
      <point x="819.0" y="960.0"/>
      <point x="637.0" y="960.0" type="curve" smooth="yes"/>
      <point x="561.0" y="960.0"/>
      <point x="423.0" y="887.0"/>
      <point x="290.0" y="727.0" type="curve"/>
      <point x="290.0" y="1516.0" type="line"/>
      <point x="290.0" y="1516.0"/>
      <point x="263.0" y="1540.0"/>
      <point x="253.0" y="1550.0" type="curve"/>
      <point x="177.0" y="1509.0"/>
      <point x="98.0" y="1491.0"/>
      <point x="10.0" y="1470.0" type="curve"/>
      <point x="10.0" y="1430.0" type="line"/>
      <point x="119.0" y="1417.0"/>
      <point x="140.0" y="1419.0"/>
      <point x="140.0" y="1296.0" type="curve" smooth="yes"/>
      <point x="140.0" y="96.0" type="line"/>
      <point x="284.0" y="16.0"/>
      <point x="418.0" y="-30.0"/>
      <point x="469.0" y="-30.0" type="curve" smooth="yes"/>
      <point x="764.0" y="-30.0"/>
    </contour>
    <contour>
      <point x="815.0" y="674.0"/>
      <point x="815.0" y="408.0" type="curve"/>
      <point x="815.0" y="254.0"/>
      <point x="729.0" y="100.0"/>
      <point x="567.0" y="100.0" type="curve" smooth="yes"/>
      <point x="520.0" y="100.0"/>
      <point x="396.0" y="123.0"/>
      <point x="290.0" y="203.0" type="curve"/>
      <point x="290.0" y="610.0" type="line"/>
      <point x="402.0" y="776.0"/>
      <point x="520.0" y="825.0"/>
      <point x="567.0" y="825.0" type="curve" smooth="yes"/>
      <point x="696.0" y="825.0"/>
    </contour>
  </outline>
</glyph>
<glyph name="LtnSmC" format="2">
  <advance width="895.0"/>
  <unicode hex="0063"/>
  <anchor x="490.0" y="0.0" name="H"/>
  <anchor x="490.0" y="-100.0" name="L"/>
  <anchor x="948.0" y="900.0" name="R"/>
  <anchor x="490.0" y="1050.0" name="U"/>
  <outline>
    <contour>
      <point x="666.0" y="-14.0"/>
      <point x="840.0" y="190.0" type="curve"/>
      <point x="801.0" y="231.0" type="line"/>
      <point x="653.0" y="104.0"/>
      <point x="612.0" y="100.0"/>
      <point x="537.0" y="100.0" type="curve" smooth="yes"/>
      <point x="377.0" y="100.0"/>
      <point x="230.0" y="248.0"/>
      <point x="230.0" y="475.0" type="curve" smooth="yes"/>
      <point x="230.0" y="725.0"/>
      <point x="360.0" y="850.0"/>
      <point x="500.0" y="850.0" type="curve" smooth="yes"/>
      <point x="637.0" y="850.0"/>
      <point x="709.0" y="774.0"/>
      <point x="731.0" y="727.0" type="curve"/>
      <point x="768.0" y="717.0" type="line"/>
      <point x="793.0" y="754.0"/>
      <point x="831.0" y="848.0"/>
      <point x="825.0" y="881.0" type="curve"/>
      <point x="780.0" y="928.0"/>
      <point x="678.0" y="960.0"/>
      <point x="590.0" y="960.0" type="curve" smooth="yes"/>
      <point x="303.0" y="960.0"/>
      <point x="80.0" y="731.0"/>
      <point x="80.0" y="444.0" type="curve" smooth="yes"/>
      <point x="80.0" y="147.0"/>
      <point x="270.0" y="-30.0"/>
      <point x="465.0" y="-30.0" type="curve" smooth="yes"/>
      <point x="590.0" y="-30.0"/>
    </contour>
  </outline>
</glyph>
<glyph name="LtnSmE" format="2">
  <advance width="946"/>
  <unicode hex="0065"/>
  <anchor x="500" y="0" name="H"/>
  <anchor x="500" y="-100" name="L"/>
  <anchor x="558" y="0" name="O"/>
  <anchor x="1020" y="900" name="R"/>
  <anchor x="510" y="1050" name="U"/>
  <outline>
    <contour>
      <point x="842" y="530"/>
      <point x="866" y="557" type="curve"/>
      <point x="866" y="727"/>
      <point x="786" y="960"/>
      <point x="524" y="960" type="curve" smooth="yes"/>
      <point x="453" y="960"/>
      <point x="360" y="922"/>
      <point x="301" y="881" type="curve" smooth="yes"/>
      <point x="162" y="786"/>
      <point x="80" y="614"/>
      <point x="80" y="434" type="curve" smooth="yes"/>
      <point x="80" y="152"/>
      <point x="260" y="-30"/>
      <point x="465" y="-30" type="curve" smooth="yes"/>
      <point x="602" y="-30"/>
      <point x="682" y="0"/>
      <point x="860" y="195" type="curve"/>
      <point x="854" y="205"/>
      <point x="840" y="227"/>
      <point x="823" y="236" type="curve"/>
      <point x="674" y="113"/>
      <point x="610" y="100"/>
      <point x="526" y="100" type="curve" smooth="yes"/>
      <point x="342" y="100"/>
      <point x="230" y="287"/>
      <point x="230" y="497" type="curve" smooth="yes"/>
      <point x="230" y="702"/>
      <point x="336" y="855"/>
      <point x="496" y="855" type="curve" smooth="yes"/>
      <point x="670" y="855"/>
      <point x="702" y="688"/>
      <point x="702" y="616" type="curve" smooth="yes"/>
      <point x="702" y="588"/>
      <point x="694" y="580"/>
      <point x="664" y="580" type="curve" smooth="yes"/>
      <point x="184" y="580" type="line"/>
      <point x="182" y="490" type="line"/>
      <point x="756" y="490" type="line"/>
      <point x="799" y="507"/>
    </contour>
  </outline>
</glyph>
<glyph name="LtnSmG" format="2">
  <advance width="999.0"/>
  <unicode hex="0067"/>
  <anchor x="500.0" y="-470.0" name="H"/>
  <anchor x="500.0" y="-600.0" name="L"/>
  <anchor x="999.0" y="900.0" name="R"/>
  <anchor x="500.0" y="1050.0" name="U"/>
  <outline>
    <contour>
      <point x="970.0" y="-339.0"/>
      <point x="970.0" y="-120.0" type="curve" smooth="yes"/>
      <point x="970.0" y="-26.0"/>
      <point x="893.0" y="78.0"/>
      <point x="602.0" y="110.0" type="curve"/>
      <point x="393.0" y="135.0"/>
      <point x="346.0" y="164.0"/>
      <point x="346.0" y="196.0" type="curve" smooth="yes"/>
      <point x="346.0" y="207.0"/>
      <point x="384.0" y="270.0"/>
      <point x="504.0" y="350.0" type="curve"/>
      <point x="362.0" y="333.0" type="line"/>
      <point x="207.0" y="233.0"/>
      <point x="182.0" y="177.0"/>
      <point x="182.0" y="153.0" type="curve" smooth="yes"/>
      <point x="182.0" y="89.0"/>
      <point x="256.0" y="26.0"/>
      <point x="518.0" y="-4.0" type="curve" smooth="yes"/>
      <point x="760.0" y="-31.0"/>
      <point x="820.0" y="-83.0"/>
      <point x="820.0" y="-157.0" type="curve" smooth="yes"/>
      <point x="820.0" y="-295.0"/>
      <point x="702.0" y="-395.0"/>
      <point x="522.0" y="-395.0" type="curve" smooth="yes"/>
      <point x="340.0" y="-395.0"/>
      <point x="180.0" y="-302.0"/>
      <point x="180.0" y="-190.0" type="curve" smooth="yes"/>
      <point x="180.0" y="-145.0"/>
      <point x="199.0" y="-82.0"/>
      <point x="414.0" y="30.0" type="curve"/>
      <point x="408.0" y="57.0"/>
      <point x="334.0" y="61.0"/>
      <point x="334.0" y="61.0" type="curve"/>
      <point x="73.0" y="-73.0"/>
      <point x="30.0" y="-156.0"/>
      <point x="30.0" y="-229.0" type="curve" smooth="yes"/>
      <point x="30.0" y="-423.0"/>
      <point x="281.0" y="-500.0"/>
      <point x="467.0" y="-500.0" type="curve" smooth="yes"/>
      <point x="702.0" y="-500.0"/>
    </contour>
    <contour>
      <point x="973.0" y="893.0"/>
      <point x="989.0" y="930.0" type="curve"/>
      <point x="969.0" y="960.0" type="line"/>
      <point x="907.0" y="937.0"/>
      <point x="811.0" y="901.0"/>
      <point x="635.0" y="891.0" type="curve"/>
      <point x="682.0" y="814.0" type="line"/>
      <point x="795.0" y="810.0"/>
      <point x="860.0" y="818.0"/>
      <point x="932.0" y="830.0" type="curve"/>
      <point x="963.0" y="863.0"/>
    </contour>
    <contour>
      <point x="830.0" y="437.0"/>
      <point x="830.0" y="641.0" type="curve" smooth="yes"/>
      <point x="830.0" y="814.0"/>
      <point x="680.0" y="960.0"/>
      <point x="485.0" y="960.0" type="curve" smooth="yes"/>
      <point x="291.0" y="960.0"/>
      <point x="100.0" y="798.0"/>
      <point x="100.0" y="602.0" type="curve" smooth="yes"/>
      <point x="100.0" y="416.0"/>
      <point x="242.0" y="295.0"/>
      <point x="434.0" y="295.0" type="curve" smooth="yes"/>
      <point x="629.0" y="295.0"/>
    </contour>
    <contour>
      <point x="690.0" y="742.0"/>
      <point x="690.0" y="600.0" type="curve" smooth="yes"/>
      <point x="690.0" y="468.0"/>
      <point x="592.0" y="400.0"/>
      <point x="514.0" y="400.0" type="curve" smooth="yes"/>
      <point x="326.0" y="400.0"/>
      <point x="240.0" y="517.0"/>
      <point x="240.0" y="659.0" type="curve" smooth="yes"/>
      <point x="240.0" y="791.0"/>
      <point x="350.0" y="860.0"/>
      <point x="416.0" y="860.0" type="curve" smooth="yes"/>
      <point x="596.0" y="860.0"/>
    </contour>
  </outline>
</glyph>
<glyph name="LtnSmK" format="2">
  <advance width="999.0"/>
  <unicode hex="006B"/>
  <anchor x="250.0" y="0.0" name="H"/>
  <anchor x="514.0" y="-100.0" name="L"/>
  <anchor x="999.0" y="900.0" name="R"/>
  <anchor x="514.0" y="1620.0" name="U"/>
  <outline>
    <contour>
      <point x="905.0" y="881.0"/>
      <point x="964.0" y="887.0" type="curve"/>
      <point x="964.0" y="930.0" type="line"/>
      <point x="585.0" y="930.0" type="line"/>
      <point x="585.0" y="887.0" type="line"/>
      <point x="655.0" y="887.0"/>
      <point x="716.0" y="877.0"/>
      <point x="628.0" y="799.0" type="curve" smooth="yes"/>
      <point x="315.0" y="526.0" type="line"/>
      <point x="392.0" y="496.0" type="line"/>
      <point x="804.0" y="825.0" type="line" smooth="yes"/>
      <point x="860.0" y="870.0"/>
    </contour>
    <contour>
      <point x="30.0" y="0.0" type="line"/>
      <point x="430.0" y="0.0" type="line"/>
      <point x="430.0" y="43.0" type="line"/>
      <point x="331.0" y="74.0"/>
      <point x="320.0" y="84.0"/>
      <point x="320.0" y="104.0" type="curve" smooth="yes"/>
      <point x="320.0" y="1516.0" type="line"/>
      <point x="283.0" y="1550.0" type="line"/>
      <point x="216.0" y="1511.0"/>
      <point x="122.0" y="1489.0"/>
      <point x="30.0" y="1470.0" type="curve"/>
      <point x="30.0" y="1430.0" type="line"/>
      <point x="145.0" y="1417.0"/>
      <point x="170.0" y="1419.0"/>
      <point x="170.0" y="1296.0" type="curve" smooth="yes"/>
      <point x="170.0" y="104.0" type="line" smooth="yes"/>
      <point x="170.0" y="80.0"/>
      <point x="118.0" y="66.0"/>
      <point x="30.0" y="43.0" type="curve"/>
    </contour>
    <contour>
      <point x="921.0" y="0.0"/>
      <point x="999.0" y="18.0" type="curve"/>
      <point x="993.0" y="61.0" type="line"/>
      <point x="915.0" y="55.0"/>
      <point x="876.0" y="68.0"/>
      <point x="839.0" y="111.0" type="curve" smooth="yes"/>
      <point x="421.0" y="602.0" type="line"/>
      <point x="317.0" y="526.0" type="line"/>
      <point x="700.0" y="43.0" type="line" smooth="yes"/>
      <point x="729.0" y="4.0"/>
      <point x="759.0" y="-10.0"/>
      <point x="815.0" y="-10.0" type="curve" smooth="yes"/>
      <point x="843.0" y="-10.0"/>
    </contour>
  </outline>
</glyph>
<glyph name="LtnSmM" format="2">
  <advance width="1645"/>
  <unicode hex="006D"/>
  <anchor x="1400" y="0" name="H"/>
  <anchor x="835" y="-100" name="L"/>
  <anchor x="835" y="1050" name="U"/>
  <outline>
    <contour>
      <point x="1186" y="0" type="line"/>
      <point x="1616" y="0" type="line"/>
      <point x="1616" y="43" type="line"/>
      <point x="1511" y="70"/>
      <point x="1475" y="86"/>
      <point x="1475" y="104" type="curve" smooth="yes"/>
      <point x="1475" y="741" type="line" smooth="yes"/>
      <point x="1475" y="891"/>
      <point x="1380" y="960"/>
      <point x="1253" y="960" type="curve" smooth="yes"/>
      <point x="1155" y="960"/>
      <point x="1022" y="871"/>
      <point x="910" y="704" type="curve"/>
      <point x="910" y="725" type="line" smooth="yes"/>
      <point x="910" y="903"/>
      <point x="815" y="960"/>
      <point x="688" y="960" type="curve" smooth="yes"/>
      <point x="592" y="960"/>
      <point x="460" y="873"/>
      <point x="341" y="696" type="curve"/>
      <point x="330" y="925" type="line"/>
      <point x="295" y="960" type="line"/>
      <point x="223" y="925"/>
      <point x="156" y="896"/>
      <point x="55" y="880" type="curve"/>
      <point x="55" y="840" type="line"/>
      <point x="184" y="825"/>
      <point x="195" y="817"/>
      <point x="195" y="711" type="curve" smooth="yes"/>
      <point x="195" y="104" type="line" smooth="yes"/>
      <point x="195" y="82"/>
      <point x="143" y="66"/>
      <point x="55" y="43" type="curve"/>
      <point x="55" y="0" type="line"/>
      <point x="485" y="0" type="line"/>
      <point x="485" y="43" type="line"/>
      <point x="399" y="61"/>
      <point x="345" y="84"/>
      <point x="345" y="104" type="curve" smooth="yes"/>
      <point x="345" y="573" type="line"/>
      <point x="458" y="741"/>
      <point x="557" y="840"/>
      <point x="647" y="840" type="curve" smooth="yes"/>
      <point x="729" y="840"/>
      <point x="760" y="797"/>
      <point x="760" y="633" type="curve" smooth="yes"/>
      <point x="760" y="104" type="line" smooth="yes"/>
      <point x="760" y="86"/>
      <point x="717" y="68"/>
      <point x="621" y="43" type="curve"/>
      <point x="621" y="0" type="line"/>
      <point x="1051" y="0" type="line"/>
      <point x="1051" y="43" type="line"/>
      <point x="946" y="70"/>
      <point x="910" y="86"/>
      <point x="910" y="104" type="curve" smooth="yes"/>
      <point x="910" y="573" type="line"/>
      <point x="1011" y="739"/>
      <point x="1124" y="840"/>
      <point x="1212" y="840" type="curve" smooth="yes"/>
      <point x="1292" y="840"/>
      <point x="1325" y="797"/>
      <point x="1325" y="633" type="curve" smooth="yes"/>
      <point x="1325" y="104" type="line" smooth="yes"/>
      <point x="1325" y="86"/>
      <point x="1282" y="68"/>
      <point x="1186" y="43" type="curve"/>
    </contour>
  </outline>
</glyph>
<glyph name="LtnSmN" format="2">
  <advance width="1130.0"/>
  <unicode hex="006E"/>
  <anchor x="885.0" y="0.0" name="H"/>
  <anchor x="577.0" y="-100.0" name="L"/>
  <anchor x="577.0" y="1050.0" name="U"/>
  <outline>
    <contour>
      <point x="670.0" y="0.0" type="line"/>
      <point x="1100.0" y="0.0" type="line"/>
      <point x="1100.0" y="43.0" type="line"/>
      <point x="995.0" y="70.0"/>
      <point x="960.0" y="86.0"/>
      <point x="960.0" y="104.0" type="curve" smooth="yes"/>
      <point x="960.0" y="741.0" type="line" smooth="yes"/>
      <point x="960.0" y="891.0"/>
      <point x="854.0" y="960.0"/>
      <point x="739.0" y="960.0" type="curve" smooth="yes"/>
      <point x="635.0" y="960.0"/>
      <point x="458.0" y="854.0"/>
      <point x="341.0" y="676.0" type="curve"/>
      <point x="330.0" y="925.0" type="line"/>
      <point x="295.0" y="960.0" type="line"/>
      <point x="221.0" y="923.0"/>
      <point x="145.0" y="894.0"/>
      <point x="55.0" y="880.0" type="curve"/>
      <point x="55.0" y="840.0" type="line"/>
      <point x="190.0" y="825.0"/>
      <point x="195.0" y="815.0"/>
      <point x="195.0" y="711.0" type="curve" smooth="yes"/>
      <point x="195.0" y="104.0" type="line" smooth="yes"/>
      <point x="195.0" y="82.0"/>
      <point x="143.0" y="66.0"/>
      <point x="55.0" y="43.0" type="curve"/>
      <point x="55.0" y="0.0" type="line"/>
      <point x="485.0" y="0.0" type="line"/>
      <point x="485.0" y="43.0" type="line"/>
      <point x="399.0" y="61.0"/>
      <point x="345.0" y="84.0"/>
      <point x="345.0" y="104.0" type="curve" smooth="yes"/>
      <point x="345.0" y="549.0" type="line"/>
      <point x="474.0" y="756.0"/>
      <point x="600.0" y="830.0"/>
      <point x="682.0" y="830.0" type="curve" smooth="yes"/>
      <point x="776.0" y="830.0"/>
      <point x="810.0" y="795.0"/>
      <point x="810.0" y="633.0" type="curve" smooth="yes"/>
      <point x="810.0" y="104.0" type="line" smooth="yes"/>
      <point x="810.0" y="86.0"/>
      <point x="766.0" y="68.0"/>
      <point x="670.0" y="43.0" type="curve"/>
    </contour>
  </outline>
</glyph>
<glyph name="LtnSmO" format="2">
  <advance width="1030.0"/>
  <unicode hex="006F"/>
  <anchor x="535.0" y="0.0" name="H"/>
  <anchor x="535.0" y="-100.0" name="L"/>
  <anchor x="575.0" y="0.0" name="O"/>
  <anchor x="1044.0" y="900.0" name="R"/>
  <anchor x="535.0" y="1050.0" name="U"/>
  <outline>
    <contour>
      <point x="950.0" y="219.0"/>
      <point x="950.0" y="485.0" type="curve"/>
      <point x="950.0" y="758.0"/>
      <point x="786.0" y="960.0"/>
      <point x="535.0" y="960.0" type="curve" smooth="yes"/>
      <point x="285.0" y="960.0"/>
      <point x="80.0" y="709.0"/>
      <point x="80.0" y="444.0" type="curve" smooth="yes"/>
      <point x="80.0" y="172.0"/>
      <point x="244.0" y="-30.0"/>
      <point x="496.0" y="-30.0" type="curve" smooth="yes"/>
      <point x="739.0" y="-30.0"/>
    </contour>
    <contour>
      <point x="795.0" y="666.0"/>
      <point x="795.0" y="455.0" type="curve"/>
      <point x="795.0" y="227.0"/>
      <point x="713.0" y="80.0"/>
      <point x="524.0" y="80.0" type="curve" smooth="yes"/>
      <point x="401.0" y="80.0"/>
      <point x="235.0" y="262.0"/>
      <point x="235.0" y="473.0" type="curve" smooth="yes"/>
      <point x="235.0" y="686.0"/>
      <point x="303.0" y="850.0"/>
      <point x="506.0" y="850.0" type="curve" smooth="yes"/>
      <point x="643.0" y="850.0"/>
    </contour>
  </outline>
</glyph>
<glyph name="LtnSmR" format="2">
  <advance width="811.0"/>
  <unicode hex="0072"/>
  <anchor x="270.0" y="0.0" name="H"/>
  <anchor x="270.0" y="-100.0" name="L"/>
  <anchor x="450.0" y="1050.0" name="U"/>
  <outline>
    <contour>
      <point x="795.0" y="908.0"/>
      <point x="770.0" y="923.0" type="curve"/>
      <point x="721.0" y="951.0"/>
      <point x="670.0" y="960.0"/>
      <point x="627.0" y="960.0" type="curve" smooth="yes"/>
      <point x="512.0" y="960.0"/>
      <point x="415.0" y="846.0"/>
      <point x="343.0" y="698.0" type="curve"/>
      <point x="330.0" y="925.0" type="line"/>
      <point x="295.0" y="960.0" type="line"/>
      <point x="229.0" y="923.0"/>
      <point x="141.0" y="902.0"/>
      <point x="55.0" y="880.0" type="curve"/>
      <point x="55.0" y="840.0" type="line"/>
      <point x="129.0" y="836.0"/>
      <point x="154.0" y="831.0"/>
      <point x="172.0" y="813.0" type="curve" smooth="yes"/>
      <point x="184.0" y="801.0"/>
      <point x="195.0" y="774.0"/>
      <point x="195.0" y="686.0" type="curve" smooth="yes"/>
      <point x="195.0" y="104.0" type="line" smooth="yes"/>
      <point x="195.0" y="82.0"/>
      <point x="143.0" y="63.0"/>
      <point x="55.0" y="43.0" type="curve"/>
      <point x="55.0" y="0.0" type="line"/>
      <point x="514.0" y="0.0" type="line"/>
      <point x="514.0" y="43.0" type="line"/>
      <point x="389.0" y="61.0"/>
      <point x="345.0" y="84.0"/>
      <point x="345.0" y="104.0" type="curve" smooth="yes"/>
      <point x="345.0" y="496.0" type="line"/>
      <point x="409.0" y="723.0"/>
      <point x="514.0" y="820.0"/>
      <point x="573.0" y="820.0" type="curve" smooth="yes"/>
      <point x="623.0" y="820.0"/>
      <point x="668.0" y="784.0"/>
      <point x="684.0" y="676.0" type="curve"/>
      <point x="727.0" y="676.0" type="line"/>
      <point x="760.0" y="748.0"/>
    </contour>
  </outline>
</glyph>
<glyph name="LtnSmS" format="2">
  <advance width="791"/>
  <unicode hex="0073"/>
  <anchor x="385" y="0" name="H"/>
  <anchor x="397" y="-100" name="L"/>
  <anchor x="397" y="1050" name="U"/>
  <outline>
    <contour>
      <point x="700" y="0"/>
      <point x="700" y="283" type="curve" smooth="yes"/>
      <point x="700" y="432"/>
      <point x="571" y="499"/>
      <point x="455" y="559" type="curve" smooth="yes"/>
      <point x="343" y="617"/>
      <point x="234" y="664"/>
      <point x="234" y="750" type="curve" smooth="yes"/>
      <point x="234" y="805"/>
      <point x="287" y="870"/>
      <point x="375" y="870" type="curve" smooth="yes"/>
      <point x="440" y="870"/>
      <point x="512" y="836"/>
      <point x="575" y="741" type="curve"/>
      <point x="614" y="733" type="line"/>
      <point x="631" y="754"/>
      <point x="680" y="868"/>
      <point x="664" y="883" type="curve" smooth="yes"/>
      <point x="611" y="930"/>
      <point x="485" y="960"/>
      <point x="401" y="960" type="curve" smooth="yes"/>
      <point x="250" y="960"/>
      <point x="104" y="866"/>
      <point x="104" y="700" type="curve" smooth="yes"/>
      <point x="104" y="573"/>
      <point x="211" y="507"/>
      <point x="322" y="449" type="curve" smooth="yes"/>
      <point x="444" y="385"/>
      <point x="570" y="334"/>
      <point x="570" y="227" type="curve" smooth="yes"/>
      <point x="570" y="133"/>
      <point x="502" y="70"/>
      <point x="406" y="70" type="curve" smooth="yes"/>
      <point x="268" y="70"/>
      <point x="162" y="160"/>
      <point x="156" y="272" type="curve"/>
      <point x="113" y="283" type="line"/>
      <point x="94" y="223"/>
      <point x="89" y="53"/>
      <point x="106" y="43" type="curve" smooth="yes"/>
      <point x="195" y="-7"/>
      <point x="293" y="-30"/>
      <point x="356" y="-30" type="curve" smooth="yes"/>
      <point x="434" y="-30"/>
    </contour>
  </outline>
</glyph>
<glyph name="LtnSmT" format="2">
  <advance width="705.0"/>
  <unicode hex="0074"/>
  <anchor x="348.0" y="0.0" name="H"/>
  <anchor x="348.0" y="-100.0" name="L"/>
  <anchor x="500.0" y="900.0" name="R"/>
  <anchor x="348.0" y="1320.0" name="U"/>
  <outline>
    <contour>
      <point x="545.0" y="20.0"/>
      <point x="676.0" y="117.0" type="curve"/>
      <point x="647.0" y="168.0" type="line"/>
      <point x="543.0" y="115.0"/>
      <point x="475.0" y="100.0"/>
      <point x="428.0" y="100.0" type="curve" smooth="yes"/>
      <point x="348.0" y="100.0"/>
      <point x="320.0" y="147.0"/>
      <point x="320.0" y="307.0" type="curve" smooth="yes"/>
      <point x="320.0" y="835.0" type="line"/>
      <point x="372.0" y="835.0" type="line" smooth="yes"/>
      <point x="480.0" y="835.0"/>
      <point x="543.0" y="816.0"/>
      <point x="575.0" y="800.0" type="curve"/>
      <point x="602.0" y="812.0"/>
      <point x="651.0" y="864.0"/>
      <point x="676.0" y="901.0" type="curve"/>
      <point x="647.0" y="930.0" type="line"/>
      <point x="320.0" y="930.0" type="line"/>
      <point x="320.0" y="1255.0" type="line"/>
      <point x="289.0" y="1280.0" type="line"/>
      <point x="170.0" y="1176.0" type="line"/>
      <point x="170.0" y="930.0" type="line"/>
      <point x="98.0" y="930.0" type="line"/>
      <point x="20.0" y="863.0" type="line"/>
      <point x="41.0" y="835.0" type="line"/>
      <point x="170.0" y="835.0" type="line"/>
      <point x="170.0" y="221.0" type="line" smooth="yes"/>
      <point x="170.0" y="35.0"/>
      <point x="252.0" y="-30.0"/>
      <point x="344.0" y="-30.0" type="curve" smooth="yes"/>
      <point x="414.0" y="-30.0"/>
    </contour>
  </outline>
</glyph>
<glyph name="LtnSmU" format="2">
  <advance width="1085.0"/>
  <unicode hex="0075"/>
  <anchor x="546.0" y="0.0" name="H"/>
  <anchor x="545.0" y="-100.0" name="L"/>
  <anchor x="860.0" y="0.0" name="O"/>
  <anchor x="1084.0" y="900.0" name="R"/>
  <anchor x="545.0" y="1050.0" name="U"/>
  <outline>
    <contour>
      <point x="971.0" y="18.0"/>
      <point x="1069.0" y="82.0" type="curve"/>
      <point x="1059.0" y="127.0" type="line"/>
      <point x="991.0" y="98.0"/>
      <point x="954.0" y="94.0"/>
      <point x="938.0" y="104.0" type="curve" smooth="yes"/>
      <point x="920.0" y="117.0"/>
      <point x="915.0" y="172.0"/>
      <point x="915.0" y="254.0" type="curve" smooth="yes"/>
      <point x="915.0" y="921.0" type="line"/>
      <point x="885.0" y="960.0" type="line"/>
      <point x="811.0" y="935.0"/>
      <point x="721.0" y="906.0"/>
      <point x="625.0" y="894.0" type="curve"/>
      <point x="625.0" y="854.0" type="line"/>
      <point x="748.0" y="848.0"/>
      <point x="765.0" y="831.0"/>
      <point x="765.0" y="711.0" type="curve" smooth="yes"/>
      <point x="765.0" y="262.0" type="line"/>
      <point x="648.0" y="137.0"/>
      <point x="559.0" y="90.0"/>
      <point x="473.0" y="90.0" type="curve" smooth="yes"/>
      <point x="377.0" y="90.0"/>
      <point x="320.0" y="147.0"/>
      <point x="320.0" y="334.0" type="curve" smooth="yes"/>
      <point x="320.0" y="921.0" type="line"/>
      <point x="292.0" y="960.0" type="line"/>
      <point x="204.0" y="925.0"/>
      <point x="137.0" y="906.0"/>
      <point x="41.0" y="894.0" type="curve"/>
      <point x="41.0" y="854.0" type="line"/>
      <point x="164.0" y="842.0"/>
      <point x="170.0" y="838.0"/>
      <point x="170.0" y="711.0" type="curve" smooth="yes"/>
      <point x="170.0" y="279.0" type="line" smooth="yes"/>
      <point x="170.0" y="29.0"/>
      <point x="284.0" y="-30.0"/>
      <point x="408.0" y="-30.0" type="curve" smooth="yes"/>
      <point x="493.0" y="-30.0"/>
      <point x="599.0" y="0.0"/>
      <point x="765.0" y="166.0" type="curve"/>
      <point x="773.0" y="29.0"/>
      <point x="803.0" y="-30.0"/>
      <point x="850.0" y="-30.0" type="curve" smooth="yes"/>
      <point x="883.0" y="-30.0"/>
    </contour>
  </outline>
</glyph>
<glyph name="LtnSmW" format="2">
  <advance width="1446.0"/>
  <unicode hex="0077"/>
  <anchor x="730.0" y="-100.0" name="L"/>
  <anchor x="750.0" y="1050.0" name="U"/>
  <outline>
    <contour>
      <point x="1343.0" y="868.0"/>
      <point x="1425.0" y="887.0" type="curve"/>
      <point x="1425.0" y="930.0" type="line"/>
      <point x="1100.0" y="930.0" type="line"/>
      <point x="1100.0" y="887.0" type="line"/>
      <point x="1192.0" y="872.0"/>
      <point x="1225.0" y="856.0"/>
      <point x="1217.0" y="825.0" type="curve" smooth="yes"/>
      <point x="1044.0" y="190.0" type="line"/>
      <point x="784.0" y="930.0" type="line"/>
      <point x="768.0" y="930.0"/>
      <point x="721.0" y="930.0"/>
      <point x="721.0" y="930.0" type="curve"/>
      <point x="713.0" y="696.0" type="line"/>
      <point x="967.0" y="-30.0" type="line"/>
      <point x="1001.0" y="-22.0"/>
      <point x="1087.0" y="0.0"/>
      <point x="1104.0" y="59.0" type="curve" smooth="yes"/>
      <point x="1325.0" y="825.0" type="line" smooth="yes"/>
      <point x="1333.0" y="856.0"/>
    </contour>
    <contour>
      <point x="524.0" y="59.0" type="curve" smooth="yes"/>
      <point x="791.0" y="825.0" type="line"/>
      <point x="770.0" y="930.0" type="line"/>
      <point x="770.0" y="930.0"/>
      <point x="733.0" y="930.0"/>
      <point x="715.0" y="930.0" type="curve"/>
      <point x="469.0" y="190.0" type="line"/>
      <point x="281.0" y="825.0" type="line" smooth="yes"/>
      <point x="272.0" y="850.0"/>
      <point x="276.0" y="874.0"/>
      <point x="406.0" y="887.0" type="curve"/>
      <point x="406.0" y="930.0" type="line"/>
      <point x="20.0" y="930.0" type="line"/>
      <point x="20.0" y="887.0" type="line"/>
      <point x="86.0" y="872.0"/>
      <point x="123.0" y="850.0"/>
      <point x="129.0" y="825.0" type="curve"/>
      <point x="391.0" y="-30.0" type="line"/>
      <point x="426.0" y="-22.0"/>
      <point x="504.0" y="-2.0"/>
    </contour>
  </outline>
</glyph>
<glyph name="LtnSmX" format="2">
  <advance width="1030.0"/>
  <unicode hex="0078"/>
  <anchor x="800.0" y="0.0" name="H"/>
  <anchor x="518.0" y="-100.0" name="L"/>
  <anchor x="518.0" y="1050.0" name="U"/>
  <outline>
    <contour>
      <point x="887.0" y="879.0"/>
      <point x="995.0" y="887.0" type="curve"/>
      <point x="995.0" y="930.0" type="line"/>
      <point x="614.0" y="930.0" type="line"/>
      <point x="614.0" y="887.0" type="line"/>
      <point x="696.0" y="879.0"/>
      <point x="735.0" y="864.0"/>
      <point x="688.0" y="799.0" type="curve" smooth="yes"/>
      <point x="500.0" y="528.0" type="line"/>
      <point x="553.0" y="451.0" type="line"/>
      <point x="799.0" y="797.0" type="line" smooth="yes"/>
      <point x="834.0" y="846.0"/>
    </contour>
    <contour>
      <point x="614.0" y="0.0" type="line"/>
      <point x="1016.0" y="0.0" type="line"/>
      <point x="1016.0" y="43.0" type="line"/>
      <point x="928.0" y="55.0"/>
      <point x="887.0" y="98.0"/>
      <point x="856.0" y="137.0" type="curve"/>
      <point x="373.0" y="799.0" type="line" smooth="yes"/>
      <point x="326.0" y="862.0"/>
      <point x="369.0" y="879.0"/>
      <point x="451.0" y="887.0" type="curve"/>
      <point x="451.0" y="930.0" type="line"/>
      <point x="31.0" y="930.0" type="line"/>
      <point x="31.0" y="887.0" type="line"/>
      <point x="139.0" y="879.0"/>
      <point x="166.0" y="846.0"/>
      <point x="201.0" y="797.0" type="curve" smooth="yes"/>
      <point x="688.0" y="131.0" type="line" smooth="yes"/>
      <point x="741.0" y="59.0"/>
      <point x="680.0" y="49.0"/>
      <point x="614.0" y="43.0" type="curve"/>
    </contour>
    <contour>
      <point x="301.0" y="131.0" type="curve" smooth="yes"/>
      <point x="500.0" y="414.0" type="line"/>
      <point x="449.0" y="494.0" type="line"/>
      <point x="193.0" y="137.0" type="line" smooth="yes"/>
      <point x="164.0" y="96.0"/>
      <point x="127.0" y="59.0"/>
      <point x="20.0" y="43.0" type="curve"/>
      <point x="20.0" y="0.0" type="line"/>
      <point x="399.0" y="0.0" type="line"/>
      <point x="399.0" y="43.0" type="line"/>
      <point x="336.0" y="49.0"/>
      <point x="250.0" y="59.0"/>
    </contour>
  </outline>
</glyph>
<glyph name="LtnSmY" format="2">
  <advance width="1010.0"/>
  <unicode hex="0079"/>
  <anchor x="770.0" y="-100.0" name="L"/>
  <anchor x="1044.0" y="900.0" name="R"/>
  <anchor x="530.0" y="1050.0" name="U"/>
  <outline>
    <contour>
      <point x="909.0" y="868.0"/>
      <point x="989.0" y="887.0" type="curve"/>
      <point x="989.0" y="930.0" type="line"/>
      <point x="655.0" y="930.0" type="line"/>
      <point x="655.0" y="887.0" type="line"/>
      <point x="754.0" y="872.0"/>
      <point x="784.0" y="860.0"/>
      <point x="770.0" y="819.0" type="curve"/>
      <point x="539.0" y="182.0" type="line"/>
      <point x="293.0" y="819.0" type="line"/>
      <point x="276.0" y="862.0"/>
      <point x="303.0" y="874.0"/>
      <point x="406.0" y="887.0" type="curve"/>
      <point x="406.0" y="930.0" type="line"/>
      <point x="20.0" y="930.0" type="line"/>
      <point x="20.0" y="887.0" type="line"/>
      <point x="86.0" y="872.0"/>
      <point x="119.0" y="856.0"/>
      <point x="131.0" y="819.0" type="curve"/>
      <point x="459.0" y="-23.0" type="line"/>
      <point x="430.0" y="-92.0" type="line" smooth="yes"/>
      <point x="383.0" y="-207.0"/>
      <point x="299.0" y="-314.0"/>
      <point x="250.0" y="-330.0" type="curve"/>
      <point x="201.0" y="-349.0"/>
      <point x="133.0" y="-349.0"/>
      <point x="70.0" y="-312.0" type="curve" smooth="yes"/>
      <point x="27.0" y="-338.0"/>
      <point x="-47.0" y="-431.0"/>
      <point x="-47.0" y="-447.0" type="curve" smooth="yes"/>
      <point x="-47.0" y="-472.0"/>
      <point x="25.0" y="-500.0"/>
      <point x="127.0" y="-500.0" type="curve" smooth="yes"/>
      <point x="260.0" y="-500.0"/>
      <point x="434.0" y="-377.0"/>
      <point x="545.0" y="-82.0" type="curve" smooth="yes"/>
      <point x="879.0" y="819.0" type="line"/>
      <point x="893.0" y="858.0"/>
    </contour>
  </outline>
</glyph>
<glyph name="LftCurlyBrac" format="2">
  <advance width="688.0"/>
  <unicode hex="007B"/>
  <outline>
    <contour>
      <point x="545.0" y="1488.0"/>
      <point x="649.0" y="1553.0" type="curve"/>
      <point x="623.0" y="1600.0" type="line"/>
      <point x="424.0" y="1510.0"/>
      <point x="299.0" y="1375.0"/>
      <point x="299.0" y="1195.0" type="curve" smooth="yes"/>
      <point x="299.0" y="1031.0"/>
      <point x="340.0" y="1025.0"/>
      <point x="340.0" y="863.0" type="curve" smooth="yes"/>
      <point x="340.0" y="763.0"/>
      <point x="258.0" y="674.0"/>
      <point x="102.0" y="633.0" type="curve"/>
      <point x="119.0" y="580.0" type="line"/>
      <point x="158.0" y="586.0"/>
      <point x="147.0" y="586.0"/>
      <point x="184.0" y="586.0" type="curve" smooth="yes"/>
      <point x="283.0" y="586.0"/>
      <point x="340.0" y="530.0"/>
      <point x="340.0" y="422.0" type="curve" smooth="yes"/>
      <point x="340.0" y="256.0"/>
      <point x="299.0" y="229.0"/>
      <point x="299.0" y="72.0" type="curve" smooth="yes"/>
      <point x="299.0" y="-121.0"/>
      <point x="393.0" y="-225.0"/>
      <point x="616.0" y="-315.0" type="curve"/>
      <point x="639.0" y="-254.0" type="line"/>
      <point x="498.0" y="-176.0"/>
      <point x="465.0" y="-104.0"/>
      <point x="465.0" y="43.0" type="curve" smooth="yes"/>
      <point x="465.0" y="176.0"/>
      <point x="506.0" y="225.0"/>
      <point x="506.0" y="385.0" type="curve" smooth="yes"/>
      <point x="506.0" y="532.0"/>
      <point x="459.0" y="629.0"/>
      <point x="326.0" y="653.0" type="curve"/>
      <point x="438.0" y="702.0"/>
      <point x="506.0" y="812.0"/>
      <point x="506.0" y="923.0" type="curve" smooth="yes"/>
      <point x="506.0" y="1078.0"/>
      <point x="465.0" y="1097.0"/>
      <point x="465.0" y="1252.0" type="curve" smooth="yes"/>
      <point x="465.0" y="1390.0"/>
    </contour>
  </outline>
</glyph>
<glyph name="VertLine" format="2">
  <advance width="500.0"/>
  <unicode hex="007C"/>
  <outline>
    <contour>
      <point x="296.0" y="-469.0"/>
      <point x="320.0" y="-448.0" type="curve"/>
      <point x="320.0" y="1648.0" type="line"/>
      <point x="284.0" y="1670.0" type="line"/>
      <point x="245.0" y="1660.0"/>
      <point x="217.0" y="1643.0"/>
      <point x="180.0" y="1621.0" type="curve"/>
      <point x="180.0" y="-477.0" type="line"/>
      <point x="215.0" y="-500.0" type="line"/>
      <point x="248.0" y="-489.0"/>
    </contour>
  </outline>
</glyph>
<glyph name="RtCurlyBrac" format="2">
  <advance width="688.0"/>
  <unicode hex="007D"/>
  <outline>
    <contour>
      <point x="430.0" y="610.0"/>
      <point x="588.0" y="651.0" type="curve"/>
      <point x="571.0" y="707.0" type="line"/>
      <point x="530.0" y="698.0"/>
      <point x="541.0" y="700.0"/>
      <point x="506.0" y="700.0" type="curve" smooth="yes"/>
      <point x="406.0" y="700.0"/>
      <point x="350.0" y="757.0"/>
      <point x="350.0" y="865.0" type="curve" smooth="yes"/>
      <point x="350.0" y="1029.0"/>
      <point x="389.0" y="1058.0"/>
      <point x="389.0" y="1215.0" type="curve" smooth="yes"/>
      <point x="389.0" y="1406.0"/>
      <point x="297.0" y="1512.0"/>
      <point x="72.0" y="1600.0" type="curve"/>
      <point x="49.0" y="1539.0" type="line"/>
      <point x="188.0" y="1463.0"/>
      <point x="223.0" y="1392.0"/>
      <point x="223.0" y="1242.0" type="curve" smooth="yes"/>
      <point x="223.0" y="1111.0"/>
      <point x="184.0" y="1060.0"/>
      <point x="184.0" y="902.0" type="curve" smooth="yes"/>
      <point x="184.0" y="753.0"/>
      <point x="229.0" y="657.0"/>
      <point x="365.0" y="631.0" type="curve"/>
      <point x="250.0" y="582.0"/>
      <point x="184.0" y="475.0"/>
      <point x="184.0" y="365.0" type="curve" smooth="yes"/>
      <point x="184.0" y="207.0"/>
      <point x="223.0" y="190.0"/>
      <point x="223.0" y="35.0" type="curve" smooth="yes"/>
      <point x="223.0" y="-104.0"/>
      <point x="143.0" y="-201.0"/>
      <point x="39.0" y="-266.0" type="curve"/>
      <point x="66.0" y="-315.0" type="line"/>
      <point x="264.0" y="-225.0"/>
      <point x="389.0" y="-88.0"/>
      <point x="389.0" y="92.0" type="curve" smooth="yes"/>
      <point x="389.0" y="256.0"/>
      <point x="350.0" y="260.0"/>
      <point x="350.0" y="422.0" type="curve" smooth="yes"/>
      <point x="350.0" y="524.0"/>
    </contour>
  </outline>
</glyph>
<glyph name="Tilde" format="2">
  <advance width="999.0"/>
  <unicode hex="007E"/>
  <outline>
    <contour>
      <point x="895.0" y="643.0"/>
      <point x="950.0" y="774.0" type="curve"/>
      <point x="897.0" y="799.0" type="line"/>
      <point x="842.0" y="690.0"/>
      <point x="784.0" y="639.0"/>
      <point x="721.0" y="639.0" type="curve" smooth="yes"/>
      <point x="614.0" y="639.0"/>
      <point x="475.0" y="799.0"/>
      <point x="352.0" y="799.0" type="curve" smooth="yes"/>
      <point x="225.0" y="799.0"/>
      <point x="106.0" y="633.0"/>
      <point x="49.0" y="502.0" type="curve"/>
      <point x="102.0" y="475.0" type="line"/>
      <point x="158.0" y="586.0"/>
      <point x="211.0" y="637.0"/>
      <point x="276.0" y="637.0" type="curve" smooth="yes"/>
      <point x="391.0" y="637.0"/>
      <point x="535.0" y="477.0"/>
      <point x="647.0" y="477.0" type="curve" smooth="yes"/>
      <point x="774.0" y="477.0"/>
    </contour>
  </outline>
</glyph>
<glyph name="InvExclamationMrk" format="2">
  <advance width="557.0"/>
  <unicode hex="00A1"/>
  <outline>
    <contour>
      <point x="391.0" y="758.0"/>
      <point x="391.0" y="848.0" type="curve"/>
      <point x="391.0" y="920.0"/>
      <point x="362.0" y="961.0"/>
      <point x="293.0" y="961.0" type="curve" smooth="yes"/>
      <point x="213.0" y="961.0"/>
      <point x="154.0" y="889.0"/>
      <point x="154.0" y="799.0" type="curve" smooth="yes"/>
      <point x="154.0" y="725.0"/>
      <point x="186.0" y="684.0"/>
      <point x="254.0" y="684.0" type="curve" smooth="yes"/>
      <point x="328.0" y="684.0"/>
    </contour>
    <contour>
      <point x="319.0" y="-516.0"/>
      <point x="371.0" y="-483.0" type="curve"/>
      <point x="322.0" y="551.0" type="line"/>
      <point x="295.0" y="569.0" type="line"/>
      <point x="260.0" y="559.0"/>
      <point x="246.0" y="551.0"/>
      <point x="219.0" y="530.0" type="curve"/>
      <point x="172.0" y="-543.0" type="line"/>
      <point x="215.0" y="-565.0" type="line"/>
      <point x="260.0" y="-549.0"/>
    </contour>
  </outline>
</glyph>
<glyph name="CentSgn" format="2">
  <advance width="961.0"/>
  <unicode hex="00A2"/>
  <outline>
    <contour>
      <point x="541.0" y="-29.0"/>
      <point x="565.0" y="-8.0" type="curve"/>
      <point x="565.0" y="1223.0" type="line"/>
      <point x="539.0" y="1245.0" type="line"/>
      <point x="498.0" y="1235.0"/>
      <point x="512.0" y="1237.0"/>
      <point x="475.0" y="1214.0" type="curve"/>
      <point x="475.0" y="-16.0" type="line"/>
      <point x="500.0" y="-41.0" type="line"/>
      <point x="532.0" y="-31.0"/>
    </contour>
    <contour>
      <point x="690.0" y="145.0"/>
      <point x="864.0" y="350.0" type="curve"/>
      <point x="825.0" y="391.0" type="line"/>
      <point x="680.0" y="264.0"/>
      <point x="637.0" y="262.0"/>
      <point x="561.0" y="262.0" type="curve" smooth="yes"/>
      <point x="401.0" y="262.0"/>
      <point x="256.0" y="387.0"/>
      <point x="256.0" y="616.0" type="curve" smooth="yes"/>
      <point x="256.0" y="864.0"/>
      <point x="385.0" y="971.0"/>
      <point x="524.0" y="971.0" type="curve" smooth="yes"/>
      <point x="662.0" y="971.0"/>
      <point x="733.0" y="895.0"/>
      <point x="758.0" y="848.0" type="curve"/>
      <point x="793.0" y="838.0" type="line"/>
      <point x="817.0" y="872.0"/>
      <point x="856.0" y="969.0"/>
      <point x="850.0" y="999.0" type="curve"/>
      <point x="805.0" y="1049.0"/>
      <point x="702.0" y="1079.0"/>
      <point x="614.0" y="1079.0" type="curve" smooth="yes"/>
      <point x="328.0" y="1079.0"/>
      <point x="104.0" y="870.0"/>
      <point x="104.0" y="586.0" type="curve" smooth="yes"/>
      <point x="104.0" y="289.0"/>
      <point x="297.0" y="129.0"/>
      <point x="489.0" y="129.0" type="curve" smooth="yes"/>
      <point x="614.0" y="129.0"/>
    </contour>
  </outline>
</glyph>
<glyph name="PoundSgn" format="2">
  <advance width="961.0"/>
  <unicode hex="00A3"/>
  <outline>
    <contour>
      <point x="859.0" y="1097.0"/>
      <point x="861.0" y="1165.0" type="curve"/>
      <point x="737.0" y="1228.0"/>
      <point x="684.0" y="1235.0"/>
      <point x="614.0" y="1235.0" type="curve" smooth="yes"/>
      <point x="297.0" y="1235.0"/>
      <point x="166.0" y="986.0"/>
      <point x="197.0" y="578.0" type="curve" smooth="yes"/>
      <point x="229.0" y="158.0"/>
      <point x="192.0" y="124.0"/>
      <point x="64.0" y="19.0" type="curve"/>
      <point x="87.0" y="-30.0" type="line"/>
      <point x="283.0" y="95.0"/>
      <point x="678.0" y="-99.0"/>
      <point x="857.0" y="0.0" type="curve"/>
      <point x="867.0" y="39.0"/>
      <point x="888.0" y="139.0"/>
      <point x="898.0" y="254.0" type="curve"/>
      <point x="855.0" y="272.0" type="line"/>
      <point x="798.0" y="116.0"/>
      <point x="752.0" y="104.0"/>
      <point x="629.0" y="101.0" type="curve" smooth="yes"/>
      <point x="481.0" y="97.0"/>
      <point x="440.0" y="116.0"/>
      <point x="258.0" y="101.0" type="curve"/>
      <point x="335.0" y="207.0"/>
      <point x="392.0" y="388.0"/>
      <point x="368.0" y="595.0" type="curve" smooth="yes"/>
      <point x="310.0" y="1091.0"/>
      <point x="432.0" y="1136.0"/>
      <point x="540.0" y="1136.0" type="curve" smooth="yes"/>
      <point x="674.0" y="1136.0"/>
      <point x="756.0" y="1065.0"/>
      <point x="775.0" y="900.0" type="curve"/>
      <point x="822.0" y="900.0" type="line"/>
      <point x="838.0" y="951.0"/>
    </contour>
    <contour>
      <point x="615.0" y="536.0" type="line"/>
      <point x="640.0" y="604.0" type="line"/>
      <point x="615.0" y="627.0" type="line"/>
      <point x="86.0" y="627.0" type="line"/>
      <point x="78.0" y="606.0"/>
      <point x="70.0" y="581.0"/>
      <point x="64.0" y="561.0" type="curve"/>
      <point x="86.0" y="536.0" type="line"/>
    </contour>
  </outline>
</glyph>
<glyph name="CurrSgn" format="2">
  <advance width="961.0"/>
  <unicode hex="00A4"/>
  <outline>
    <contour>
      <point x="330.0" y="688.0"/>
      <point x="363.0" y="721.0" type="curve"/>
      <point x="396.0" y="754.0"/>
      <point x="439.0" y="770.0"/>
      <point x="482.0" y="770.0" type="curve" smooth="yes"/>
      <point x="525.0" y="770.0"/>
      <point x="567.0" y="754.0"/>
      <point x="600.0" y="721.0" type="curve" smooth="yes"/>
      <point x="633.0" y="688.0"/>
      <point x="650.0" y="645.0"/>
      <point x="650.0" y="602.0" type="curve" smooth="yes"/>
      <point x="650.0" y="559.0"/>
      <point x="633.0" y="516.0"/>
      <point x="601.0" y="483.0" type="curve" smooth="yes"/>
      <point x="568.0" y="450.0"/>
      <point x="525.0" y="434.0"/>
      <point x="482.0" y="434.0" type="curve" smooth="yes"/>
      <point x="439.0" y="434.0"/>
      <point x="396.0" y="450.0"/>
      <point x="362.0" y="484.0" type="curve" smooth="yes"/>
      <point x="329.0" y="516.0"/>
      <point x="313.0" y="558.0"/>
      <point x="313.0" y="601.0" type="curve" smooth="yes"/>
      <point x="313.0" y="644.0"/>
    </contour>
    <contour>
      <point x="348.0" y="840.0"/>
      <point x="296.0" y="788.0" type="curve"/>
      <point x="244.0" y="736.0"/>
      <point x="218.0" y="668.0"/>
      <point x="218.0" y="600.0" type="curve" smooth="yes"/>
      <point x="218.0" y="533.0"/>
      <point x="243.0" y="467.0"/>
      <point x="294.0" y="416.0" type="curve" smooth="yes"/>
      <point x="346.0" y="364.0"/>
      <point x="414.0" y="339.0"/>
      <point x="482.0" y="339.0" type="curve" smooth="yes"/>
      <point x="550.0" y="339.0"/>
      <point x="618.0" y="364.0"/>
      <point x="668.0" y="415.0" type="curve" smooth="yes"/>
      <point x="719.0" y="466.0"/>
      <point x="745.0" y="533.0"/>
      <point x="745.0" y="600.0" type="curve" smooth="yes"/>
      <point x="745.0" y="668.0"/>
      <point x="718.0" y="737.0"/>
      <point x="667.0" y="788.0" type="curve" smooth="yes"/>
      <point x="615.0" y="840.0"/>
      <point x="549.0" y="866.0"/>
      <point x="482.0" y="866.0" type="curve" smooth="yes"/>
      <point x="415.0" y="866.0"/>
    </contour>
    <contour>
      <point x="371.0" y="427.0" type="line"/>
      <point x="340.0" y="493.0" type="line"/>
      <point x="306.0" y="491.0" type="line"/>
      <point x="158.0" y="343.0" type="line"/>
      <point x="167.0" y="322.0"/>
      <point x="179.0" y="299.0"/>
      <point x="189.0" y="281.0" type="curve"/>
      <point x="222.0" y="279.0" type="line"/>
    </contour>
    <contour>
      <point x="300.0" y="718.0" type="line"/>
      <point x="366.0" y="749.0" type="line"/>
      <point x="364.0" y="783.0" type="line"/>
      <point x="223.0" y="924.0" type="line"/>
      <point x="202.0" y="915.0"/>
      <point x="179.0" y="903.0"/>
      <point x="161.0" y="893.0" type="curve"/>
      <point x="159.0" y="860.0" type="line"/>
    </contour>
    <contour>
      <point x="738.0" y="280.0" type="line"/>
      <point x="804.0" y="310.0" type="line"/>
      <point x="803.0" y="344.0" type="line"/>
      <point x="661.0" y="486.0" type="line"/>
      <point x="641.0" y="477.0"/>
      <point x="617.0" y="465.0"/>
      <point x="599.0" y="455.0" type="curve"/>
      <point x="597.0" y="421.0" type="line"/>
    </contour>
    <contour>
      <point x="802.0" y="858.0" type="line"/>
      <point x="772.0" y="924.0" type="line"/>
      <point x="738.0" y="923.0" type="line"/>
      <point x="589.0" y="774.0" type="line"/>
      <point x="598.0" y="754.0"/>
      <point x="610.0" y="730.0"/>
      <point x="620.0" y="712.0" type="curve"/>
      <point x="654.0" y="710.0" type="line"/>
    </contour>
  </outline>
</glyph>
<glyph name="YenSgn" format="2">
  <advance width="961.0"/>
  <unicode hex="00A5"/>
  <outline>
    <contour>
      <point x="236.0" y="0.0" type="line"/>
      <point x="726.0" y="0.0" type="line"/>
      <point x="726.0" y="43.0" type="line"/>
      <point x="601.0" y="68.0"/>
      <point x="560.0" y="98.0"/>
      <point x="560.0" y="115.0" type="curve" smooth="yes"/>
      <point x="560.0" y="436.0" type="line"/>
      <point x="831.0" y="436.0" type="line"/>
      <point x="856.0" y="504.0" type="line"/>
      <point x="831.0" y="527.0" type="line"/>
      <point x="560.0" y="527.0" type="line"/>
      <point x="560.0" y="578.0" type="line"/>
      <point x="842.0" y="1095.0" type="line" smooth="yes"/>
      <point x="861.0" y="1130.0"/>
      <point x="907.0" y="1144.0"/>
      <point x="998.0" y="1161.0" type="curve"/>
      <point x="998.0" y="1204.0" type="line"/>
      <point x="602.0" y="1204.0" type="line"/>
      <point x="602.0" y="1161.0" type="line"/>
      <point x="705.0" y="1148.0"/>
      <point x="733.0" y="1130.0"/>
      <point x="713.0" y="1095.0" type="curve" smooth="yes"/>
      <point x="499.0" y="716.0" type="line"/>
      <point x="406.0" y="908.0"/>
      <point x="330.0" y="1046.0"/>
      <point x="230.0" y="1175.0" type="curve" smooth="yes"/>
      <point x="209.0" y="1201.0"/>
      <point x="181.0" y="1214.0"/>
      <point x="152.0" y="1214.0" type="curve" smooth="yes"/>
      <point x="97.0" y="1214.0"/>
      <point x="11.0" y="1204.0"/>
      <point x="-67.0" y="1193.0" type="curve"/>
      <point x="-63.0" y="1150.0" type="line"/>
      <point x="48.0" y="1150.0"/>
      <point x="77.0" y="1125.0"/>
      <point x="101.0" y="1095.0" type="curve" smooth="yes"/>
      <point x="192.0" y="980.0"/>
      <point x="308.0" y="776.0"/>
      <point x="400.0" y="580.0" type="curve"/>
      <point x="400.0" y="527.0" type="line"/>
      <point x="128.0" y="527.0" type="line"/>
      <point x="120.0" y="506.0"/>
      <point x="112.0" y="481.0"/>
      <point x="106.0" y="461.0" type="curve"/>
      <point x="128.0" y="436.0" type="line"/>
      <point x="400.0" y="436.0" type="line"/>
      <point x="400.0" y="115.0" type="line" smooth="yes"/>
      <point x="400.0" y="96.0"/>
      <point x="357.0" y="68.0"/>
      <point x="236.0" y="43.0" type="curve"/>
    </contour>
  </outline>
</glyph>
<glyph name="BrokenBar" format="2">
  <advance width="500.0"/>
  <unicode hex="00A6"/>
  <outline>
    <contour>
      <point x="293.0" y="716.0"/>
      <point x="320.0" y="737.0" type="curve"/>
      <point x="320.0" y="1648.0" type="line"/>
      <point x="283.0" y="1670.0" type="line"/>
      <point x="242.0" y="1660.0"/>
      <point x="219.0" y="1643.0"/>
      <point x="180.0" y="1621.0" type="curve"/>
      <point x="180.0" y="708.0" type="line"/>
      <point x="217.0" y="686.0" type="line"/>
      <point x="250.0" y="696.0"/>
    </contour>
    <contour>
      <point x="293.0" y="-469.0"/>
      <point x="320.0" y="-448.0" type="curve"/>
      <point x="320.0" y="452.0" type="line"/>
      <point x="283.0" y="477.0" type="line"/>
      <point x="242.0" y="464.0"/>
      <point x="219.0" y="448.0"/>
      <point x="180.0" y="425.0" type="curve"/>
      <point x="180.0" y="-477.0" type="line"/>
      <point x="217.0" y="-500.0" type="line"/>
      <point x="250.0" y="-489.0"/>
    </contour>
  </outline>
</glyph>
<glyph name="SectionSgn" format="2">
  <advance width="961.0"/>
  <unicode hex="00A7"/>
  <outline>
    <contour>
      <point x="783.0" y="-20.0"/>
      <point x="783.0" y="263.0" type="curve"/>
      <point x="783.0" y="412.0"/>
      <point x="654.0" y="470.0"/>
      <point x="538.0" y="529.0" type="curve"/>
      <point x="338.0" y="643.0"/>
      <point x="250.0" y="700.0"/>
      <point x="250.0" y="822.0" type="curve" smooth="yes"/>
      <point x="250.0" y="877.0"/>
      <point x="289.0" y="981.0"/>
      <point x="368.0" y="950.0" type="curve"/>
      <point x="369.0" y="950.0"/>
      <point x="390.0" y="1042.0"/>
      <point x="394.0" y="1040.0" type="curve"/>
      <point x="291.0" y="1066.0"/>
      <point x="119.0" y="935.0"/>
      <point x="119.0" y="775.0" type="curve" smooth="yes"/>
      <point x="119.0" y="605.0"/>
      <point x="228.0" y="516.0"/>
      <point x="405.0" y="419.0" type="curve" smooth="yes"/>
      <point x="526.0" y="353.0"/>
      <point x="653.0" y="314.0"/>
      <point x="653.0" y="207.0" type="curve" smooth="yes"/>
      <point x="653.0" y="113.0"/>
      <point x="585.0" y="68.0"/>
      <point x="489.0" y="68.0" type="curve" smooth="yes"/>
      <point x="351.0" y="68.0"/>
      <point x="245.0" y="170.0"/>
      <point x="239.0" y="282.0" type="curve"/>
      <point x="196.0" y="293.0" type="line"/>
      <point x="177.0" y="233.0"/>
      <point x="171.0" y="61.0"/>
      <point x="189.0" y="53.0" type="curve"/>
      <point x="278.0" y="4.0"/>
      <point x="376.0" y="-30.0"/>
      <point x="439.0" y="-30.0" type="curve" smooth="yes"/>
      <point x="517.0" y="-30.0"/>
    </contour>
    <contour>
      <point x="842.0" y="474.0"/>
      <point x="842.0" y="656.0" type="curve"/>
      <point x="842.0" y="839.0"/>
      <point x="716.0" y="907.0"/>
      <point x="538.0" y="1009.0" type="curve" smooth="yes"/>
      <point x="392.0" y="1092.0"/>
      <point x="317.0" y="1147.0"/>
      <point x="317.0" y="1240.0" type="curve" smooth="yes"/>
      <point x="317.0" y="1310.0"/>
      <point x="370.0" y="1350.0"/>
      <point x="458.0" y="1350.0" type="curve" smooth="yes"/>
      <point x="523.0" y="1350.0"/>
      <point x="595.0" y="1306.0"/>
      <point x="658.0" y="1211.0" type="curve"/>
      <point x="697.0" y="1203.0" type="line"/>
      <point x="714.0" y="1224.0"/>
      <point x="763.0" y="1338.0"/>
      <point x="747.0" y="1353.0" type="curve" smooth="yes"/>
      <point x="693.0" y="1400.0"/>
      <point x="568.0" y="1440.0"/>
      <point x="484.0" y="1440.0" type="curve" smooth="yes"/>
      <point x="333.0" y="1440.0"/>
      <point x="187.0" y="1366.0"/>
      <point x="187.0" y="1200.0" type="curve" smooth="yes"/>
      <point x="187.0" y="1065.0"/>
      <point x="274.0" y="969.0"/>
      <point x="405.0" y="899.0" type="curve" smooth="yes"/>
      <point x="613.0" y="787.0"/>
      <point x="711.0" y="717.0"/>
      <point x="711.0" y="594.0" type="curve"/>
      <point x="711.0" y="514.0"/>
      <point x="645.0" y="448.0"/>
      <point x="549.0" y="448.0" type="curve"/>
      <point x="543.0" y="448.0"/>
      <point x="629.0" y="370.0"/>
      <point x="632.0" y="369.0" type="curve"/>
      <point x="710.0" y="371.0"/>
    </contour>
  </outline>
</glyph>
<glyph name="Diaer" format="2">
  <advance width="801.0"/>
  <unicode hex="00A8"/>
  <anchor x="400.0" y="1410.0" name="U"/>
  <outline>
    <contour>
      <point x="300.0" y="1186.0"/>
      <point x="300.0" y="1261.0" type="curve"/>
      <point x="300.0" y="1323.0"/>
      <point x="272.0" y="1356.0"/>
      <point x="215.0" y="1356.0" type="curve" smooth="yes"/>
      <point x="152.0" y="1356.0"/>
      <point x="100.0" y="1296.0"/>
      <point x="100.0" y="1220.0" type="curve" smooth="yes"/>
      <point x="100.0" y="1159.0"/>
      <point x="125.0" y="1124.0"/>
      <point x="184.0" y="1124.0" type="curve" smooth="yes"/>
      <point x="250.0" y="1124.0"/>
    </contour>
    <contour>
      <point x="700.0" y="1186.0"/>
      <point x="700.0" y="1261.0" type="curve"/>
      <point x="700.0" y="1323.0"/>
      <point x="672.0" y="1356.0"/>
      <point x="615.0" y="1356.0" type="curve" smooth="yes"/>
      <point x="552.0" y="1356.0"/>
      <point x="500.0" y="1296.0"/>
      <point x="500.0" y="1220.0" type="curve" smooth="yes"/>
      <point x="500.0" y="1159.0"/>
      <point x="525.0" y="1124.0"/>
      <point x="584.0" y="1124.0" type="curve" smooth="yes"/>
      <point x="650.0" y="1124.0"/>
    </contour>
  </outline>
</glyph>
<glyph name="CopyrightSgn" format="2">
  <advance width="1460.0"/>
  <unicode hex="00A9"/>
  <outline>
    <contour>
      <point x="1360.0" y="266.0"/>
      <point x="1360.0" y="631.0" type="curve"/>
      <point x="1360.0" y="995.0"/>
      <point x="1094.0" y="1290.0"/>
      <point x="729.0" y="1290.0" type="curve" smooth="yes"/>
      <point x="365.0" y="1290.0"/>
      <point x="100.0" y="995.0"/>
      <point x="100.0" y="631.0" type="curve" smooth="yes"/>
      <point x="100.0" y="266.0"/>
      <point x="365.0" y="-30.0"/>
      <point x="729.0" y="-30.0" type="curve" smooth="yes"/>
      <point x="1094.0" y="-30.0"/>
    </contour>
    <contour>
      <point x="1274.0" y="946.0"/>
      <point x="1274.0" y="631.0" type="curve"/>
      <point x="1274.0" y="313.0"/>
      <point x="1047.0" y="56.0"/>
      <point x="729.0" y="56.0" type="curve" smooth="yes"/>
      <point x="414.0" y="56.0"/>
      <point x="186.0" y="313.0"/>
      <point x="186.0" y="631.0" type="curve" smooth="yes"/>
      <point x="186.0" y="946.0"/>
      <point x="414.0" y="1204.0"/>
      <point x="729.0" y="1204.0" type="curve" smooth="yes"/>
      <point x="1047.0" y="1204.0"/>
    </contour>
    <contour>
      <point x="899.0" y="254.0"/>
      <point x="1018.0" y="369.0" type="curve"/>
      <point x="1012.0" y="373.0"/>
      <point x="1001.0" y="393.0"/>
      <point x="991.0" y="397.0" type="curve"/>
      <point x="889.0" y="322.0"/>
      <point x="838.0" y="305.0"/>
      <point x="780.0" y="305.0" type="curve" smooth="yes"/>
      <point x="668.0" y="305.0"/>
      <point x="489.0" y="414.0"/>
      <point x="489.0" y="627.0" type="curve" smooth="yes"/>
      <point x="489.0" y="887.0"/>
      <point x="645.0" y="963.0"/>
      <point x="731.0" y="963.0" type="curve" smooth="yes"/>
      <point x="813.0" y="963.0"/>
      <point x="870.0" y="924.0"/>
      <point x="918.0" y="887.0" type="curve"/>
      <point x="942.0" y="883.0" type="line"/>
      <point x="965.0" y="901.0"/>
      <point x="1016.0" y="973.0"/>
      <point x="1006.0" y="981.0" type="curve" smooth="yes"/>
      <point x="956.0" y="1016.0"/>
      <point x="881.0" y="1044.0"/>
      <point x="780.0" y="1044.0" type="curve" smooth="yes"/>
      <point x="551.0" y="1044.0"/>
      <point x="358.0" y="870.0"/>
      <point x="358.0" y="602.0" type="curve" smooth="yes"/>
      <point x="358.0" y="360.0"/>
      <point x="535.0" y="217.0"/>
      <point x="707.0" y="217.0" type="curve" smooth="yes"/>
      <point x="803.0" y="217.0"/>
    </contour>
  </outline>
</glyph>
<glyph name="FemOrdIndicator" format="2">
  <advance width="524.0"/>
  <unicode hex="00AA"/>
  <outline>
    <contour>
      <point x="453.0" y="727.0"/>
      <point x="514.0" y="768.0" type="curve"/>
      <point x="508.0" y="793.0" type="line"/>
      <point x="471.0" y="778.0"/>
      <point x="451.0" y="778.0"/>
      <point x="444.0" y="782.0" type="curve" smooth="yes"/>
      <point x="436.0" y="791.0"/>
      <point x="430.0" y="805.0"/>
      <point x="430.0" y="842.0" type="curve" smooth="yes"/>
      <point x="430.0" y="1038.0" type="line" smooth="yes"/>
      <point x="430.0" y="1186.0"/>
      <point x="395.0" y="1235.0"/>
      <point x="299.0" y="1235.0" type="curve" smooth="yes"/>
      <point x="229.0" y="1235.0"/>
      <point x="78.0" y="1159.0"/>
      <point x="66.0" y="1075.0" type="curve"/>
      <point x="74.0" y="1055.0" type="line"/>
      <point x="92.0" y="1051.0"/>
      <point x="182.0" y="1071.0"/>
      <point x="178.0" y="1083.0" type="curve" smooth="yes"/>
      <point x="158.0" y="1139.0"/>
      <point x="213.0" y="1178.0"/>
      <point x="252.0" y="1178.0" type="curve" smooth="yes"/>
      <point x="324.0" y="1178.0"/>
      <point x="338.0" y="1133.0"/>
      <point x="338.0" y="1051.0" type="curve" smooth="yes"/>
      <point x="338.0" y="846.0" type="line" smooth="yes"/>
      <point x="338.0" y="752.0"/>
      <point x="367.0" y="711.0"/>
      <point x="391.0" y="711.0" type="curve" smooth="yes"/>
      <point x="412.0" y="711.0"/>
    </contour>
    <contour>
      <point x="295.0" y="981.0" type="curve"/>
      <point x="414.0" y="1012.0" type="line"/>
      <point x="410.0" y="1053.0" type="line"/>
      <point x="246.0" y="1010.0" type="line" smooth="yes"/>
      <point x="111.0" y="973.0"/>
      <point x="49.0" y="907.0"/>
      <point x="49.0" y="825.0" type="curve" smooth="yes"/>
      <point x="49.0" y="741.0"/>
      <point x="113.0" y="711.0"/>
      <point x="166.0" y="711.0" type="curve" smooth="yes"/>
      <point x="215.0" y="711.0"/>
      <point x="289.0" y="739.0"/>
      <point x="358.0" y="811.0" type="curve"/>
      <point x="352.0" y="852.0" type="line"/>
      <point x="297.0" y="803.0"/>
      <point x="244.0" y="780.0"/>
      <point x="199.0" y="780.0" type="curve" smooth="yes"/>
      <point x="180.0" y="780.0"/>
      <point x="147.0" y="793.0"/>
      <point x="147.0" y="848.0" type="curve" smooth="yes"/>
      <point x="147.0" y="905.0"/>
      <point x="178.0" y="948.0"/>
    </contour>
    <contour>
      <point x="51.0" y="586.0" type="line"/>
      <point x="485.0" y="586.0" type="line"/>
      <point x="485.0" y="659.0" type="line"/>
      <point x="51.0" y="659.0" type="line"/>
    </contour>
  </outline>
</glyph>
<glyph name="LftPtngDblAngQuotMrk" format="2">
  <advance width="994.0"/>
  <unicode hex="00AB"/>
  <outline>
    <contour>
      <point x="450.0" y="430.0" type="curve"/>
      <point x="811.0" y="17.0" type="line"/>
      <point x="854.0" y="47.0" type="line"/>
      <point x="623.0" y="467.0" type="line"/>
      <point x="620.0" y="465.0"/>
      <point x="854.0" y="883.0"/>
      <point x="853.0" y="883.0" type="curve"/>
      <point x="811.0" y="913.0" type="line"/>
      <point x="452.0" y="503.0" type="line"/>
      <point x="450.0" y="500.0"/>
      <point x="450.0" y="430.0"/>
    </contour>
    <contour>
      <point x="80.0" y="430.0" type="curve"/>
      <point x="441.0" y="17.0" type="line"/>
      <point x="484.0" y="47.0" type="line"/>
      <point x="253.0" y="467.0" type="line"/>
      <point x="250.0" y="465.0"/>
      <point x="484.0" y="883.0"/>
      <point x="483.0" y="883.0" type="curve"/>
      <point x="441.0" y="913.0" type="line"/>
      <point x="82.0" y="503.0" type="line"/>
      <point x="80.0" y="500.0"/>
      <point x="80.0" y="430.0"/>
    </contour>
  </outline>
</glyph>
<glyph name="NotSgn" format="2">
  <advance width="961.0"/>
  <unicode hex="00AC"/>
  <outline>
    <contour>
      <point x="864.0" y="213.0"/>
      <point x="891.0" y="233.0" type="curve"/>
      <point x="891.0" y="596.0" type="line"/>
      <point x="862.0" y="618.0" type="line"/>
      <point x="862.0" y="618.0"/>
      <point x="879.0" y="618.0"/>
      <point x="92.0" y="618.0" type="curve"/>
      <point x="80.0" y="592.0"/>
      <point x="68.0" y="557.0"/>
      <point x="61.0" y="530.0" type="curve"/>
      <point x="86.0" y="506.0" type="line"/>
      <point x="780.0" y="506.0" type="line"/>
      <point x="780.0" y="207.0" type="line"/>
      <point x="805.0" y="182.0" type="line"/>
      <point x="838.0" y="193.0"/>
    </contour>
  </outline>
</glyph>
<glyph name="RegisteredSgn" format="2">
  <advance width="730.0"/>
  <unicode hex="00AE"/>
  <outline>
    <contour>
      <point x="696.0" y="893.0"/>
      <point x="696.0" y="1084.0" type="curve"/>
      <point x="696.0" y="1275.0"/>
      <point x="556.0" y="1430.0"/>
      <point x="364.0" y="1430.0" type="curve" smooth="yes"/>
      <point x="173.0" y="1430.0"/>
      <point x="35.0" y="1275.0"/>
      <point x="35.0" y="1084.0" type="curve" smooth="yes"/>
      <point x="35.0" y="893.0"/>
      <point x="173.0" y="738.0"/>
      <point x="364.0" y="738.0" type="curve" smooth="yes"/>
      <point x="556.0" y="738.0"/>
    </contour>
    <contour>
      <point x="637.0" y="1242.0"/>
      <point x="637.0" y="1084.0" type="curve"/>
      <point x="637.0" y="925.0"/>
      <point x="523.0" y="797.0"/>
      <point x="364.0" y="797.0" type="curve" smooth="yes"/>
      <point x="207.0" y="797.0"/>
      <point x="93.0" y="925.0"/>
      <point x="93.0" y="1084.0" type="curve" smooth="yes"/>
      <point x="93.0" y="1242.0"/>
      <point x="207.0" y="1371.0"/>
      <point x="364.0" y="1371.0" type="curve" smooth="yes"/>
      <point x="523.0" y="1371.0"/>
    </contour>
    <contour>
      <point x="499.0" y="1116.0"/>
      <point x="499.0" y="1196.0" type="curve"/>
      <point x="499.0" y="1250.0"/>
      <point x="447.0" y="1291.0"/>
      <point x="347.0" y="1291.0" type="curve" smooth="yes"/>
      <point x="292.0" y="1291.0"/>
      <point x="251.0" y="1282.0"/>
      <point x="212.0" y="1273.0" type="curve"/>
      <point x="214.0" y="1244.0" type="line"/>
      <point x="257.0" y="1250.0"/>
      <point x="299.0" y="1256.0"/>
      <point x="336.0" y="1256.0" type="curve" smooth="yes"/>
      <point x="412.0" y="1256.0"/>
      <point x="438.0" y="1226.0"/>
      <point x="438.0" y="1187.0" type="curve" smooth="yes"/>
      <point x="438.0" y="1136.0"/>
      <point x="407.0" y="1107.0"/>
      <point x="340.0" y="1107.0" type="curve" smooth="yes"/>
      <point x="328.0" y="1107.0"/>
      <point x="319.0" y="1108.0"/>
      <point x="305.0" y="1111.0" type="curve"/>
      <point x="307.0" y="1075.0" type="line"/>
      <point x="320.0" y="1072.0"/>
      <point x="333.0" y="1070.0"/>
      <point x="344.0" y="1070.0" type="curve" smooth="yes"/>
      <point x="429.0" y="1070.0"/>
    </contour>
    <contour>
      <point x="529.0" y="890.0"/>
      <point x="556.0" y="898.0" type="curve"/>
      <point x="554.0" y="919.0" type="line"/>
      <point x="525.0" y="917.0"/>
      <point x="511.0" y="920.0"/>
      <point x="502.0" y="934.0" type="curve" smooth="yes"/>
      <point x="384.0" y="1098.0" type="line"/>
      <point x="341.0" y="1079.0" type="line"/>
      <point x="451.0" y="899.0" type="line" smooth="yes"/>
      <point x="456.0" y="891.0"/>
      <point x="470.0" y="881.0"/>
      <point x="482.0" y="881.0" type="curve" smooth="yes"/>
      <point x="497.0" y="881.0"/>
    </contour>
    <contour>
      <point x="214.0" y="887.0" type="line"/>
      <point x="356.0" y="887.0" type="line"/>
      <point x="356.0" y="905.0" type="line"/>
      <point x="326.0" y="911.0"/>
      <point x="313.0" y="919.0"/>
      <point x="313.0" y="924.0" type="curve" smooth="yes"/>
      <point x="313.0" y="1269.0" type="line"/>
      <point x="258.0" y="1269.0" type="line"/>
      <point x="258.0" y="924.0" type="line" smooth="yes"/>
      <point x="258.0" y="918.0"/>
      <point x="242.0" y="911.0"/>
      <point x="214.0" y="905.0" type="curve"/>
    </contour>
  </outline>
</glyph>
<glyph name="DegreeSgn" format="2">
  <advance width="733.0"/>
  <unicode hex="00B0"/>
  <outline>
    <contour>
      <point x="593.0" y="881.0"/>
      <point x="593.0" y="1045.0" type="curve"/>
      <point x="593.0" y="1147.0"/>
      <point x="508.0" y="1235.0"/>
      <point x="404.0" y="1235.0" type="curve" smooth="yes"/>
      <point x="279.0" y="1235.0"/>
      <point x="140.0" y="1114.0"/>
      <point x="140.0" y="948.0" type="curve" smooth="yes"/>
      <point x="140.0" y="845.0"/>
      <point x="219.0" y="759.0"/>
      <point x="329.0" y="759.0" type="curve" smooth="yes"/>
      <point x="452.0" y="759.0"/>
    </contour>
    <contour>
      <point x="484.0" y="1073.0"/>
      <point x="484.0" y="995.0" type="curve"/>
      <point x="484.0" y="903.0"/>
      <point x="419.0" y="851.0"/>
      <point x="355.0" y="851.0" type="curve" smooth="yes"/>
      <point x="289.0" y="851.0"/>
      <point x="250.0" y="923.0"/>
      <point x="250.0" y="998.0" type="curve" smooth="yes"/>
      <point x="250.0" y="1086.0"/>
      <point x="312.0" y="1142.0"/>
      <point x="378.0" y="1142.0" type="curve" smooth="yes"/>
      <point x="443.0" y="1142.0"/>
    </contour>
  </outline>
</glyph>
<glyph name="PlusMinusSgn" format="2">
  <advance width="840.0"/>
  <unicode hex="00B1"/>
  <outline>
    <contour>
      <point x="772.0" y="666.0"/>
      <point x="778.0" y="693.0" type="curve"/>
      <point x="754.0" y="717.0" type="line"/>
      <point x="92.0" y="717.0" type="line"/>
      <point x="80.0" y="691.0"/>
      <point x="68.0" y="658.0"/>
      <point x="61.0" y="631.0" type="curve"/>
      <point x="86.0" y="607.0" type="line"/>
      <point x="748.0" y="607.0" type="line"/>
      <point x="758.0" y="629.0"/>
    </contour>
    <contour>
      <point x="451.0" y="328.0"/>
      <point x="477.0" y="341.0" type="curve"/>
      <point x="477.0" y="992.0" type="line"/>
      <point x="453.0" y="1015.0" type="line"/>
      <point x="424.0" y="1008.0"/>
      <point x="387.0" y="994.0"/>
      <point x="362.0" y="986.0" type="curve"/>
      <point x="362.0" y="332.0" type="line"/>
      <point x="387.0" y="310.0" type="line"/>
      <point x="416.0" y="316.0"/>
    </contour>
    <contour>
      <point x="772.0" y="194.0"/>
      <point x="778.0" y="221.0" type="curve"/>
      <point x="754.0" y="245.0" type="line"/>
      <point x="92.0" y="245.0" type="line"/>
      <point x="80.0" y="219.0"/>
      <point x="68.0" y="186.0"/>
      <point x="61.0" y="159.0" type="curve"/>
      <point x="86.0" y="135.0" type="line"/>
      <point x="748.0" y="135.0" type="line"/>
      <point x="758.0" y="157.0"/>
    </contour>
  </outline>
</glyph>
<glyph name="SupTwo" format="2">
  <advance width="673.0"/>
  <unicode hex="00B2"/>
  <anchor x="337.0" y="550.0" name="L"/>
  <anchor x="337.0" y="1410.0" name="U"/>
  <outline>
    <contour>
      <point x="585.0" y="620.0" type="line"/>
      <point x="595.0" y="792.0" type="line"/>
      <point x="550.0" y="799.0" type="line"/>
      <point x="550.0" y="799.0"/>
      <point x="542.0" y="703.0"/>
      <point x="479.0" y="703.0" type="curve" smooth="yes"/>
      <point x="206.0" y="703.0" type="line"/>
      <point x="493.0" y="991.0"/>
      <point x="585.0" y="1084.0"/>
      <point x="585.0" y="1191.0" type="curve" smooth="yes"/>
      <point x="585.0" y="1308.0"/>
      <point x="497.0" y="1361.0"/>
      <point x="375.0" y="1361.0" type="curve" smooth="yes"/>
      <point x="221.0" y="1361.0"/>
      <point x="78.0" y="1252.0"/>
      <point x="78.0" y="1169.0" type="curve"/>
      <point x="96.0" y="1151.0" type="line"/>
      <point x="139.0" y="1155.0"/>
      <point x="175.0" y="1165.0"/>
      <point x="207.0" y="1180.0" type="curve"/>
      <point x="207.0" y="1237.0"/>
      <point x="256.0" y="1295.0"/>
      <point x="327.0" y="1295.0" type="curve" smooth="yes"/>
      <point x="423.0" y="1295.0"/>
      <point x="458.0" y="1248.0"/>
      <point x="458.0" y="1174.0" type="curve" smooth="yes"/>
      <point x="458.0" y="1083.0"/>
      <point x="391.0" y="995.0"/>
      <point x="59.0" y="664.0" type="curve"/>
      <point x="79.0" y="620.0" type="line"/>
    </contour>
  </outline>
</glyph>
<glyph name="SupThree" format="2">
  <advance width="673.0"/>
  <unicode hex="00B3"/>
  <anchor x="337.0" y="550.0" name="L"/>
  <anchor x="337.0" y="1410.0" name="U"/>
  <outline>
    <contour>
      <point x="587.0" y="714.0"/>
      <point x="587.0" y="849.0" type="curve"/>
      <point x="587.0" y="946.0"/>
      <point x="506.0" y="1028.0"/>
      <point x="399.0" y="1039.0" type="curve"/>
      <point x="490.0" y="1067.0"/>
      <point x="546.0" y="1135.0"/>
      <point x="546.0" y="1195.0" type="curve" smooth="yes"/>
      <point x="546.0" y="1276.0"/>
      <point x="482.0" y="1361.0"/>
      <point x="338.0" y="1361.0" type="curve" smooth="yes"/>
      <point x="192.0" y="1361.0"/>
      <point x="63.0" y="1266.0"/>
      <point x="63.0" y="1199.0" type="curve"/>
      <point x="82.0" y="1180.0" type="line"/>
      <point x="122.0" y="1183.0"/>
      <point x="168.0" y="1190.0"/>
      <point x="199.0" y="1204.0" type="curve"/>
      <point x="188.0" y="1258.0"/>
      <point x="228.0" y="1295.0"/>
      <point x="298.0" y="1295.0" type="curve" smooth="yes"/>
      <point x="383.0" y="1295.0"/>
      <point x="416.0" y="1239.0"/>
      <point x="416.0" y="1184.0" type="curve" smooth="yes"/>
      <point x="416.0" y="1135.0"/>
      <point x="396.0" y="1071.0"/>
      <point x="230.0" y="1031.0" type="curve"/>
      <point x="239.0" y="985.0" type="line"/>
      <point x="268.0" y="989.0"/>
      <point x="261.0" y="989.0"/>
      <point x="287.0" y="989.0" type="curve" smooth="yes"/>
      <point x="365.0" y="989.0"/>
      <point x="456.0" y="949.0"/>
      <point x="456.0" y="829.0" type="curve" smooth="yes"/>
      <point x="456.0" y="727.0"/>
      <point x="384.0" y="673.0"/>
      <point x="275.0" y="673.0" type="curve" smooth="yes"/>
      <point x="205.0" y="673.0"/>
      <point x="146.0" y="688.0"/>
      <point x="61.0" y="742.0" type="curve"/>
      <point x="38.0" y="701.0" type="line"/>
      <point x="122.0" y="632.0"/>
      <point x="211.0" y="602.0"/>
      <point x="294.0" y="602.0" type="curve" smooth="yes"/>
      <point x="476.0" y="602.0"/>
    </contour>
  </outline>
</glyph>
<glyph name="AcuteAccent" format="2">
  <advance width="653.0"/>
  <unicode hex="00B4"/>
  <anchor x="327.0" y="1410.0" name="U"/>
  <outline>
    <contour>
      <point x="274.0" y="1047.0" type="curve"/>
      <point x="619.0" y="1427.0" type="line"/>
      <point x="596.0" y="1466.0" type="line"/>
      <point x="566.0" y="1474.0"/>
      <point x="483.0" y="1487.0"/>
      <point x="451.0" y="1489.0" type="curve"/>
      <point x="217.0" y="1075.0" type="line"/>
      <point x="233.0" y="1063.0"/>
      <point x="250.0" y="1052.0"/>
    </contour>
  </outline>
</glyph>
<glyph name="MicroSgn" format="2">
  <advance width="1105.0"/>
  <unicode hex="00B5"/>
  <outline>
    <contour>
      <point x="1085.0" y="82.0" type="curve"/>
      <point x="1075.0" y="127.0" type="line"/>
      <point x="1031.0" y="110.0"/>
      <point x="998.0" y="99.0"/>
      <point x="969.0" y="99.0" type="curve" smooth="yes"/>
      <point x="941.0" y="99.0"/>
      <point x="930.0" y="144.0"/>
      <point x="930.0" y="268.0" type="curve" smooth="yes"/>
      <point x="930.0" y="308.0"/>
      <point x="930.0" y="736.0"/>
      <point x="930.0" y="759.0" type="curve"/>
      <point x="932.0" y="842.0"/>
      <point x="941.0" y="887.0"/>
      <point x="946.0" y="921.0" type="curve"/>
      <point x="946.0" y="921.0"/>
      <point x="918.0" y="960.0"/>
      <point x="918.0" y="960.0" type="curve"/>
      <point x="864.0" y="938.0"/>
      <point x="800.0" y="916.0"/>
      <point x="742.0" y="900.0" type="curve"/>
      <point x="760.0" y="875.0"/>
      <point x="780.0" y="791.0"/>
      <point x="780.0" y="748.0" type="curve" smooth="yes"/>
      <point x="780.0" y="716.0"/>
      <point x="780.0" y="245.0"/>
      <point x="780.0" y="216.0" type="curve" smooth="yes"/>
      <point x="780.0" y="87.0"/>
      <point x="803.0" y="-31.0"/>
      <point x="863.0" y="-31.0" type="curve" smooth="yes"/>
      <point x="908.0" y="-31.0"/>
      <point x="1005.0" y="32.0"/>
    </contour>
    <contour>
      <point x="841.0" y="264.0" type="curve"/>
      <point x="826.0" y="353.0" type="line"/>
      <point x="697.0" y="154.0"/>
      <point x="604.0" y="131.0"/>
      <point x="523.0" y="131.0" type="curve" smooth="yes"/>
      <point x="411.0" y="131.0"/>
      <point x="340.0" y="274.0"/>
      <point x="340.0" y="366.0" type="curve" smooth="yes"/>
      <point x="340.0" y="380.0"/>
      <point x="340.0" y="909.0"/>
      <point x="340.0" y="917.0" type="curve"/>
      <point x="329.0" y="931.0"/>
      <point x="303.0" y="960.0"/>
      <point x="302.0" y="960.0" type="curve"/>
      <point x="232.0" y="924.0"/>
      <point x="165.0" y="912.0"/>
      <point x="61.0" y="894.0" type="curve"/>
      <point x="61.0" y="854.0" type="line"/>
      <point x="187.0" y="841.0"/>
      <point x="190.0" y="834.0"/>
      <point x="190.0" y="731.0" type="curve" smooth="yes"/>
      <point x="190.0" y="719.0"/>
      <point x="190.0" y="462.0"/>
      <point x="190.0" y="442.0" type="curve" smooth="yes"/>
      <point x="190.0" y="163.0"/>
      <point x="347.0" y="-31.0"/>
      <point x="490.0" y="-31.0" type="curve" smooth="yes"/>
      <point x="582.0" y="-31.0"/>
      <point x="711.0" y="70.0"/>
    </contour>
    <contour>
      <point x="262.0" y="337.0"/>
      <point x="271.0" y="459.0" type="curve"/>
      <point x="263.0" y="512.0"/>
      <point x="190.0" y="615.0"/>
      <point x="190.0" y="615.0" type="curve"/>
      <point x="190.0" y="544.0"/>
      <point x="190.0" y="-442.0"/>
      <point x="190.0" y="-471.0" type="curve"/>
      <point x="229.0" y="-500.0" type="line"/>
      <point x="261.0" y="-484.0"/>
      <point x="372.0" y="-442.0"/>
      <point x="411.0" y="-429.0" type="curve"/>
      <point x="341.0" y="-345.0"/>
      <point x="271.0" y="-180.0"/>
      <point x="273.0" y="116.0" type="curve"/>
      <point x="275.0" y="272.0"/>
    </contour>
  </outline>
</glyph>
<glyph name="PilcrowSgn" format="2">
  <advance width="1135.0"/>
  <unicode hex="00B6"/>
  <outline>
    <contour>
      <point x="983.0" y="1260.0"/>
      <point x="983.0" y="1260.0" type="curve"/>
      <point x="983.0" y="1260.0"/>
      <point x="625.0" y="1290.0"/>
      <point x="508.0" y="1290.0" type="curve" smooth="yes"/>
      <point x="238.0" y="1290.0"/>
      <point x="49.0" y="1130.0"/>
      <point x="49.0" y="903.0" type="curve" smooth="yes"/>
      <point x="49.0" y="653.0"/>
      <point x="256.0" y="526.0"/>
      <point x="504.0" y="526.0" type="curve" smooth="yes"/>
      <point x="639.0" y="526.0"/>
      <point x="676.0" y="563.0"/>
      <point x="676.0" y="563.0" type="curve"/>
      <point x="668.0" y="618.0" type="line"/>
      <point x="668.0" y="618.0"/>
      <point x="633.0" y="610.0"/>
      <point x="547.0" y="610.0" type="curve" smooth="yes"/>
      <point x="313.0" y="610.0"/>
      <point x="215.0" y="793.0"/>
      <point x="215.0" y="938.0" type="curve" smooth="yes"/>
      <point x="215.0" y="1087.0"/>
      <point x="330.0" y="1206.0"/>
      <point x="489.0" y="1206.0" type="curve" smooth="yes"/>
      <point x="561.0" y="1206.0"/>
      <point x="698.0" y="1196.0"/>
      <point x="827.0" y="1147.0" type="curve"/>
      <point x="838.0" y="1137.0"/>
    </contour>
    <contour>
      <point x="444.0" y="-250.0" type="line"/>
      <point x="1055.0" y="-250.0" type="line"/>
      <point x="1055.0" y="-207.0" type="line"/>
      <point x="958.0" y="-188.0"/>
      <point x="909.0" y="-162.0"/>
      <point x="909.0" y="-145.0" type="curve" smooth="yes"/>
      <point x="909.0" y="1155.0" type="line" smooth="yes"/>
      <point x="909.0" y="1174.0"/>
      <point x="965.0" y="1198.0"/>
      <point x="1055.0" y="1217.0" type="curve"/>
      <point x="1055.0" y="1260.0" type="line"/>
      <point x="446.0" y="1260.0" type="line"/>
      <point x="446.0" y="1217.0" type="line"/>
      <point x="543.0" y="1198.0"/>
      <point x="592.0" y="1237.0"/>
      <point x="592.0" y="1221.0" type="curve" smooth="yes"/>
      <point x="590.0" y="-145.0" type="line" smooth="yes"/>
      <point x="590.0" y="-164.0"/>
      <point x="535.0" y="-188.0"/>
      <point x="444.0" y="-207.0" type="curve"/>
    </contour>
    <contour>
      <point x="791.0" y="1204.0" type="line"/>
      <point x="791.0" y="-145.0" type="line"/>
      <point x="791.0" y="-160.0"/>
      <point x="766.0" y="-172.0"/>
      <point x="750.0" y="-176.0" type="curve"/>
      <point x="737.0" y="-172.0"/>
      <point x="711.0" y="-160.0"/>
      <point x="711.0" y="-145.0" type="curve" smooth="yes"/>
      <point x="711.0" y="1223.0" type="line"/>
    </contour>
  </outline>
</glyph>
<glyph name="MiddleDot" format="2">
  <advance width="300.0"/>
  <unicode hex="00B7"/>
  <outline>
    <contour>
      <point x="250.0" y="646.0"/>
      <point x="250.0" y="721.0" type="curve"/>
      <point x="250.0" y="783.0"/>
      <point x="222.0" y="816.0"/>
      <point x="165.0" y="816.0" type="curve" smooth="yes"/>
      <point x="102.0" y="816.0"/>
      <point x="50.0" y="756.0"/>
      <point x="50.0" y="680.0" type="curve" smooth="yes"/>
      <point x="50.0" y="619.0"/>
      <point x="75.0" y="584.0"/>
      <point x="134.0" y="584.0" type="curve" smooth="yes"/>
      <point x="200.0" y="584.0"/>
    </contour>
  </outline>
</glyph>
<glyph name="Cedilla" format="2">
  <advance width="469.0"/>
  <unicode hex="00B8"/>
  <anchor x="243.0" y="-600.0" name="L"/>
  <outline>
    <contour>
      <point x="408.0" y="-328.0"/>
      <point x="408.0" y="-229.0" type="curve"/>
      <point x="408.0" y="-154.0"/>
      <point x="338.0" y="-119.0"/>
      <point x="268.0" y="-104.0" type="curve"/>
      <point x="320.0" y="50.0" type="line"/>
      <point x="242.0" y="52.0" type="line"/>
      <point x="171.0" y="-171.0"/>
      <point x="156.0" y="-209.0"/>
      <point x="156.0" y="-209.0" type="curve"/>
      <point x="238.0" y="-217.0"/>
      <point x="270.0" y="-231.0"/>
      <point x="270.0" y="-276.0" type="curve" smooth="yes"/>
      <point x="270.0" y="-319.0"/>
      <point x="217.0" y="-371.0"/>
      <point x="78.0" y="-395.0" type="curve"/>
      <point x="100.0" y="-444.0" type="line"/>
      <point x="319.0" y="-412.0"/>
    </contour>
  </outline>
</glyph>
<glyph name="SupOne" format="2">
  <advance width="673.0"/>
  <unicode hex="00B9"/>
  <anchor x="360.0" y="550.0" name="L"/>
  <anchor x="360.0" y="1410.0" name="U"/>
  <outline>
    <contour>
      <point x="119.0" y="620.0" type="line"/>
      <point x="588.0" y="620.0" type="line"/>
      <point x="588.0" y="662.0" type="line"/>
      <point x="447.0" y="677.0"/>
      <point x="423.0" y="700.0"/>
      <point x="423.0" y="716.0" type="curve" smooth="yes"/>
      <point x="423.0" y="1346.0" type="line"/>
      <point x="397.0" y="1367.0" type="line"/>
      <point x="336.0" y="1338.0"/>
      <point x="175.0" y="1284.0"/>
      <point x="97.0" y="1265.0" type="curve"/>
      <point x="112.0" y="1224.0" type="line"/>
      <point x="235.0" y="1247.0"/>
      <point x="274.0" y="1243.0"/>
      <point x="285.0" y="1233.0" type="curve" smooth="yes"/>
      <point x="297.0" y="1222.0"/>
      <point x="298.0" y="1206.0"/>
      <point x="298.0" y="1174.0" type="curve" smooth="yes"/>
      <point x="298.0" y="716.0" type="line" smooth="yes"/>
      <point x="298.0" y="699.0"/>
      <point x="265.0" y="677.0"/>
      <point x="119.0" y="662.0" type="curve"/>
    </contour>
  </outline>
</glyph>
<glyph name="MascOrdIndicator" format="2">
  <advance width="578.0"/>
  <unicode hex="00BA"/>
  <outline>
    <contour>
      <point x="528.0" y="846.0"/>
      <point x="528.0" y="983.0" type="curve"/>
      <point x="528.0" y="1128.0"/>
      <point x="434.0" y="1235.0"/>
      <point x="305.0" y="1235.0" type="curve" smooth="yes"/>
      <point x="164.0" y="1235.0"/>
      <point x="49.0" y="1102.0"/>
      <point x="49.0" y="963.0" type="curve" smooth="yes"/>
      <point x="49.0" y="817.0"/>
      <point x="139.0" y="711.0"/>
      <point x="272.0" y="711.0" type="curve" smooth="yes"/>
      <point x="397.0" y="711.0"/>
    </contour>
    <contour>
      <point x="61.0" y="586.0" type="line"/>
      <point x="516.0" y="586.0" type="line"/>
      <point x="516.0" y="659.0" type="line"/>
      <point x="61.0" y="659.0" type="line"/>
    </contour>
    <contour>
      <point x="434.0" y="1079.0"/>
      <point x="434.0" y="967.0" type="curve"/>
      <point x="434.0" y="854.0"/>
      <point x="377.0" y="768.0"/>
      <point x="305.0" y="768.0" type="curve" smooth="yes"/>
      <point x="223.0" y="768.0"/>
      <point x="143.0" y="864.0"/>
      <point x="143.0" y="977.0" type="curve" smooth="yes"/>
      <point x="143.0" y="1090.0"/>
      <point x="193.0" y="1176.0"/>
      <point x="272.0" y="1176.0" type="curve" smooth="yes"/>
      <point x="360.0" y="1176.0"/>
    </contour>
  </outline>
</glyph>
<glyph name="RtPtngDblAngQuotMrk" format="2">
  <advance width="994.0"/>
  <unicode hex="00BB"/>
  <outline>
    <contour>
      <point x="544.0" y="430.0" type="line"/>
      <point x="542.0" y="503.0" type="line"/>
      <point x="183.0" y="913.0" type="line"/>
      <point x="141.0" y="883.0" type="line"/>
      <point x="371.0" y="467.0" type="line"/>
      <point x="140.0" y="47.0" type="line"/>
      <point x="183.0" y="17.0" type="line"/>
    </contour>
    <contour>
      <point x="914.0" y="430.0" type="line"/>
      <point x="912.0" y="503.0" type="line"/>
      <point x="553.0" y="913.0" type="line"/>
      <point x="511.0" y="883.0" type="line"/>
      <point x="741.0" y="467.0" type="line"/>
      <point x="510.0" y="47.0" type="line"/>
      <point x="553.0" y="17.0" type="line"/>
    </contour>
  </outline>
</glyph>
<glyph name="VulgFracOneQuarter" format="2">
  <advance width="1200.0"/>
  <unicode hex="00BC"/>
  <outline>
    <contour>
      <point x="326.0" y="3.0" type="curve"/>
      <point x="1084.0" y="1207.0" type="line"/>
      <point x="1059.0" y="1235.0" type="line"/>
      <point x="1030.0" y="1229.0"/>
      <point x="996.0" y="1214.0"/>
      <point x="970.0" y="1203.0" type="curve"/>
      <point x="208.0" y="0.0" type="line"/>
      <point x="233.0" y="-30.0" type="line"/>
      <point x="269.0" y="-21.0"/>
      <point x="295.0" y="-12.0"/>
    </contour>
    <contour>
      <point x="1104.0" y="190.0"/>
      <point x="1120.0" y="210.0" type="curve"/>
      <point x="1105.0" y="226.0" type="line"/>
      <point x="1044.0" y="226.0" type="line"/>
      <point x="1044.0" y="581.0" type="line"/>
      <point x="1024.0" y="598.0" type="line"/>
      <point x="1001.0" y="588.0"/>
      <point x="964.0" y="575.0"/>
      <point x="933.0" y="563.0" type="curve"/>
      <point x="653.0" y="180.0" type="line"/>
      <point x="672.0" y="164.0" type="line"/>
      <point x="950.0" y="164.0" type="line"/>
      <point x="950.0" y="63.0" type="line" smooth="yes"/>
      <point x="950.0" y="52.0"/>
      <point x="937.0" y="42.0"/>
      <point x="840.0" y="29.0" type="curve"/>
      <point x="840.0" y="0.0" type="line"/>
      <point x="1114.0" y="0.0" type="line"/>
      <point x="1114.0" y="29.0" type="line"/>
      <point x="1052.0" y="41.0"/>
      <point x="1044.0" y="48.0"/>
      <point x="1044.0" y="58.0" type="curve" smooth="yes"/>
      <point x="1044.0" y="164.0" type="line"/>
      <point x="1075.0" y="164.0" type="line"/>
      <point x="1092.0" y="175.0"/>
    </contour>
    <contour>
      <point x="950.0" y="491.0" type="line"/>
      <point x="950.0" y="226.0" type="line"/>
      <point x="749.0" y="226.0" type="line"/>
    </contour>
    <contour>
      <point x="97.0" y="637.0" type="line"/>
      <point x="472.0" y="637.0" type="line"/>
      <point x="472.0" y="671.0" type="line"/>
      <point x="360.0" y="683.0"/>
      <point x="340.0" y="701.0"/>
      <point x="340.0" y="714.0" type="curve" smooth="yes"/>
      <point x="340.0" y="1218.0" type="line"/>
      <point x="320.0" y="1235.0" type="line"/>
      <point x="271.0" y="1211.0"/>
      <point x="142.0" y="1168.0"/>
      <point x="80.0" y="1153.0" type="curve"/>
      <point x="92.0" y="1120.0" type="line"/>
      <point x="190.0" y="1139.0"/>
      <point x="221.0" y="1135.0"/>
      <point x="230.0" y="1127.0" type="curve" smooth="yes"/>
      <point x="240.0" y="1119.0"/>
      <point x="240.0" y="1106.0"/>
      <point x="240.0" y="1080.0" type="curve" smooth="yes"/>
      <point x="240.0" y="714.0" type="line" smooth="yes"/>
      <point x="240.0" y="700.0"/>
      <point x="214.0" y="683.0"/>
      <point x="97.0" y="671.0" type="curve"/>
    </contour>
  </outline>
</glyph>
<glyph name="VulgFracOneHalf" format="2">
  <advance width="1200.0"/>
  <unicode hex="00BD"/>
  <outline>
    <contour>
      <point x="317.0" y="3.0" type="curve"/>
      <point x="1075.0" y="1207.0" type="line"/>
      <point x="1050.0" y="1235.0" type="line"/>
      <point x="1021.0" y="1229.0"/>
      <point x="987.0" y="1214.0"/>
      <point x="961.0" y="1203.0" type="curve"/>
      <point x="199.0" y="0.0" type="line"/>
      <point x="224.0" y="-30.0" type="line"/>
      <point x="260.0" y="-21.0"/>
      <point x="286.0" y="-12.0"/>
    </contour>
    <contour>
      <point x="97.0" y="637.0" type="line"/>
      <point x="472.0" y="637.0" type="line"/>
      <point x="472.0" y="671.0" type="line"/>
      <point x="360.0" y="683.0"/>
      <point x="340.0" y="701.0"/>
      <point x="340.0" y="714.0" type="curve" smooth="yes"/>
      <point x="340.0" y="1218.0" type="line"/>
      <point x="320.0" y="1235.0" type="line"/>
      <point x="271.0" y="1211.0"/>
      <point x="142.0" y="1168.0"/>
      <point x="80.0" y="1153.0" type="curve"/>
      <point x="92.0" y="1120.0" type="line"/>
      <point x="190.0" y="1139.0"/>
      <point x="221.0" y="1135.0"/>
      <point x="230.0" y="1127.0" type="curve" smooth="yes"/>
      <point x="240.0" y="1119.0"/>
      <point x="240.0" y="1106.0"/>
      <point x="240.0" y="1080.0" type="curve" smooth="yes"/>
      <point x="240.0" y="714.0" type="line" smooth="yes"/>
      <point x="240.0" y="700.0"/>
      <point x="214.0" y="683.0"/>
      <point x="97.0" y="671.0" type="curve"/>
    </contour>
    <contour>
      <point x="1112.0" y="0.0" type="line"/>
      <point x="1120.0" y="138.0" type="line"/>
      <point x="1084.0" y="143.0" type="line"/>
      <point x="1084.0" y="143.0"/>
      <point x="1078.0" y="66.0"/>
      <point x="1027.0" y="66.0" type="curve" smooth="yes"/>
      <point x="809.0" y="66.0" type="line"/>
      <point x="1038.0" y="297.0"/>
      <point x="1112.0" y="371.0"/>
      <point x="1112.0" y="457.0" type="curve" smooth="yes"/>
      <point x="1112.0" y="550.0"/>
      <point x="1042.0" y="593.0"/>
      <point x="944.0" y="593.0" type="curve" smooth="yes"/>
      <point x="821.0" y="593.0"/>
      <point x="706.0" y="506.0"/>
      <point x="706.0" y="439.0" type="curve"/>
      <point x="721.0" y="425.0" type="line"/>
      <point x="755.0" y="428.0"/>
      <point x="784.0" y="435.0"/>
      <point x="810.0" y="448.0" type="curve"/>
      <point x="810.0" y="494.0"/>
      <point x="849.0" y="540.0"/>
      <point x="906.0" y="540.0" type="curve" smooth="yes"/>
      <point x="982.0" y="540.0"/>
      <point x="1010.0" y="502.0"/>
      <point x="1010.0" y="443.0" type="curve" smooth="yes"/>
      <point x="1010.0" y="370.0"/>
      <point x="957.0" y="300.0"/>
      <point x="691.0" y="35.0" type="curve"/>
      <point x="707.0" y="0.0" type="line"/>
    </contour>
  </outline>
</glyph>
<glyph name="VulgFracThreeQuarters" format="2">
  <advance width="1200.0"/>
  <unicode hex="00BE"/>
  <outline>
    <contour>
      <point x="316.0" y="3.0" type="curve"/>
      <point x="1074.0" y="1207.0" type="line"/>
      <point x="1049.0" y="1235.0" type="line"/>
      <point x="1020.0" y="1229.0"/>
      <point x="986.0" y="1214.0"/>
      <point x="960.0" y="1203.0" type="curve"/>
      <point x="198.0" y="0.0" type="line"/>
      <point x="223.0" y="-30.0" type="line"/>
      <point x="259.0" y="-21.0"/>
      <point x="285.0" y="-12.0"/>
    </contour>
    <contour>
      <point x="519.0" y="713.0"/>
      <point x="519.0" y="821.0" type="curve" smooth="yes"/>
      <point x="519.0" y="898.0"/>
      <point x="454.0" y="964.0"/>
      <point x="369.0" y="973.0" type="curve"/>
      <point x="442.0" y="995.0"/>
      <point x="486.0" y="1049.0"/>
      <point x="486.0" y="1097.0" type="curve" smooth="yes"/>
      <point x="486.0" y="1162.0"/>
      <point x="435.0" y="1230.0"/>
      <point x="320.0" y="1230.0" type="curve" smooth="yes"/>
      <point x="203.0" y="1230.0"/>
      <point x="100.0" y="1154.0"/>
      <point x="100.0" y="1101.0" type="curve"/>
      <point x="115.0" y="1085.0" type="line"/>
      <point x="147.0" y="1088.0"/>
      <point x="184.0" y="1093.0"/>
      <point x="209.0" y="1105.0" type="curve"/>
      <point x="200.0" y="1148.0"/>
      <point x="232.0" y="1177.0"/>
      <point x="288.0" y="1177.0" type="curve" smooth="yes"/>
      <point x="356.0" y="1177.0"/>
      <point x="382.0" y="1133.0"/>
      <point x="382.0" y="1089.0" type="curve" smooth="yes"/>
      <point x="382.0" y="1049.0"/>
      <point x="366.0" y="998.0"/>
      <point x="234.0" y="966.0" type="curve"/>
      <point x="241.0" y="929.0" type="line"/>
      <point x="264.0" y="933.0"/>
      <point x="258.0" y="933.0"/>
      <point x="279.0" y="933.0" type="curve" smooth="yes"/>
      <point x="342.0" y="933.0"/>
      <point x="414.0" y="901.0"/>
      <point x="414.0" y="805.0" type="curve" smooth="yes"/>
      <point x="414.0" y="723.0"/>
      <point x="357.0" y="680.0"/>
      <point x="270.0" y="680.0" type="curve" smooth="yes"/>
      <point x="214.0" y="680.0"/>
      <point x="166.0" y="692.0"/>
      <point x="98.0" y="735.0" type="curve"/>
      <point x="80.0" y="702.0" type="line"/>
      <point x="147.0" y="647.0"/>
      <point x="218.0" y="623.0"/>
      <point x="285.0" y="623.0" type="curve" smooth="yes"/>
      <point x="430.0" y="623.0"/>
    </contour>
    <contour>
      <point x="1104.0" y="190.0"/>
      <point x="1120.0" y="210.0" type="curve"/>
      <point x="1105.0" y="226.0" type="line"/>
      <point x="1044.0" y="226.0" type="line"/>
      <point x="1044.0" y="581.0" type="line"/>
      <point x="1024.0" y="598.0" type="line"/>
      <point x="1001.0" y="588.0"/>
      <point x="964.0" y="575.0"/>
      <point x="933.0" y="563.0" type="curve"/>
      <point x="653.0" y="180.0" type="line"/>
      <point x="672.0" y="164.0" type="line"/>
      <point x="950.0" y="164.0" type="line"/>
      <point x="950.0" y="63.0" type="line" smooth="yes"/>
      <point x="950.0" y="52.0"/>
      <point x="937.0" y="42.0"/>
      <point x="840.0" y="29.0" type="curve"/>
      <point x="840.0" y="0.0" type="line"/>
      <point x="1114.0" y="0.0" type="line"/>
      <point x="1114.0" y="29.0" type="line"/>
      <point x="1052.0" y="41.0"/>
      <point x="1044.0" y="48.0"/>
      <point x="1044.0" y="58.0" type="curve" smooth="yes"/>
      <point x="1044.0" y="164.0" type="line"/>
      <point x="1075.0" y="164.0" type="line"/>
      <point x="1092.0" y="175.0"/>
    </contour>
    <contour>
      <point x="950.0" y="491.0" type="line"/>
      <point x="950.0" y="226.0" type="line"/>
      <point x="749.0" y="226.0" type="line"/>
    </contour>
  </outline>
</glyph>
<glyph name="InvQstnMrk" format="2">
  <advance width="887.0"/>
  <unicode hex="00BF"/>
  <outline>
    <contour>
      <point x="586.0" y="758.0"/>
      <point x="586.0" y="848.0" type="curve" smooth="yes"/>
      <point x="586.0" y="920.0"/>
      <point x="555.0" y="960.0"/>
      <point x="485.0" y="960.0" type="curve" smooth="yes"/>
      <point x="408.0" y="960.0"/>
      <point x="348.0" y="889.0"/>
      <point x="348.0" y="799.0" type="curve" smooth="yes"/>
      <point x="348.0" y="725.0"/>
      <point x="379.0" y="684.0"/>
      <point x="446.0" y="684.0" type="curve" smooth="yes"/>
      <point x="522.0" y="684.0"/>
    </contour>
    <contour>
      <point x="446.0" y="551.0"/>
      <point x="424.0" y="530.0" type="curve"/>
      <point x="418.0" y="434.0" type="line"/>
      <point x="397.0" y="154.0"/>
      <point x="80.0" y="55.0"/>
      <point x="80.0" y="-246.0" type="curve" smooth="yes"/>
      <point x="80.0" y="-430.0"/>
      <point x="188.0" y="-559.0"/>
      <point x="385.0" y="-559.0" type="curve" smooth="yes"/>
      <point x="608.0" y="-559.0"/>
      <point x="807.0" y="-422.0"/>
      <point x="807.0" y="-233.0" type="curve" smooth="yes"/>
      <point x="807.0" y="-223.0"/>
      <point x="807.0" y="-211.0"/>
      <point x="805.0" y="-201.0" type="curve"/>
      <point x="778.0" y="-170.0" type="line"/>
      <point x="719.0" y="-174.0"/>
      <point x="674.0" y="-184.0"/>
      <point x="629.0" y="-209.0" type="curve"/>
      <point x="637.0" y="-227.0"/>
      <point x="643.0" y="-246.0"/>
      <point x="643.0" y="-266.0" type="curve" smooth="yes"/>
      <point x="643.0" y="-371.0"/>
      <point x="559.0" y="-465.0"/>
      <point x="463.0" y="-465.0" type="curve" smooth="yes"/>
      <point x="324.0" y="-465.0"/>
      <point x="246.0" y="-365.0"/>
      <point x="246.0" y="-201.0" type="curve" smooth="yes"/>
      <point x="246.0" y="-10.0"/>
      <point x="545.0" y="205.0"/>
      <point x="530.0" y="434.0" type="curve"/>
      <point x="524.0" y="551.0" type="line"/>
      <point x="498.0" y="571.0" type="line"/>
      <point x="463.0" y="561.0"/>
    </contour>
  </outline>
</glyph>
<glyph name="LtnCapAe" format="2">
  <advance width="1595.0"/>
  <unicode hex="00C6"/>
  <anchor x="854.0" y="-100.0" name="L"/>
  <anchor x="924.0" y="1370.0" name="U"/>
  <outline>
    <contour>
      <point x="1524.0" y="129.0"/>
      <point x="1536.0" y="244.0" type="curve"/>
      <point x="1491.0" y="262.0" type="line"/>
      <point x="1434.0" y="106.0"/>
      <point x="1393.0" y="90.0"/>
      <point x="1270.0" y="90.0" type="curve" smooth="yes"/>
      <point x="1141.0" y="90.0" type="line" smooth="yes"/>
      <point x="965.0" y="90.0"/>
      <point x="934.0" y="115.0"/>
      <point x="934.0" y="154.0" type="curve" smooth="yes"/>
      <point x="934.0" y="651.0" type="line"/>
      <point x="1075.0" y="651.0" type="line" smooth="yes"/>
      <point x="1188.0" y="651.0"/>
      <point x="1235.0" y="635.0"/>
      <point x="1274.0" y="596.0" type="curve"/>
      <point x="1303.0" y="617.0"/>
      <point x="1343.0" y="670.0"/>
      <point x="1366.0" y="707.0" type="curve"/>
      <point x="1339.0" y="735.0" type="line"/>
      <point x="934.0" y="735.0" type="line"/>
      <point x="934.0" y="1170.0" type="line"/>
      <point x="1300.0" y="1170.0" type="line" smooth="yes"/>
      <point x="1352.0" y="1170.0"/>
      <point x="1376.0" y="1133.0"/>
      <point x="1382.0" y="1010.0" type="curve"/>
      <point x="1427.0" y="1010.0" type="line"/>
      <point x="1446.0" y="1061.0"/>
      <point x="1464.0" y="1167.0"/>
      <point x="1468.0" y="1235.0" type="curve"/>
      <point x="1438.0" y="1260.0" type="line"/>
      <point x="1079.0" y="1260.0" type="line"/>
      <point x="911.0" y="1260.0" type="line"/>
      <point x="381.0" y="1260.0" type="line"/>
      <point x="381.0" y="1217.0" type="line"/>
      <point x="512.0" y="1192.0"/>
      <point x="590.0" y="1178.0"/>
      <point x="571.0" y="1133.0" type="curve" smooth="yes"/>
      <point x="158.0" y="111.0" type="line" smooth="yes"/>
      <point x="141.0" y="72.0"/>
      <point x="90.0" y="59.0"/>
      <point x="0.0" y="43.0" type="curve"/>
      <point x="0.0" y="0.0" type="line"/>
      <point x="416.0" y="0.0" type="line"/>
      <point x="416.0" y="43.0" type="line"/>
      <point x="307.0" y="55.0"/>
      <point x="268.0" y="72.0"/>
      <point x="285.0" y="111.0" type="curve" smooth="yes"/>
      <point x="505.0" y="651.0" type="line"/>
      <point x="774.0" y="651.0" type="line"/>
      <point x="774.0" y="104.0" type="line" smooth="yes"/>
      <point x="774.0" y="86.0"/>
      <point x="721.0" y="61.0"/>
      <point x="631.0" y="43.0" type="curve"/>
      <point x="631.0" y="0.0" type="line"/>
      <point x="1493.0" y="0.0" type="line"/>
      <point x="1503.0" y="39.0"/>
    </contour>
    <contour>
      <point x="774.0" y="1148.0" type="curve" smooth="yes"/>
      <point x="774.0" y="735.0" type="line"/>
      <point x="539.0" y="735.0" type="line"/>
      <point x="696.0" y="1131.0" type="line" smooth="yes"/>
      <point x="715.0" y="1177.0"/>
      <point x="774.0" y="1177.0"/>
    </contour>
  </outline>
</glyph>
<glyph name="LtnCapOAcute" format="1">
  <advance width="1229"/>
  <unicode hex="00D3"/>
  <outline>
    <component base="LtnCapO"/>
    <component base="CombAcute.LP" xOffset="1160" yOffset="320"/>
    <contour>
      <point x="587" y="0" type="move" name="H"/>
    </contour>
    <contour>
      <point x="617" y="-100" type="move" name="L"/>
    </contour>
    <contour>
      <point x="678" y="0" type="move" name="O"/>
    </contour>
    <contour>
      <point x="1258" y="1100" type="move" name="R"/>
    </contour>
    <contour>
      <point x="617" y="1690" type="move" name="U"/>
    </contour>
  </outline>
</glyph>
<glyph name="MultSgn" format="2">
  <advance width="840.0"/>
  <unicode hex="00D7"/>
  <outline>
    <contour>
      <point x="719.0" y="269.0"/>
      <point x="746.0" y="280.0" type="curve"/>
      <point x="746.0" y="314.0" type="line"/>
      <point x="187.0" y="873.0" type="line"/>
      <point x="158.0" y="866.0"/>
      <point x="120.0" y="854.0"/>
      <point x="94.0" y="842.0" type="curve"/>
      <point x="95.0" y="808.0" type="line"/>
      <point x="654.0" y="249.0" type="line"/>
      <point x="678.0" y="255.0"/>
    </contour>
    <contour>
      <point x="93.0" y="314.0" type="line"/>
      <point x="93.0" y="280.0" type="line"/>
      <point x="120.0" y="269.0"/>
      <point x="161.0" y="255.0"/>
      <point x="186.0" y="249.0" type="curve"/>
      <point x="745.0" y="808.0" type="line"/>
      <point x="745.0" y="842.0" type="line"/>
      <point x="719.0" y="854.0"/>
      <point x="681.0" y="866.0"/>
      <point x="652.0" y="873.0" type="curve"/>
    </contour>
  </outline>
</glyph>
<glyph name="LtnCapOStrk" format="2">
  <advance width="1229.0"/>
  <unicode hex="00D8"/>
  <anchor x="604.0" y="-100.0" name="L"/>
  <anchor x="604.0" y="1370.0" name="U"/>
  <outline>
    <contour>
      <point x="1138.0" y="285.0"/>
      <point x="1138.0" y="647.0" type="curve"/>
      <point x="1138.0" y="973.0"/>
      <point x="963.0" y="1290.0"/>
      <point x="633.0" y="1290.0" type="curve" smooth="yes"/>
      <point x="319.0" y="1290.0"/>
      <point x="70.0" y="975.0"/>
      <point x="70.0" y="612.0" type="curve" smooth="yes"/>
      <point x="70.0" y="276.0"/>
      <point x="254.0" y="-30.0"/>
      <point x="575.0" y="-30.0" type="curve" smooth="yes"/>
      <point x="879.0" y="-30.0"/>
    </contour>
    <contour>
      <point x="983.0" y="905.0"/>
      <point x="983.0" y="629.0" type="curve"/>
      <point x="983.0" y="276.0"/>
      <point x="825.0" y="90.0"/>
      <point x="604.0" y="90.0" type="curve" smooth="yes"/>
      <point x="399.0" y="90.0"/>
      <point x="225.0" y="342.0"/>
      <point x="225.0" y="641.0" type="curve" smooth="yes"/>
      <point x="225.0" y="967.0"/>
      <point x="367.0" y="1175.0"/>
      <point x="604.0" y="1175.0" type="curve" smooth="yes"/>
      <point x="831.0" y="1175.0"/>
    </contour>
    <contour>
      <point x="233.0" y="-2.0" type="curve"/>
      <point x="1130.0" y="1280.0" type="line"/>
      <point x="1102.0" y="1313.0" type="line"/>
      <point x="1061.0" y="1303.0"/>
      <point x="1012.0" y="1286.0"/>
      <point x="975.0" y="1264.0" type="curve"/>
      <point x="76.0" y="-20.0" type="line"/>
      <point x="104.0" y="-53.0" type="line"/>
      <point x="137.0" y="-43.0"/>
      <point x="209.0" y="-23.0"/>
    </contour>
  </outline>
</glyph>
<glyph name="LtnCapThorn" format="2">
  <advance width="1071.0"/>
  <unicode hex="00DE"/>
  <anchor x="515.0" y="-100.0" name="L"/>
  <anchor x="515.0" y="1370.0" name="U"/>
  <outline>
    <contour>
      <point x="982.0" y="389.0"/>
      <point x="982.0" y="666.0" type="curve"/>
      <point x="982.0" y="895.0"/>
      <point x="797.0" y="1020.0"/>
      <point x="510.0" y="1020.0" type="curve" smooth="yes"/>
      <point x="379.0" y="1020.0"/>
      <point x="303.0" y="1012.0"/>
      <point x="233.0" y="997.0" type="curve"/>
      <point x="244.0" y="924.0" type="line"/>
      <point x="315.0" y="932.0"/>
      <point x="383.0" y="936.0"/>
      <point x="453.0" y="936.0" type="curve" smooth="yes"/>
      <point x="659.0" y="936.0"/>
      <point x="827.0" y="846.0"/>
      <point x="827.0" y="625.0" type="curve" smooth="yes"/>
      <point x="827.0" y="436.0"/>
      <point x="666.0" y="340.0"/>
      <point x="543.0" y="340.0" type="curve" smooth="yes"/>
      <point x="496.0" y="340.0"/>
      <point x="444.0" y="344.0"/>
      <point x="389.0" y="369.0" type="curve"/>
      <point x="412.0" y="298.0" type="line"/>
      <point x="457.0" y="275.0"/>
      <point x="512.0" y="265.0"/>
      <point x="573.0" y="265.0" type="curve" smooth="yes"/>
      <point x="729.0" y="265.0"/>
    </contour>
    <contour>
      <point x="49.0" y="0.0" type="line"/>
      <point x="530.0" y="0.0" type="line"/>
      <point x="530.0" y="43.0" type="line"/>
      <point x="391.0" y="66.0"/>
      <point x="355.0" y="88.0"/>
      <point x="355.0" y="104.0" type="curve" smooth="yes"/>
      <point x="355.0" y="1155.0" type="line" smooth="yes"/>
      <point x="355.0" y="1174.0"/>
      <point x="393.0" y="1194.0"/>
      <point x="530.0" y="1217.0" type="curve"/>
      <point x="530.0" y="1260.0" type="line"/>
      <point x="49.0" y="1260.0" type="line"/>
      <point x="49.0" y="1217.0" type="line"/>
      <point x="145.0" y="1198.0"/>
      <point x="195.0" y="1171.0"/>
      <point x="195.0" y="1155.0" type="curve" smooth="yes"/>
      <point x="195.0" y="104.0" type="line" smooth="yes"/>
      <point x="195.0" y="86.0"/>
      <point x="139.0" y="61.0"/>
      <point x="49.0" y="43.0" type="curve"/>
    </contour>
  </outline>
</glyph>
<glyph name="LtnSmSharpS" format="2">
  <advance width="1157.0"/>
  <unicode hex="00DF"/>
  <anchor x="561.0" y="-100.0" name="L"/>
  <anchor x="561.0" y="1690.0" name="U"/>
  <outline>
    <contour>
      <point x="1067.0" y="127.0"/>
      <point x="1067.0" y="283.0" type="curve"/>
      <point x="1067.0" y="614.0"/>
      <point x="623.0" y="596.0"/>
      <point x="623.0" y="770.0" type="curve" smooth="yes"/>
      <point x="623.0" y="930.0"/>
      <point x="967.0" y="862.0"/>
      <point x="967.0" y="1190.0" type="curve" smooth="yes"/>
      <point x="967.0" y="1337.0"/>
      <point x="883.0" y="1550.0"/>
      <point x="653.0" y="1550.0" type="curve" smooth="yes"/>
      <point x="557.0" y="1550.0"/>
      <point x="465.0" y="1516.0"/>
      <point x="393.0" y="1458.0" type="curve" smooth="yes"/>
      <point x="289.0" y="1372.0"/>
      <point x="195.0" y="1282.0"/>
      <point x="195.0" y="961.0" type="curve" smooth="yes"/>
      <point x="195.0" y="102.0" type="line" smooth="yes"/>
      <point x="195.0" y="86.0"/>
      <point x="145.0" y="59.0"/>
      <point x="55.0" y="43.0" type="curve"/>
      <point x="55.0" y="0.0" type="line"/>
      <point x="345.0" y="0.0" type="line"/>
      <point x="345.0" y="1016.0" type="line" smooth="yes"/>
      <point x="345.0" y="1346.0"/>
      <point x="436.0" y="1425.0"/>
      <point x="565.0" y="1425.0" type="curve" smooth="yes"/>
      <point x="745.0" y="1425.0"/>
      <point x="815.0" y="1257.0"/>
      <point x="815.0" y="1122.0" type="curve" smooth="yes"/>
      <point x="815.0" y="930.0"/>
      <point x="483.0" y="999.0"/>
      <point x="483.0" y="729.0" type="curve" smooth="yes"/>
      <point x="483.0" y="457.0"/>
      <point x="937.0" y="494.0"/>
      <point x="937.0" y="217.0" type="curve" smooth="yes"/>
      <point x="937.0" y="129.0"/>
      <point x="862.0" y="70.0"/>
      <point x="768.0" y="70.0" type="curve" smooth="yes"/>
      <point x="666.0" y="70.0"/>
      <point x="541.0" y="127.0"/>
      <point x="522.0" y="270.0" type="curve"/>
      <point x="483.0" y="283.0" type="line"/>
      <point x="463.0" y="256.0"/>
      <point x="457.0" y="66.0"/>
      <point x="469.0" y="47.0" type="curve" smooth="yes"/>
      <point x="489.0" y="14.0"/>
      <point x="655.0" y="-30.0"/>
      <point x="729.0" y="-30.0" type="curve" smooth="yes"/>
      <point x="969.0" y="-30.0"/>
    </contour>
  </outline>
</glyph>
<glyph name="LtnSmEDiaer" format="1">
  <advance width="946"/>
  <unicode hex="00EB"/>
  <outline>
    <component base="LtnSmE"/>
    <component base="CombDiaer" xOffset="1025"/>
    <contour>
      <point x="500" y="0" type="move" name="H"/>
    </contour>
    <contour>
      <point x="500" y="-100" type="move" name="L"/>
    </contour>
    <contour>
      <point x="558" y="0" type="move" name="O"/>
    </contour>
    <contour>
      <point x="1020" y="900" type="move" name="R"/>
    </contour>
    <contour>
      <point x="510" y="1410" type="move" name="U"/>
    </contour>
  </outline>
</glyph>
<glyph name="LtnSmEth" format="2">
  <advance width="1020.0"/>
  <unicode hex="00F0"/>
  <anchor x="507.0" y="-100.0" name="L"/>
  <anchor x="508.0" y="1620.0" name="U"/>
  <outline>
    <contour>
      <point x="935.0" y="129.0"/>
      <point x="935.0" y="592.0" type="curve" smooth="yes"/>
      <point x="935.0" y="801.0"/>
      <point x="858.0" y="1019.0"/>
      <point x="673.0" y="1218.0" type="curve"/>
      <point x="911.0" y="1321.0" type="line"/>
      <point x="905.0" y="1356.0" type="line"/>
      <point x="870.0" y="1368.0"/>
      <point x="874.0" y="1368.0"/>
      <point x="811.0" y="1378.0" type="curve"/>
      <point x="603.0" y="1287.0" type="line"/>
      <point x="546.0" y="1340.0"/>
      <point x="480.0" y="1391.0"/>
      <point x="406.0" y="1440.0" type="curve"/>
      <point x="205.0" y="1368.0" type="line"/>
      <point x="211.0" y="1327.0" type="line"/>
      <point x="323.0" y="1343.0"/>
      <point x="405.0" y="1296.0"/>
      <point x="478.0" y="1233.0" type="curve"/>
      <point x="223.0" y="1122.0" type="line"/>
      <point x="233.0" y="1085.0" type="line"/>
      <point x="279.0" y="1071.0"/>
      <point x="274.0" y="1073.0"/>
      <point x="324.0" y="1067.0" type="curve"/>
      <point x="550.0" y="1165.0" type="line"/>
      <point x="644.0" y="1069.0"/>
      <point x="712.0" y="963.0"/>
      <point x="750.0" y="829.0" type="curve"/>
      <point x="682.0" y="902.0"/>
      <point x="585.0" y="960.0"/>
      <point x="506.0" y="960.0" type="curve" smooth="yes"/>
      <point x="289.0" y="960.0"/>
      <point x="80.0" y="709.0"/>
      <point x="80.0" y="444.0" type="curve" smooth="yes"/>
      <point x="80.0" y="172.0"/>
      <point x="236.0" y="-30.0"/>
      <point x="496.0" y="-30.0" type="curve" smooth="yes"/>
      <point x="647.0" y="-30.0"/>
    </contour>
    <contour>
      <point x="734.0" y="739.0"/>
      <point x="785.0" y="586.0" type="curve"/>
      <point x="786.0" y="575.0"/>
      <point x="785.0" y="563.0"/>
      <point x="785.0" y="551.0" type="curve" smooth="yes"/>
      <point x="785.0" y="223.0"/>
      <point x="653.0" y="80.0"/>
      <point x="506.0" y="80.0" type="curve" smooth="yes"/>
      <point x="391.0" y="80.0"/>
      <point x="235.0" y="262.0"/>
      <point x="235.0" y="473.0" type="curve" smooth="yes"/>
      <point x="235.0" y="686.0"/>
      <point x="317.0" y="850.0"/>
      <point x="475.0" y="850.0" type="curve" smooth="yes"/>
      <point x="591.0" y="850.0"/>
    </contour>
  </outline>
</glyph>
<glyph name="DivSgn" format="2">
  <advance width="840.0"/>
  <unicode hex="00F7"/>
  <outline>
    <contour>
      <point x="772.0" y="566.0"/>
      <point x="778.0" y="593.0" type="curve"/>
      <point x="754.0" y="617.0" type="line"/>
      <point x="92.0" y="617.0" type="line"/>
      <point x="80.0" y="591.0"/>
      <point x="68.0" y="558.0"/>
      <point x="61.0" y="531.0" type="curve"/>
      <point x="86.0" y="507.0" type="line"/>
      <point x="748.0" y="507.0" type="line"/>
      <point x="758.0" y="529.0"/>
    </contour>
    <contour>
      <point x="499.0" y="761.0"/>
      <point x="499.0" y="820.0" type="curve"/>
      <point x="499.0" y="870.0"/>
      <point x="477.0" y="896.0"/>
      <point x="432.0" y="896.0" type="curve" smooth="yes"/>
      <point x="381.0" y="896.0"/>
      <point x="340.0" y="848.0"/>
      <point x="340.0" y="788.0" type="curve" smooth="yes"/>
      <point x="340.0" y="739.0"/>
      <point x="360.0" y="711.0"/>
      <point x="407.0" y="711.0" type="curve" smooth="yes"/>
      <point x="459.0" y="711.0"/>
    </contour>
    <contour>
      <point x="499.0" y="281.0"/>
      <point x="499.0" y="340.0" type="curve"/>
      <point x="499.0" y="390.0"/>
      <point x="477.0" y="416.0"/>
      <point x="432.0" y="416.0" type="curve" smooth="yes"/>
      <point x="381.0" y="416.0"/>
      <point x="340.0" y="368.0"/>
      <point x="340.0" y="308.0" type="curve" smooth="yes"/>
      <point x="340.0" y="259.0"/>
      <point x="360.0" y="231.0"/>
      <point x="407.0" y="231.0" type="curve" smooth="yes"/>
      <point x="459.0" y="231.0"/>
    </contour>
  </outline>
</glyph>
<glyph name="LtnSmOStrk" format="2">
  <advance width="1030.0"/>
  <unicode hex="00F8"/>
  <anchor x="535.0" y="0.0" name="H"/>
  <anchor x="525.0" y="-100.0" name="L"/>
  <anchor x="575.0" y="0.0" name="O"/>
  <anchor x="1060.0" y="900.0" name="R"/>
  <anchor x="525.0" y="1050.0" name="U"/>
  <outline>
    <contour>
      <point x="950.0" y="485.0" type="curve" smooth="yes"/>
      <point x="950.0" y="617.0"/>
      <point x="912.0" y="732.0"/>
      <point x="844.0" y="815.0" type="curve"/>
      <point x="946.0" y="950.0" type="line"/>
      <point x="915.0" y="983.0" type="line"/>
      <point x="877.0" y="973.0"/>
      <point x="829.0" y="936.0"/>
      <point x="793.0" y="913.0" type="curve"/>
      <point x="772.0" y="885.0" type="line"/>
      <point x="707.0" y="933.0"/>
      <point x="627.0" y="960.0"/>
      <point x="535.0" y="960.0" type="curve" smooth="yes"/>
      <point x="285.0" y="960.0"/>
      <point x="80.0" y="709.0"/>
      <point x="80.0" y="444.0" type="curve" smooth="yes"/>
      <point x="80.0" y="312.0"/>
      <point x="119.0" y="196.0"/>
      <point x="188.0" y="112.0" type="curve"/>
      <point x="88.0" y="-20.0" type="line"/>
      <point x="117.0" y="-53.0" type="line"/>
      <point x="150.0" y="-43.0"/>
      <point x="217.0" y="-2.0"/>
      <point x="242.0" y="18.0" type="curve"/>
      <point x="261.0" y="43.0" type="line"/>
      <point x="325.0" y="-4.0"/>
      <point x="405.0" y="-30.0"/>
      <point x="496.0" y="-30.0" type="curve" smooth="yes"/>
      <point x="739.0" y="-30.0"/>
      <point x="950.0" y="219.0"/>
    </contour>
    <contour>
      <point x="294.0" y="253.0" type="line"/>
      <point x="257.0" y="317.0"/>
      <point x="233.0" y="393.0"/>
      <point x="233.0" y="473.0" type="curve" smooth="yes"/>
      <point x="233.0" y="686.0"/>
      <point x="303.0" y="850.0"/>
      <point x="506.0" y="850.0" type="curve" smooth="yes"/>
      <point x="565.0" y="850.0"/>
      <point x="627.0" y="816.0"/>
      <point x="678.0" y="761.0" type="curve"/>
    </contour>
    <contour>
      <point x="524.0" y="80.0" type="curve" smooth="yes"/>
      <point x="471.0" y="80.0"/>
      <point x="409.0" y="114.0"/>
      <point x="357.0" y="170.0" type="curve"/>
      <point x="739.0" y="676.0" type="line"/>
      <point x="775.0" y="612.0"/>
      <point x="797.0" y="536.0"/>
      <point x="797.0" y="455.0" type="curve" smooth="yes"/>
      <point x="797.0" y="227.0"/>
      <point x="713.0" y="80.0"/>
    </contour>
  </outline>
</glyph>
<glyph name="LtnCapCAcute" format="1">
  <advance width="1098"/>
  <unicode hex="0106"/>
  <outline>
    <component base="LtnCapC"/>
    <component base="CombAcute.LP" xOffset="1157" yOffset="320"/>
    <contour>
      <point x="584" y="0" type="move" name="H"/>
    </contour>
    <contour>
      <point x="614" y="-100" type="move" name="L"/>
    </contour>
    <contour>
      <point x="614" y="1690" type="move" name="U"/>
    </contour>
  </outline>
</glyph>
<glyph name="LtnCapDStrk" format="2">
  <advance width="1214.0"/>
  <unicode hex="0110"/>
  <anchor x="575.0" y="-100.0" name="L"/>
  <anchor x="575.0" y="1370.0" name="U"/>
  <outline>
    <contour>
      <point x="614.0" y="615.0" type="line"/>
      <point x="639.0" y="682.0" type="line"/>
      <point x="614.0" y="705.0" type="line"/>
      <point x="49.0" y="705.0" type="line"/>
      <point x="41.0" y="684.0"/>
      <point x="33.0" y="660.0"/>
      <point x="27.0" y="640.0" type="curve"/>
      <point x="49.0" y="615.0" type="line"/>
    </contour>
    <component base="LtnCapD"/>
  </outline>
</glyph>
<glyph name="LtnSmDBarredStem" format="2">
  <advance width="1065.0"/>
  <unicode hex="0111"/>
  <anchor x="524.0" y="-100.0" name="L"/>
  <anchor x="571.0" y="1690.0" name="U"/>
  <outline>
    <contour>
      <point x="1040.0" y="1140.0" type="line"/>
      <point x="1063.0" y="1205.0" type="line"/>
      <point x="1040.0" y="1230.0" type="line"/>
      <point x="465.0" y="1230.0" type="line"/>
      <point x="455.0" y="1209.0"/>
      <point x="449.0" y="1183.0"/>
      <point x="442.0" y="1162.0" type="curve"/>
      <point x="465.0" y="1140.0" type="line"/>
    </contour>
    <contour>
      <point x="928.0" y="2.0"/>
      <point x="1051.0" y="84.0" type="curve"/>
      <point x="1038.0" y="127.0" type="line"/>
      <point x="958.0" y="96.0"/>
      <point x="930.0" y="92.0"/>
      <point x="918.0" y="106.0" type="curve" smooth="yes"/>
      <point x="903.0" y="125.0"/>
      <point x="895.0" y="160.0"/>
      <point x="895.0" y="254.0" type="curve" smooth="yes"/>
      <point x="895.0" y="1520.0" type="line"/>
      <point x="864.0" y="1550.0" type="line"/>
      <point x="795.0" y="1528.0"/>
      <point x="709.0" y="1499.0"/>
      <point x="600.0" y="1485.0" type="curve"/>
      <point x="600.0" y="1446.0" type="line"/>
      <point x="741.0" y="1436.0"/>
      <point x="745.0" y="1421.0"/>
      <point x="745.0" y="1274.0" type="curve" smooth="yes"/>
      <point x="745.0" y="272.0" type="line" smooth="yes"/>
      <point x="745.0" y="49.0"/>
      <point x="776.0" y="-31.0"/>
      <point x="829.0" y="-31.0" type="curve" smooth="yes"/>
      <point x="866.0" y="-31.0"/>
    </contour>
    <contour>
      <point x="684.0" y="84.0"/>
      <point x="819.0" y="260.0" type="curve"/>
      <point x="813.0" y="270.0"/>
      <point x="799.0" y="289.0"/>
      <point x="782.0" y="297.0" type="curve"/>
      <point x="688.0" y="207.0"/>
      <point x="592.0" y="100.0"/>
      <point x="487.0" y="100.0" type="curve" smooth="yes"/>
      <point x="377.0" y="100.0"/>
      <point x="230.0" y="248.0"/>
      <point x="230.0" y="475.0" type="curve" smooth="yes"/>
      <point x="230.0" y="725.0"/>
      <point x="350.0" y="850.0"/>
      <point x="520.0" y="850.0" type="curve" smooth="yes"/>
      <point x="621.0" y="850.0"/>
      <point x="711.0" y="801.0"/>
      <point x="752.0" y="717.0" type="curve"/>
      <point x="795.0" y="743.0"/>
      <point x="811.0" y="760.0"/>
      <point x="811.0" y="840.0" type="curve"/>
      <point x="707.0" y="944.0"/>
      <point x="631.0" y="960.0"/>
      <point x="551.0" y="960.0" type="curve" smooth="yes"/>
      <point x="272.0" y="960.0"/>
      <point x="80.0" y="674.0"/>
      <point x="80.0" y="444.0" type="curve" smooth="yes"/>
      <point x="80.0" y="147.0"/>
      <point x="268.0" y="-30.0"/>
      <point x="416.0" y="-30.0" type="curve" smooth="yes"/>
      <point x="584.0" y="-30.0"/>
    </contour>
  </outline>
</glyph>
